<svg xmlns="http://www.w3.org/2000/svg" width="60" height="60" fill="none"><g clip-path="url(#a)"><path fill="#fff" d="M0 0h60v60H0z"/><path stroke="#111" stroke-linecap="round" stroke-linejoin="round" stroke-miterlimit="10" stroke-width="2" d="M14.826 58.8v-1.826c0-.53-.43-.961-.96-.961H.96c-.53 0-.961.43-.961.961V58.8h14.826ZM10.883 40.828a3.472 3.472 0 1 1-3.472-3.473 3.472 3.472 0 0 1 3.472 3.473Z"/><path stroke="#111" stroke-linecap="round" stroke-linejoin="round" stroke-miterlimit="10" stroke-width="2" d="M13.527 56.013c-.034-2.002-1.111-3.122-1.738-3.879 0 0-2.423-2.11-2.34-6.173v-2.328M1.3 56.013c.033-2.002 1.11-3.122 1.737-3.879 0 0 2.423-2.11 2.34-6.173v-2.328M33.679 58.8v-1.826c0-.53-.43-.961-.96-.961H19.813c-.53 0-.961.43-.961.961V58.8h14.826ZM29.735 40.828a3.472 3.472 0 1 1-3.471-3.473 3.472 3.472 0 0 1 3.471 3.473Z"/><path stroke="#111" stroke-linecap="round" stroke-linejoin="round" stroke-miterlimit="10" stroke-width="2" d="M32.38 56.013c-.034-2.002-1.111-3.122-1.738-3.879 0 0-2.423-2.11-2.34-6.173v-2.328M20.152 56.013c.034-2.002 1.116-3.122 1.738-3.879 0 0 2.423-2.11 2.34-6.173v-2.328M52.532 58.8v-1.826c0-.53-.43-.961-.96-.961H38.666c-.53 0-.96.43-.96.961V58.8h14.825ZM48.589 40.828a3.469 3.469 0 1 1-6.939 0 3.471 3.471 0 0 1 3.467-3.473 3.472 3.472 0 0 1 3.472 3.473Z"/><path stroke="#111" stroke-linecap="round" stroke-linejoin="round" stroke-miterlimit="10" stroke-width="2" d="M51.233 56.013c-.034-2.002-1.116-3.122-1.738-3.879 0 0-2.423-2.11-2.34-6.173v-2.328M39.005 56.013c.034-2.002 1.111-3.122 1.738-3.879 0 0 2.423-2.11 2.34-6.173v-2.328M26.26 7.91V2M23.887 4.75h4.746M19.563 20.59s-9.253.812-11.839 10.228M7.41 34.722 5.28 32.59M7.41 34.722l2.135-2.132M32.956 20.59s9.233.807 11.831 10.195M45.105 34.722l2.134-2.132M45.105 34.722l-2.131-2.132"/><path fill="#1772BD" d="M19.125 30.73a8.318 8.318 0 0 0 2.327-5.329c.037-.685-.314-1.316-.857-1.738a2.866 2.866 0 0 1-.656-.698s-1.817.317-3.588 1.133c.213.3.451.585.71.844.464.468 1.02.924 1.157 1.571.163.757-.313 1.505-.848 2.065-.535.56-1.178 1.062-1.483 1.772-.497 1.162.038 2.479.564 3.628.192.422.389.844.606 1.25-.021-1.288.41-2.876 2.022-4.46l.046-.038Z"/><path fill="#FFC524" d="M33.345 30.73a8.345 8.345 0 0 1-2.331-5.329c-.038-.685.313-1.316.856-1.738.439-.339.656-.698.656-.698s1.817.317 3.588 1.133a6.56 6.56 0 0 1-.71.844c-.463.468-1.019.924-1.157 1.571-.163.757.313 1.505.848 2.065.535.56 1.178 1.062 1.483 1.772.497 1.162-.037 2.479-.564 3.628-.192.422-.388.844-.606 1.25.021-1.288-.409-2.876-2.021-4.46l-.042-.038Z"/><path stroke="#111" stroke-linecap="round" stroke-linejoin="round" stroke-miterlimit="10" stroke-width="2" d="M32.752 36.268a3.146 3.146 0 0 0-.673-3.301l-.472-.49c-2.369-2.461-3.526-5.951-2.857-9.479a1.504 1.504 0 0 1 1.182-1.19c.769 0 1.14-.473 1.14-.996v-.4a.994.994 0 0 0-.994-.996c-.835 0-1.182.084-1.295-.292-.13-.43-.038-.928.134-1.216l1.128-3.428a3.267 3.267 0 0 0-.535-3.042l-2.477-3.156a.97.97 0 0 0-1.53 0l-2.477 3.156a3.268 3.268 0 0 0-.534 3.042c1.383 4.213 1.428 4.08 1.261 4.644-.058.192-.225.292-.413.292h-.735a.994.994 0 0 0-.995.995v.401c0 .552.447.995.995.995.614.121 1.073.543 1.223 1.413.573 3.364-.534 6.796-2.899 9.253-.317.33-1.942 1.702-1.144 3.791"/></g><defs><clipPath id="a"><path fill="#fff" d="M0 0h60v60H0z"/></clipPath></defs></svg>