<svg xmlns="http://www.w3.org/2000/svg" width="28" height="29" fill="#fff"><path d="M12.833 25.065v3.57h2.333v-3.57a10.52 10.52 0 0 0 9.263-9.263H28v-2.333h-3.57a10.52 10.52 0 0 0-9.263-9.263V.635h-2.333v3.57a10.52 10.52 0 0 0-9.263 9.263H0v2.333h3.57a10.52 10.52 0 0 0 9.263 9.263zM14 6.468a8.18 8.18 0 0 1 8.167 8.167A8.18 8.18 0 0 1 14 22.802a8.18 8.18 0 0 1-8.167-8.167A8.18 8.18 0 0 1 14 6.468zm0 9.334a3.5 3.5 0 1 0 0-7 3.5 3.5 0 1 0 0 7zm0 5.18c2.473 0 4.608-1.423 5.658-3.477a4.62 4.62 0 0 0-2.158-.537h-7c-.782 0-1.505.198-2.158.537A6.339 6.339 0 0 0 14 20.982z"/></svg>