<svg xmlns="http://www.w3.org/2000/svg" width="16" height="17" fill="#ffc700"><path d="M8 1a5.5 5.5 0 0 0-5.5 5.5 5.497 5.497 0 0 0 2.743 4.76c.457.265.743.672.756 1.081a.5.5 0 0 0 .385.471c.234.055.473.099.715.13.216.028.4-.145.4-.363V9.473a4.62 4.62 0 0 1-.625-.114.5.5 0 0 1 .249-.968 3.496 3.496 0 0 0 1.75 0 .5.5 0 0 1 .249.968 4.442 4.442 0 0 1-.625.114v3.107c0 .217.185.39.4.363a7 7 0 0 0 .715-.13.5.5 0 0 0 .385-.471c.013-.409.299-.816.756-1.081a5.497 5.497 0 0 0 2.743-4.76A5.5 5.5 0 0 0 8 1z"/><path fill-rule="evenodd" d="M6.009 13.766a.5.5 0 0 1 .584-.398 7.54 7.54 0 0 0 2.814 0 .5.5 0 1 1 .186.982 8.55 8.55 0 0 1-3.186 0 .5.5 0 0 1-.398-.584zm.494 1.63a.5.5 0 0 1 .549-.445 9.1 9.1 0 0 0 1.896 0 .5.5 0 1 1 .104.995C8.706 15.982 8.355 16 8 16a9.89 9.89 0 0 1-1.052-.055.5.5 0 0 1-.445-.549z"/></svg>