<svg xmlns="http://www.w3.org/2000/svg" width="60" height="60" fill="none"><style>.C{stroke-linecap:round}</style><path fill="#fff" d="M0 0h60v60H0z"/><g stroke="#111" stroke-miterlimit="10" stroke-width="2" style="stroke-linejoin:round"><path d="M46.39 30.937a50.91 50.91 0 0 1 6.275-.318L50.338 3.055c-15.047-.798-20.507 7.419-20.507 7.419M12.782 30.882A51.26 51.26 0 0 0 7 30.619L9.327 3.055c15.047-.798 20.507 7.419 20.507 7.419v8.74M11.872 34.355c-2.903-.293-5.205-.163-6.763.038a1.872 1.872 0 0 1-2.101-2.019l2.05-24.542a1.868 1.868 0 0 1 1.947-1.718c.769.038 1.592.13 2.018.351m41.624 0c.426-.222 1.249-.314 2.018-.351a1.876 1.876 0 0 1 1.947 1.718l2.051 24.542a1.873 1.873 0 0 1-2.101 2.019c-1.646-.209-4.123-.347-7.265.017" class="C"/><path d="M31.45 50.715c7.501-1.051 12.73-7.987 11.679-15.492a13.72 13.72 0 0 0-15.484-11.685c-7.501 1.051-12.73 7.987-11.679 15.492A13.72 13.72 0 0 0 31.45 50.715z"/><g class="C"><path d="M31.101 54.376c8.672 0 15.699-7.034 15.699-15.707"/><path d="m43.407 48.415 6.166 6.169c.71.711.71 1.86 0 2.566a1.81 1.81 0 0 1-2.565 0l-6.166-6.169M24.609 33.557a4.965 4.965 0 0 1 5.318-4.953 4.98 4.98 0 0 1 4.599 4.602 4.96 4.96 0 0 1-1.395 3.82c-2.59 2.658-3.38 2.759-3.555 6.528"/></g><path d="M29.576 46.062a.213.213 0 1 0 0-.426.213.213 0 1 0 0 .426z"/></g><path fill="#ffc524" d="M10.238 21.997a32.758 32.758 0 0 0 2.657-4.702c2.181-4.714 6.788-7.866 11.981-7.908h.255c-2.436-1.764-6.726-3.829-13.502-3.879l-1.391 16.488z"/><path fill="#1772bd" d="M49.431 21.997a32.758 32.758 0 0 1-2.657-4.702c-2.181-4.714-6.788-7.866-11.981-7.908h-.255c2.436-1.764 6.726-3.829 13.502-3.879l1.391 16.488z"/></svg>