<svg xmlns="http://www.w3.org/2000/svg" width="60" height="60" fill="none"><style>.C{stroke-linecap:round}</style><path fill="#fff" d="M0 0h60v60H0z"/><g stroke="#111" stroke-miterlimit="10" stroke-width="2" style="stroke-linejoin:round"><path d="M27.793 46.49a2.68 2.68 0 0 0 2.678 2.679 2.68 2.68 0 0 0 2.678-2.679c0-1.48-1.099-2.161-2.678-2.679-1.404-.46-2.678-1.2-2.678-2.679a2.68 2.68 0 0 1 2.678-2.679 2.68 2.68 0 0 1 2.678 2.679m-2.678-4.167v1.509m0 10.691v1.513m-3.054-16.731c-.806.456-1.834.777-2.945 1.492-1.491.961-2.649 2.407-3.409 4.012-1.22 2.566-1.312 5.651-.251 8.288m6.626-15.393 1.73-.397.393 1.73m-6.309 17.839c.765.472 1.542 1.166 2.669 1.747 1.575.811 3.409 1.091 5.18.949 2.832-.226 5.548-1.689 7.298-3.929m-16.638 1.964-1.207-1.304 1.299-1.208m18.602-3.603c.042-.861.23-1.839.175-3.034-.084-1.772-.76-3.498-1.767-4.961a10.44 10.44 0 0 0-7.047-4.359m10.009 13.437-.522 1.693-1.696-.522" class="C"/><path d="M13.214 13.851c2.481-1.028 3.659-3.874 2.632-6.357s-3.872-3.661-6.353-2.633-3.659 3.874-2.632 6.357 3.872 3.661 6.353 2.633z"/><path d="M14.797 36.045v16.898m-6.96-.288v-16.61m3.48-14.328v2.031a3.593 3.593 0 0 0 3.592 3.594h10.147" class="C"/><path d="M17.825 57.281H7.837v-4.627h5.364a4.63 4.63 0 0 1 4.624 4.627z"/><path d="M16.952 24.697v-2.341a5.64 5.64 0 0 0-5.635-5.638 5.64 5.64 0 0 0-5.635 5.638v5.053a18.37 18.37 0 0 0 2.156 8.635h6.96a18.32 18.32 0 0 0 1.943-5.856" class="C"/><path d="M51.245 14.013a4.865 4.865 0 0 0-2.235-9.47 4.865 4.865 0 0 0 2.235 9.47z"/><path d="M46.696 36.045v16.898m6.96-.288v-16.61m-3.48-14.328v2.031a3.593 3.593 0 0 1-3.593 3.594H36.436" class="C"/><path d="M43.667 57.281h9.988v-4.627h-5.364a4.63 4.63 0 0 0-4.625 4.627z"/><path d="M44.54 24.697v-2.341a5.64 5.64 0 0 1 5.635-5.638 5.64 5.64 0 0 1 5.636 5.638v5.053a18.37 18.37 0 0 1-2.156 8.635h-6.96a18.294 18.294 0 0 1-1.942-5.856" class="C"/></g><path fill="#1772bd" d="m30.47 12.903-4.549 1.747 4.549 1.852 4.545-1.852-4.545-1.747z"/><path fill="#ffc524" d="m24.484 21.692 5.151 2.098v-5.822l-5.151-2.098v5.822zm6.822 2.098 5.147-2.098V15.87l-5.147 2.098v5.822z"/></svg>