<svg xmlns="http://www.w3.org/2000/svg" width="202" height="86" fill="none"><g clip-path="url(#a)"><path fill="#D11414" d="M35.915 26.19a18.663 18.663 0 0 1 2.73-4.523 18.904 18.904 0 0 1 1.746-1.866 19.913 19.913 0 0 0-4.093-3.203 20.314 20.314 0 0 0-13.823-2.505c-4.765.835-9.059 3.337-12.084 7.043a19.342 19.342 0 0 0-4.363 13.103c.212 4.742 2.173 9.247 5.517 12.678 3.344 3.43 7.845 5.555 12.666 5.977a20.27 20.27 0 0 0 13.546-3.681c.95-.679 1.83-1.434 2.635-2.254a18.707 18.707 0 0 1-4.477-6.389 12.226 12.226 0 0 1-2.657 2.589 12.52 12.52 0 0 1-8.367 2.274 12.439 12.439 0 0 1-7.823-3.692 11.986 11.986 0 0 1-3.408-7.83 11.947 11.947 0 0 1 2.695-8.094 12.388 12.388 0 0 1 7.464-4.35 12.547 12.547 0 0 1 8.537 1.548 12.257 12.257 0 0 1 3.559 3.175Z"/><path fill="#505050" d="M42.373 48.572a22.413 22.413 0 0 1-3.102 2.676 22.877 22.877 0 0 1-15.288 4.156c-5.442-.477-10.522-2.874-14.296-6.747C5.912 44.785 3.7 39.7 3.46 34.35a21.83 21.83 0 0 1 4.925-14.79c3.414-4.18 8.26-7.005 13.638-7.947a22.926 22.926 0 0 1 15.601 2.826 22.47 22.47 0 0 1 4.75 3.749 19.198 19.198 0 0 1 2.98-1.732 25.825 25.825 0 0 0-5.98-4.864 26.373 26.373 0 0 0-17.947-3.252C15.241 9.423 9.666 12.672 5.74 17.482 1.81 22.292-.201 28.338.074 34.494c.275 6.157 2.82 12.005 7.162 16.46 4.342 4.455 10.186 7.213 16.445 7.76 6.26.55 12.509-1.15 17.587-4.78a25.764 25.764 0 0 0 4.086-3.63 19.199 19.199 0 0 1-2.98-1.732Z"/><path fill="#D11414" d="M68.357 48.267h-7.664v-2.388c-2.388 2.02-5.148 3.001-8.271 3.001-4.594 0-8.335-1.652-11.213-5.028-2.51-2.943-3.8-6.435-3.8-10.424 0-4.35 1.413-8.03 4.29-11.037 2.82-3.002 6.252-4.473 10.297-4.473 3.368 0 6.251.98 8.703 3.002V18.53h7.658v29.736ZM53.035 25.276c-2.27 0-4.11.794-5.575 2.453-1.412 1.594-2.083 3.498-2.083 5.7 0 2.33.735 4.233 2.264 5.763 1.471 1.536 3.31 2.33 5.575 2.33 3.064 0 7.758-1.816 7.758-8.132 0-6.315-4.612-8.114-7.94-8.114Z"/><path fill="#D11414" fill-rule="evenodd" d="M123.927 37.572h-22.075a8.025 8.025 0 0 0 1.138 1.518c1.471 1.594 3.373 2.388 5.638 2.388 1.893 0 3.524-.558 4.902-1.664l6.441 4.425-.06.06c-3.006 3.002-6.8 4.537-11.277 4.537-4.477 0-8.277-1.535-11.277-4.537-1.984-1.939-3.321-4.181-4.004-6.727H78.965v10.663h-8.271V27.113c0-4.76 3.858-8.62 8.615-8.62h14.347v7.358H80.453c-.817 0-1.482.666-1.482 1.483v3.586h14.038c.484-3.27 1.943-6.085 4.36-8.503 3.006-3.001 6.8-4.537 11.277-4.537 4.477 0 8.277 1.536 11.277 4.537 3 3.002 4.535 6.623 4.535 10.973 0 1.478-.181 2.868-.531 4.181Zm-15.275-12.334c-2.271 0-4.168.794-5.639 2.388a7.696 7.696 0 0 0-1.879 3.294h15.036a7.938 7.938 0 0 0-1.822-3.294c-1.529-1.594-3.426-2.388-5.696-2.388Z" clip-rule="evenodd"/><path fill="#505050" d="M126.43 48.226V7.943h7.968v12.69c2.329-1.84 5.148-2.756 8.393-2.756 4.045 0 7.477 1.471 10.355 4.473 2.819 3.008 4.232 6.687 4.232 11.037 0 3.989-1.29 7.48-3.8 10.424-2.878 3.37-6.619 5.028-11.213 5.028-3.128 0-5.883-.98-8.271-3.002v2.389h-7.664Zm7.968-10.424c1.716 2.453 4.103 3.68 7.168 3.68 2.264 0 4.109-.795 5.574-2.331 1.535-1.536 2.265-3.434 2.265-5.764 0-2.207-.677-4.105-2.084-5.7-1.471-1.652-3.31-2.452-5.574-2.452-3.065 0-5.516 1.226-7.355 3.679v8.888h.006ZM166.571 48.226h-7.967V18.49h7.967v29.736ZM193.902 23.395l-14.399 18.086h15.625v6.745h-26.354v-4.905l14.219-18.086H170V18.49h23.902v4.905Z"/><path fill="#525252" d="M8.52 75.143h1.203V68.1h2.25v-.99H6.27v.99h2.25v7.042Zm5.93-3.375h1.43l1.608 3.375h1.328l-1.755-3.488c1.102-.247 1.586-.933 1.586-2.26 0-.777-.18-1.305-.574-1.7-.416-.415-.979-.584-1.968-.584h-2.858v8.032h1.204v-3.375Zm-.022-.956v-2.734h1.564c1.012 0 1.462.416 1.462 1.373 0 .933-.427 1.36-1.395 1.36h-1.63Zm10.363 2.654.563 1.677h1.305l-2.925-8.032h-1.159l-2.924 8.032h1.305l.562-1.677h3.273ZM24.5 72.5H21.81l1.35-3.926L24.5 72.5Zm2.873 2.644h1.17v-6.007l3.577 6.007h1.17V67.11h-1.17v6.007l-3.577-6.007h-1.17v8.032Zm10.661-3.375h1.508v.619c0 1.27-.551 1.89-1.688 1.89-1.226 0-1.687-.642-1.687-2.374v-1.53c0-1.721.461-2.374 1.676-2.374.889 0 1.418.428 1.53 1.25l1.114-.08c-.079-1.406-1.013-2.148-2.689-2.148-1.012 0-1.698.27-2.205.855-.46.528-.63 1.18-.63 2.418v1.676c0 1.148.135 1.767.518 2.284.495.686 1.237 1.001 2.396 1.001 1.035 0 1.766-.292 2.272-.9.428-.517.585-1.114.585-2.227v-1.294h-2.7v.934Zm7.687 3.375h1.204V68.1h2.25v-.99H43.47v.99h2.25v7.042Zm4.716 0h1.204v-3.566h3.082v3.566h1.204V67.11h-1.204v3.476H51.64V67.11h-1.204v8.032Zm7.174-3.038c0 1.058.157 1.676.55 2.183.507.663 1.238.967 2.352.967 1.023 0 1.698-.247 2.227-.832.484-.518.664-1.17.664-2.318v-1.957c0-1.057-.158-1.676-.551-2.182-.507-.664-1.238-.968-2.34-.968-1.035 0-1.71.248-2.239.833-.483.528-.663 1.17-.663 2.317v1.957Zm4.59-.112c0 1.609-.507 2.283-1.688 2.283-1.193 0-1.699-.674-1.699-2.283V70.26c0-1.609.506-2.284 1.699-2.284 1.181 0 1.687.675 1.687 2.284v1.732Zm-1.7-6.603.72.9h1.148l-1.474-1.598h-.787l-1.462 1.598h1.147l.709-.9Zm4.588 9.753h1.17v-6.007l3.578 6.007h1.17V67.11h-1.17v6.007l-3.578-6.007h-1.17v8.032Zm10.662-3.375h1.507v.619c0 1.27-.55 1.89-1.687 1.89-1.226 0-1.687-.642-1.687-2.374v-1.53c0-1.721.461-2.374 1.676-2.374.889 0 1.417.428 1.53 1.25l1.113-.08c-.078-1.406-1.012-2.148-2.688-2.148-1.013 0-1.699.27-2.205.855-.461.528-.63 1.18-.63 2.418v1.676c0 1.148.135 1.767.518 2.284.495.686 1.237 1.001 2.396 1.001 1.034 0 1.766-.292 2.272-.9.427-.517.585-1.114.585-2.227v-1.294h-2.7v.934Zm7.687 3.375h1.203V68.1h2.25v-.99h-5.703v.99h2.25v7.042Zm4.716 0h1.204V67.11h-1.204v8.032Zm3.08 0h1.17v-6.007l3.577 6.007h1.17V67.11h-1.17v6.007l-3.577-6.007h-1.17v8.032Zm9.764-4.545h-.9v.967h.9v3.578h2.643c2.025.022 3.026-1.013 2.97-3.083v-1.867c.056-2.07-.945-3.116-2.97-3.082h-2.643v3.487Zm1.204 0v-2.52h1.226c1.406-.034 1.968.596 1.98 2.216v1.654c-.012 1.631-.574 2.26-1.98 2.227h-1.226v-2.61h1.687v-.967h-1.687Zm6.106 4.545h1.203V67.11h-1.203v8.032Zm3.091 0h4.848v-.99h-3.656v-2.576h3.083v-.99h-3.083V68.1h3.623v-.99h-4.815v8.032Zm2.43-9.753.72.9h1.136l-1.462-1.598h-.788l-1.473 1.598h1.147l.72-.9Zm-.529 12.002h1.114V76.11h-1.114v1.282Zm4.332-2.25h1.17v-6.006l3.577 6.007h1.17V67.11h-1.17v6.007l-3.577-6.007h-1.17v8.032Zm11.203 0h1.204v-7.041h2.25v-.99h-5.703v.99h2.249v7.042Zm4.485-8.031v5.062c0 1.069.09 1.564.383 2.013.483.732 1.248 1.07 2.441 1.07 1.113 0 1.811-.282 2.317-.935.382-.472.495-.99.495-2.148v-2.621c.585-.304.787-.416 1.012-.574.63-.45.9-.9.9-1.496 0-.18-.011-.292-.079-.495h-1.012c.124.236.169.394.169.63 0 .529-.259.855-.99 1.192v-1.698h-1.204v5.062c0 .675-.056 1.057-.191 1.35-.259.528-.686.753-1.417.753-.698 0-1.092-.19-1.373-.652-.18-.315-.247-.675-.247-1.451V67.11h-1.204Zm3.386-.686c.011-.349.023-.405.203-.63.314-.383.359-.461.359-.72 0-.54-.393-.855-1.068-.855-.338 0-.563.045-.956.18l.191.641c.27-.124.416-.157.574-.157.202 0 .315.09.315.236 0 .09-.034.18-.102.281-.281.383-.303.45-.315.877v.147h.799Zm8.093 8.718h1.204V68.1h2.249v-.99h-5.703v.99h2.25v7.042Zm4.327-3.038c0 1.058.158 1.676.552 2.183.506.663 1.237.967 2.351.967 1.023 0 1.698-.247 2.227-.832.484-.518.664-1.17.664-2.318v-1.957c0-1.057-.158-1.676-.552-2.182-.506-.664-1.237-.968-2.339-.968-1.035 0-1.71.248-2.239.833-.484.528-.664 1.17-.664 2.317v1.957Zm4.59-.112c0 1.609-.506 2.283-1.687 2.283-1.193 0-1.699-.674-1.699-2.283V70.26c0-1.609.506-2.284 1.699-2.284 1.181 0 1.687.675 1.687 2.284v1.732Zm-1.35-6.794c.011-.237.011-.27.158-.405.247-.26.292-.338.292-.53 0-.404-.337-.651-.9-.651-.304 0-.517.044-.81.146l.169.517c.214-.101.337-.135.472-.135.169 0 .259.045.259.135a.35.35 0 0 1-.079.191c-.247.293-.258.338-.27.732h.709Zm-.36.776.698.607h1.091l-1.418-1.203h-.753l-1.406 1.203h1.079l.709-.607Zm4.599 9.168h1.17v-6.007l3.577 6.007h1.17V67.11h-1.17v6.007l-3.577-6.007h-1.17v8.032Zm10.662-3.375h1.507v.619c0 1.27-.551 1.89-1.687 1.89-1.226 0-1.687-.642-1.687-2.374v-1.53c0-1.721.461-2.374 1.676-2.374.888 0 1.417.428 1.529 1.25l1.114-.08c-.079-1.406-1.012-2.148-2.688-2.148-1.013 0-1.699.27-2.205.855-.461.528-.63 1.18-.63 2.418v1.676c0 1.148.135 1.767.517 2.284.495.686 1.238 1.001 2.396 1.001 1.035 0 1.766-.292 2.273-.9.427-.517.585-1.114.585-2.227v-1.294h-2.7v.934Zm6.247 3.375h1.203v-3.566h3.082v3.566h1.204V67.11h-1.204v3.476h-3.082V67.11h-1.203v8.032Zm13.281-8.156c.124.225.169.394.169.619 0 .416-.18.686-.686 1.023-.405-1.102-1.283-1.63-2.7-1.63-1.024 0-1.699.258-2.227.832-.484.528-.664 1.17-.664 2.317v1.957c0 1.058.157 1.676.551 2.183.506.663 1.238.967 2.351.967 1.024 0 1.699-.247 2.227-.832.484-.518.664-1.17.664-2.318v-1.957a4.22 4.22 0 0 0-.067-.844c.438-.258.596-.348.81-.528.427-.349.663-.822.663-1.316 0-.18-.022-.282-.079-.473h-1.012Zm-1.519 5.006c0 1.609-.506 2.283-1.687 2.283-1.192 0-1.698-.674-1.698-2.283V70.26c0-1.598.506-2.273 1.698-2.273 1.181 0 1.687.675 1.687 2.273v1.732Zm-2.373 5.4h1.114V76.11h-1.114v1.282Zm6.829-5.265h1.44c.967 0 1.541-.158 1.968-.54.484-.439.698-1.057.698-1.98 0-.855-.18-1.417-.596-1.856-.439-.461-1.013-.641-2.07-.641h-2.644v8.032h1.204v-3.015Zm-.023-.979v-3.07h1.463c1.023 0 1.473.46 1.473 1.54 0 1.058-.45 1.53-1.473 1.53h-1.463Z"/></g><defs><clipPath id="a"><path fill="#fff" d="M.021.366h201.958v84.987H.021z"/></clipPath></defs></svg>