<svg xmlns="http://www.w3.org/2000/svg" xml:space="preserve" id="Layer_1" x="0" y="0" style="enable-background:new 0 0 433 116.5" version="1.1" viewBox="0 0 433 116.5"><style>.st0{fill:#0079e0}.st1{fill:#d81f29}.st2{fill:#fff}</style><path d="M5 52.4H0v-9.3h5V10.4h46.3c9.5 0 17.2 4 23 12 5.3 7.3 7.9 16.1 7.9 26.4 0 9.8-2.5 18.1-7.6 24.7C69 81 61.3 84.7 51.3 84.7H5V52.4zm36.8 12.8c3.2 0 5.7-1.8 7.5-5.5 1.8-3.3 2.7-7.3 2.7-12 0-4.6-.9-8.4-2.6-11.4-1.8-3.5-4.4-5.2-7.6-5.2H33v12.2h8.4v9.3H33v12.6h8.8zM120.7 27.9c16.7 0 25.5 4.5 26.5 13.6v42.9h-26.3V62.5c-2.6 1.2-4.9 2-7 2.7-2.1.8-3.1 1.9-3.1 3.2 0 .8.4 1.6 1.2 2.2.8.6 1.8.9 2.9.9 1.2 0 2.4-.4 3.5-1.1l-3.6 14.9c-3 .5-5.8.8-8.4.8-6.8 0-12.2-1.6-16.2-4.9-3.6-3-5.6-6.9-5.9-11.7.4-7.7 3.7-13 10.1-15.8 2.8-1.3 9.9-2.7 21.4-4.3 3.3-.4 4.9-1.6 4.9-3.6 0-1.8-2.1-2.8-6.2-2.8-5.5 0-13.2 1.8-23.1 5.4L93.1 31c10.3-2 19.6-3.1 27.6-3.1zM124 0l5.6 8.5h-18.1L102.4 0H124zm6.2 13.9 4.9 9.1h-14l-2.1-4.2-2 4.2h-14l4.9-9.1h22.3zM176.5 28.4v28.9c0 3 .6 5.4 1.9 7.2 1.3 1.8 2.8 2.7 4.5 2.7 1.7 0 3.1-.9 4.2-2.6 1.1-1.7 1.7-4.2 1.7-7.4V28.4H215v56h-25.4v-5.2c-1.2 2.1-3.8 3.8-7.8 5.3-3.9 1.5-8.1 2.2-12.4 2.2-5.7 0-10.3-1.3-13.8-4-4.2-3.1-6.2-7.8-6.2-14.1V28.4h27.1zM255.4 14.4v14h11.3v20.1h-11.3v12.3c0 3.8 2 5.7 6 5.7 2.5 0 4.8-.7 7.2-2.2l-1.8 19.3c-5.7 1.6-11.5 2.4-17.3 2.4-14.2 0-21.3-5.2-21.3-15.6V48.5h-9.5V28.4h9.5v-7.9l27.2-6.1z" class="st0"/><path d="M295.3 28.4v28.9c0 3 .6 5.4 1.9 7.2 1.3 1.8 2.8 2.7 4.5 2.7 1.7 0 3.1-.9 4.2-2.6 1.1-1.7 1.7-4.2 1.7-7.4V28.4h26.2v8.4c2.9 0 4.6-2.7 5.2-8.2h8.2c.1.8.1 1.6.1 2.3 0 7.8-4.5 11.9-13.5 12.3v41.3h-25.4v-5.2c-1.2 2.1-3.8 3.8-7.8 5.3-3.9 1.5-8.1 2.2-12.4 2.2-5.7 0-10.3-1.3-13.8-4-4.2-3.1-6.2-7.8-6.2-14.1V28.4h27.1z" class="st0"/><path d="M291.2 88c-4.9 0-7.6-2.7-7.6-7.5 0-5.7 3.5-10.6 10.4-14.6-.2-.3-.3-.6-.3-1 0-.9.5-2 2.7-2.4 1.1-.2 2.3-.5 3.6-.9 2.9-1.1 3.8-1.2 4.4-1.2 1.4 0 3.3.5 4.8 2.5.5.1 1.1.1 1.7.1.6 0 1.2.3 1.6.9l.4.6c.5.8.4 1.9-.3 2.5-.5.5-1 .9-1.6 1.3v.8c0 4.7-2 9-5.9 12.8-4.3 3.9-9 6.1-13.9 6.1zm7.5-19c-1 1-1.8 2.2-2.5 3.6-1 1.8-1.4 3.5-1.4 5.1 0 1 .2 1.7.8 2.3.3.4.8.8 1.9.8 1 0 1.6-.3 2.1-1.1 1-1.6 1.5-3.5 1.5-5.6 0-1.3-.2-2.8-.7-4.5-.7-.3-1.2-.4-1.7-.6z" class="st1"/><path d="M304.3 62.2c1.5 0 2.7.8 3.7 2.4.9.1 1.8.2 2.7.2l.4.6c-.7.7-1.5 1.3-2.2 1.7v1.8c0 4.1-1.8 7.9-5.3 11.4-3.9 3.8-8.1 5.7-12.5 5.7-3.8 0-5.7-1.9-5.7-5.6 0-5.6 4-10.4 11.9-14.3-1.2-.7-1.8-1.2-1.8-1.4 0-.2.3-.3 1-.4 1.3-.2 2.6-.5 3.9-1 2.2-.8 3.4-1.1 3.9-1.1m-7 20.5c1.7 0 2.9-.7 3.8-2.1 1.2-1.9 1.8-4.1 1.8-6.7 0-1.7-.4-3.8-1.1-6.2-1.2-.2-2.4-.6-3.5-1.1-1.5 1.4-2.8 3-3.9 5-1.1 2.1-1.7 4.1-1.7 6 0 1.5.4 2.7 1.2 3.6.9 1 2 1.5 3.4 1.5m7-24.5c-.9 0-2.1.2-5.1 1.4-1.1.4-2.1.7-3.1.8-4.1.6-4.4 3.5-4.4 4.3v.1c-6.7 4.2-10.2 9.5-10.2 15.6 0 5.9 3.7 9.5 9.6 9.5 5.4 0 10.6-2.3 15.2-6.8 4.3-4.1 6.5-8.9 6.5-14 .3-.3.6-.6 1-.9 1.4-1.3 1.6-3.5.6-5.1l-.4-.6c-.7-1.1-1.9-1.7-3.2-1.8h-.7c-1.5-1.6-3.5-2.5-5.8-2.5zm-7 20.6h-.4c-.1-.1-.3-.3-.3-1.1 0-1.2.4-2.6 1.2-4.2.3-.5.6-1 .9-1.4.1.7.2 1.3.2 1.9 0 1.8-.4 3.3-1.2 4.6-.1.1-.1.2-.1.2 0-.1-.1 0-.3 0z" class="st2"/><path d="M327.3 88.1c-3.3 0-5.2-1.8-5.2-4.9 0-1.6.5-3.5 1.6-5.8l2.7-5.8c.3-.7.5-1.2.7-1.6-1.3.1-2.6 1.1-3.9 2.8-.7.9-1.4 2.2-2.3 3.9l-.1.2c0 .1-.1.1-.1.2-.8 1.5-1.4 3.1-1.9 4.5l-1 2.9c-.2.6-.7 1.1-1.4 1.3-2.3.6-4.6 1.2-6.8 1.9-.2.1-.4.1-.6.1-.5 0-1-.2-1.4-.6-.5-.5-.7-1.3-.4-2l7.2-20.9c.2-.6.7-1.1 1.4-1.3 2.3-.6 4.7-1.3 7.1-2 .2-.1.4-.1.6-.1.5 0 1.1.2 1.5.6.5.6.7 1.4.4 2.1l-.4.9c3.3-2.4 6.2-3.5 8.8-3.5 5.1 0 5.5 3.6 5.5 4.7 0 .9-.2 1.8-.7 2.8l-4.4 9.8c-.8 1.9-.9 2.4-.9 2.5.1.1.6.2 1.6.2.4 0 1.3-.1 3.8-.6h.4c.9 0 1.7.6 1.9 1.5l.2.6c.3 1-.3 2-1.3 2.4-8.5 2.8-11.3 3.2-12.6 3.2z" class="st1"/><path d="m323.6 62.7-3.6 8.8c5.6-5.8 10.2-8.7 13.9-8.7 2.4 0 3.6.9 3.6 2.8 0 .6-.2 1.3-.5 2l-4.4 9.8c-.7 1.5-1 2.6-1 3.3 0 1.5 1.2 2.2 3.6 2.2.8 0 2.2-.2 4.2-.6l.2.6c-6.3 2.2-10.3 3.3-12.2 3.3-2.2 0-3.3-1-3.3-3 0-1.3.5-2.9 1.4-5l2.7-5.8c.9-2 1.4-3.1 1.4-3.5 0-.6-.7-.9-2.1-.9-2.1 0-4 1.2-5.8 3.6-.7 1-1.6 2.4-2.5 4.3l-.1.3c-.8 1.6-1.5 3.2-2 4.8l-1 2.9c-2.4.6-4.6 1.3-6.9 1.9l7.2-20.9c2.4-.7 4.8-1.4 7.2-2.2m0-3.9c-.4 0-.8.1-1.2.2-2.3.7-4.7 1.4-7 2-1.3.3-2.3 1.3-2.7 2.5l-7.2 20.9c-.5 1.4-.1 3 .9 4 .8.8 1.8 1.2 2.9 1.2.4 0 .8-.1 1.1-.2 2.1-.6 4.4-1.3 6.7-1.9 1.3-.3 2.3-1.3 2.8-2.6l.3-.9c.4 3.7 3.1 6 7.2 6 1.6 0 4.6-.4 13.5-3.5 1.9-.7 3-2.7 2.5-4.7l-.2-.6c-.5-1.8-2.1-2.9-3.8-2.9-.3 0-.5 0-.8.1-1 .2-1.8.3-2.3.4l4.3-9.6c.6-1.2.8-2.5.8-3.6 0-3.1-2-6.7-7.5-6.7-2.1 0-4.4.6-6.8 1.9-.2-.3-.3-.5-.6-.8-.8-.8-1.8-1.2-2.9-1.2z" class="st2"/><path d="M345.5 87.9c-5.7 0-8.8-3-8.8-8.6 0-4.1 2-10.9 6.2-20.6 3.6-8.4 7.4-16.1 11.2-23 .3-.5.7-.8 1.2-.9 2.5-.7 5.2-1.5 7.7-2.4.2-.1.4-.1.7-.1.4 0 .8.1 1.1.3.5.3.9.9.9 1.5.1 1.8.2 3.7.2 5.8 0 12.5-1.6 21.5-4.8 27.4-2.3 4.2-5.6 8.3-9.8 12.3 1.4.4 3.3.6 6.1.6.7 0 2-.1 4.7-.4h.2c.9 0 1.7.6 1.9 1.6l.1.6c.2 1-.4 2-1.3 2.3-8 2.4-13.7 3.6-17.5 3.6zm11.4-37.3c-1.2 2.7-2.3 5.5-3.4 8.3-3.4 8.7-4.7 13.6-5.1 16.2 2.6-3 4.5-6.4 5.7-10.4 1.3-3.9 2.2-8.6 2.8-14.1z" class="st1"/><path d="M363.7 34.2c.1 1.7.2 3.6.2 5.7 0 12.1-1.5 20.9-4.6 26.4-2.6 4.7-6.5 9.3-11.7 13.8 1.9 1.3 5.2 2 9.7 2 1 0 2.7-.1 4.9-.4l.1.6c-7.7 2.4-13.3 3.6-16.9 3.6-4.6 0-6.9-2.2-6.9-6.6 0-3.8 2-10.4 6.1-19.8 3.6-8.4 7.3-16 11.1-22.8 2.7-.7 5.4-1.6 8-2.5m-4.1 5.7c-2.8 5.8-5.4 11.9-7.9 18.3-3.6 9.1-5.3 15.3-5.3 18.6 0 .8.2 1.7.7 2.5 4.3-3.7 7.3-8.4 9-14 2-6.5 3.1-15 3.5-25.4m4.1-9.7c-.5 0-.9.1-1.3.2-2.5.9-5.1 1.7-7.6 2.4-1 .3-1.9 1-2.4 1.9-3.9 6.9-7.7 14.7-11.3 23.2-4.3 10-6.4 17-6.4 21.4 0 6.6 4 10.5 10.8 10.5 4 0 9.9-1.2 18-3.8 1.9-.6 3.1-2.6 2.7-4.6l-.1-.6c-.4-1.8-2-3.1-3.9-3.1h-.5c-2.6.3-3.9.4-4.5.4h-1.8c3.1-3.2 5.5-6.5 7.3-9.9 3.4-6.2 5-15.5 5-28.3 0-2.1-.1-4.2-.2-6-.1-1.2-.7-2.4-1.8-3-.5-.5-1.2-.7-2-.7z" class="st2"/><path d="M364.9 87.1c-3.5 0-5.6-2-5.6-5.4 0-1.6.6-3.8 1.8-6.9l4.5-11.2c.2-.6.8-1 1.4-1.2 2.5-.6 4.9-1.3 7.3-2.2.2-.1.5-.1.7-.1.5 0 1.1.2 1.4.6.5.6.7 1.4.4 2.1l-5.1 11.7c-1.3 3-1.4 4.1-1.4 4.4v.1s.4.3 1.8.3c1.1 0 2.7-.2 4.8-.5h.3c.5 0 .9.2 1.3.5.4.4.7.9.7 1.5v.7c0 .8-.5 1.6-1.3 1.9-9.1 3.3-11.8 3.7-13 3.7zm8.9-29.1c-1.5 0-2.9-.5-3.9-1.6-1.1-1-1.6-2.4-1.6-3.9 0-1.7.6-3.2 1.9-4.3 1.2-1.1 2.6-1.7 4.3-1.8 1.7 0 3 .6 4 1.7s1.4 2.4 1.4 3.9c0 1.7-.6 3.1-1.8 4.3-1.2 1.1-2.6 1.7-4.3 1.7z" class="st1"/><path d="M374.5 48.3c1 0 1.9.4 2.5 1.1.6.7.9 1.6.9 2.6 0 1.1-.4 2.1-1.2 2.8-.8.8-1.8 1.1-2.9 1.1-1 0-1.9-.3-2.5-1-.7-.7-1-1.5-1-2.5 0-1.2.4-2.1 1.2-2.9.8-.7 1.8-1.1 3-1.2m.5 13.8-5.1 11.7c-1.1 2.5-1.6 4.2-1.6 5.2 0 1.6 1.3 2.4 3.8 2.4 1.2 0 2.9-.2 5.1-.5v.7c-6.6 2.4-10.7 3.6-12.3 3.6-2.4 0-3.6-1.1-3.6-3.4 0-1.3.6-3.3 1.7-6.1l4.5-11.2c2.5-.8 5-1.5 7.5-2.4m-.5-17.7s-.1 0 0 0c-2.2 0-4.2.8-5.7 2.3-1.6 1.5-2.5 3.5-2.5 5.8 0 2.1.8 3.9 2.2 5.3.7.7 1.4 1.2 2.2 1.5-1.4.4-2.8.8-4.2 1.1-1.3.3-2.3 1.2-2.8 2.4L359.2 74c-1.3 3.4-2 5.8-2 7.6 0 4.5 3 7.4 7.6 7.4 1.6 0 4.4-.5 13.7-3.9 1.6-.6 2.6-2.1 2.6-3.7v-.7c0-1.2-.5-2.3-1.4-3-.7-.6-1.6-.9-2.6-.9-.2 0-.4 0-.6.1-1.9.3-3.2.4-3.9.5.2-.5.5-1.2.8-2.1l5.1-11.6c.6-1.5.3-3.1-.7-4.3l-.3-.3c.7-.3 1.3-.8 1.9-1.3 1.6-1.5 2.4-3.5 2.4-5.7 0-2-.7-3.8-1.9-5.2-1.3-1.7-3.2-2.5-5.4-2.5z" class="st2"/><path d="M391.7 88.1c-3.3 0-5.2-1.8-5.2-4.9 0-1.6.5-3.5 1.6-5.8l2.7-5.8c.3-.7.5-1.2.7-1.6-1.3.1-2.6 1.1-3.9 2.8-.7.9-1.4 2.2-2.3 3.9l-.1.2c0 .1-.1.1-.1.2-.8 1.5-1.4 3.1-1.9 4.5l-1 2.9c-.2.6-.7 1.1-1.4 1.3-2.3.6-4.6 1.2-6.8 1.9-.2.1-.4.1-.6.1-.5 0-1-.2-1.4-.6-.5-.5-.7-1.3-.4-2l7.2-20.9c.2-.6.7-1.1 1.4-1.3 2.3-.6 4.7-1.3 7.1-2 .2-.1.4-.1.6-.1.5 0 1.1.2 1.5.6.5.6.7 1.4.4 2.1l-.4.9c3.3-2.4 6.2-3.5 8.8-3.5 5.1 0 5.5 3.6 5.5 4.7 0 .9-.2 1.8-.7 2.8l-4.4 9.8c-.8 1.9-.9 2.4-.9 2.5.1.1.6.2 1.6.2.4 0 1.3-.1 3.8-.6h.4c.9 0 1.7.6 1.9 1.5l.2.6c.3 1-.3 2-1.3 2.4-8.4 2.8-11.2 3.2-12.6 3.2z" class="st1"/><path d="m388 62.7-3.6 8.8c5.6-5.8 10.2-8.7 13.9-8.7 2.4 0 3.6.9 3.6 2.8 0 .6-.2 1.3-.5 2l-4.4 9.8c-.7 1.5-1 2.6-1 3.3 0 1.5 1.2 2.2 3.6 2.2.8 0 2.2-.2 4.2-.6l.2.6c-6.3 2.2-10.3 3.3-12.2 3.3-2.2 0-3.3-1-3.3-3 0-1.3.5-2.9 1.4-5l2.7-5.8c.9-2 1.4-3.1 1.4-3.5 0-.6-.7-.9-2.1-.9-2.1 0-4 1.2-5.8 3.6-.7 1-1.6 2.4-2.5 4.3l-.1.3c-.8 1.6-1.5 3.2-2 4.8l-1 2.9c-2.4.6-4.6 1.3-6.9 1.9l7.2-20.9c2.4-.7 4.8-1.4 7.2-2.2m0-3.9c-.4 0-.8.1-1.2.2-2.3.7-4.7 1.4-7 2-1.3.3-2.3 1.3-2.7 2.5l-7.2 20.9c-.5 1.4-.1 3 .9 4 .8.8 1.8 1.2 2.9 1.2.4 0 .8-.1 1.1-.2 2.1-.6 4.4-1.3 6.7-1.9 1.3-.3 2.3-1.3 2.8-2.6l.3-.9c.4 3.7 3.1 6 7.2 6 1.6 0 4.6-.4 13.5-3.5 1.9-.7 3-2.7 2.5-4.7l-.2-.6c-.5-1.8-2.1-2.9-3.8-2.9-.3 0-.5 0-.8.1-1 .2-1.8.3-2.3.4l4.3-9.6c.6-1.2.8-2.5.8-3.6 0-3.1-2-6.7-7.5-6.7-2.1 0-4.4.6-6.8 1.9-.2-.3-.3-.5-.6-.8-.7-.8-1.8-1.2-2.9-1.2z" class="st2"/><path d="M411 87.2c-8.8 0-10.1-5.2-10.1-8.4 0-4.9 2.5-9.3 7.6-13.1 4.7-3.5 9.4-5.3 14.2-5.3 3.9 0 6.2 2.1 6.2 5.6 0 3.5-2.3 6.8-7 9.9-2 1.4-4.2 2.5-6.6 3.5 1.5.6 3.5.9 5.7.9 1.8 0 3.6-.2 5.2-.6.2 0 .3-.1.5-.1.8 0 1.6.5 1.9 1.4l.2.6c.2.5.1 1.1-.1 1.5s-.7.8-1.2 1c-7 2.1-12.4 3.1-16.5 3.1zm6-20.6c-1.7 0-3.2 1.7-4.4 4.9-.5 1.3-.8 2.6-.8 3.7 1.2-.8 2.2-1.7 3.2-2.8 1.6-1.8 2.4-3.6 2.4-5.4v-.4c-.1.1-.3 0-.4 0z" class="st1"/><path d="M422.6 62.3c2.8 0 4.3 1.2 4.3 3.6 0 2.8-2 5.6-6.1 8.2-2.9 2-6.2 3.5-9.8 4.6 2.1 2.3 5.5 3.4 10 3.4 2 0 3.9-.2 5.7-.7l.2.6c-6.7 2.1-12 3.1-15.8 3.1-5.4 0-8.2-2.1-8.2-6.4 0-4.3 2.3-8.1 6.8-11.6 4.3-3.1 8.6-4.8 12.9-4.8m-12 15.9c2.3-1.1 4.3-2.6 5.9-4.5 1.9-2.2 2.9-4.4 2.9-6.7 0-1.6-.8-2.4-2.4-2.4-2.6 0-4.7 2.1-6.2 6.2-.6 1.6-.9 3-.9 4.4-.1 1.1.2 2.1.7 3m12-19.8c-5.2 0-10.3 1.9-15.3 5.7-5.5 4.2-8.3 9.2-8.3 14.7 0 2.4.9 10.4 12.1 10.4 4.3 0 9.9-1.1 17-3.3 1-.3 1.9-1 2.3-2 .5-.9.6-2 .2-3l-.2-.6c-.5-1.6-2.1-2.7-3.7-2.7-.3 0-.7 0-1 .1-1.2.3-2.6.5-4 .6.4-.3.8-.5 1.3-.8 5.2-3.4 7.8-7.3 7.8-11.5 0-4.7-3.2-7.6-8.2-7.6z" class="st2"/><path d="M4.4 104.3h40.4v1.5H4.4zM385.5 104.3h41.8v1.5h-41.8zM52.5 112.8V97.3h4.6c1.4 0 2.6.3 3.6.9 1.1.6 1.9 1.5 2.5 2.6.6 1.1.9 2.4.9 3.8v.8c0 1.5-.3 2.8-.9 3.9-.6 1.1-1.4 2-2.5 2.6-1.1.6-2.3.9-3.7.9h-4.5zm2.7-13.3v11.1H57c1.4 0 2.5-.4 3.2-1.3.8-.9 1.1-2.1 1.2-3.8v-.9c0-1.7-.4-3-1.1-3.8-.7-.9-1.8-1.3-3.2-1.3h-1.9zM69.6 112.8h-2.7V97.3h2.7v15.5zM81.9 105.9h-6.3v4.8H83v2.1H72.9V97.3h10v2.2h-7.3v4.3h6.3v2.1zm0-9.3h-2L78 95.1l-2 1.5h-2l3.2-2.5h1.6l3.1 2.5zm-1.2-4.9c0 .4-.2.8-.5 1.2-.3.3-.7.5-1.1.5-.3 0-.7-.1-1.2-.3s-.8-.4-1-.4c-.2 0-.4.1-.5.2-.1.2-.2.3-.2.5l-1-.3c0-.5.2-.9.5-1.2.3-.3.7-.5 1.1-.5.3 0 .7.1 1.1.3s.8.4 1.1.4c.2 0 .4-.1.5-.2s.2-.3.2-.5l1 .3zM97.4 112.8h-2.7l-6.9-11v11h-2.7V97.3h2.7l6.9 11v-11h2.7v15.5zM106.3 112.8v-6.9h-2V104h2v-6.7h4.6c1.4 0 2.6.3 3.6.9s1.9 1.5 2.5 2.6c.6 1.1.9 2.4.9 3.8v.8c0 1.5-.3 2.8-.9 3.9-.6 1.1-1.4 2-2.5 2.6-1.1.6-2.3.9-3.7.9h-4.5zm5.1-7H109v4.8h1.7c1.4 0 2.5-.4 3.3-1.3.8-.9 1.1-2.2 1.1-3.9v-.7c0-1.7-.4-3-1.1-3.8-.7-.9-1.8-1.3-3.2-1.3H109v4.6h2.4v1.6zM128.9 109.2h-6l-1.3 3.6h-2.8l5.8-15.4h2.4l5.8 15.4H130l-1.1-3.6zm-1.6-12.8h-2.1l-2.9-3.2h2.9l2.1 3.2zm-3.6 10.6h4.5l-2.2-6.4-2.3 6.4zM147 112.8h-2.7l-6.9-11v11h-2.7V97.3h2.7l6.9 11v-11h2.7v15.5zM155.9 112.8v-6.9h-2V104h2v-6.7h4.6c1.4 0 2.6.3 3.6.9s1.9 1.5 2.5 2.6c.6 1.1.9 2.4.9 3.8v.8c0 1.5-.3 2.8-.9 3.9-.6 1.1-1.4 2-2.5 2.6-1.1.6-2.3.9-3.7.9h-4.5zm5.1-7h-2.4v4.8h1.7c1.4 0 2.5-.4 3.3-1.3.8-.9 1.1-2.2 1.1-3.9v-.7c0-1.7-.4-3-1.1-3.8-.7-.9-1.8-1.3-3.2-1.3h-1.9v4.6h2.4v1.6zM172.4 94.7h-1.7l-2.3-2.8h2.3l1.7 2.8zm6.1 14.5h-6l-1.3 3.6h-2.8l5.8-15.4h2.4l5.8 15.4h-2.8l-1.1-3.6zm1-12.8h-2.3l-1.7-1.5-1.7 1.5h-2.2l3.1-2.6h1.7l3.1 2.6zm-6.2 10.6h4.5l-2.2-6.4-2.3 6.4zM195.5 97.3v10.3c0 1.6-.5 2.9-1.6 3.9s-2.4 1.4-4.2 1.4c-1.8 0-3.2-.5-4.2-1.4s-1.6-2.3-1.6-3.9V97.3h2.7v10.3c0 1 .3 1.8.8 2.4.5.5 1.3.8 2.3.8 2.1 0 3.1-1.1 3.1-3.3V97.3h2.7zM214.3 99.5h-4.8v13.3h-2.7V99.5H202v-2.2h12.3v2.2zM227.6 97.3v2.3c.8-.1 1.3-.3 1.7-.8.3-.5.5-1.3.5-2.4h1.9c0 1.6-.3 2.8-1 3.6-.7.8-1.7 1.2-3.1 1.2v6.4c0 1.6-.5 2.9-1.6 3.9-1 1-2.4 1.4-4.2 1.4-1.8 0-3.2-.5-4.2-1.4-1-.9-1.6-2.3-1.6-3.9V97.3h2.7v10.3c0 1 .3 1.8.8 2.4s1.3.8 2.3.8c2.1 0 3.1-1.1 3.1-3.3V97.3h2.7zM241.8 107.2h-5.6v-2.1h5.6v2.1zM254 106.1l-1.8 1.9v4.8h-2.7V97.3h2.7v7.2l1.5-1.8 4.5-5.4h3.2l-5.7 6.8 6.1 8.6h-3.2l-4.6-6.6zM266.1 112.8h-2.7V97.3h2.7v15.5zM281.7 112.8H279l-6.9-11v11h-2.7V97.3h2.7l6.9 11v-11h2.7v15.5zM297.1 112.8h-2.7v-6.9h-6.9v6.9h-2.7V97.3h2.7v6.4h6.9v-6.4h2.7v15.5zM305.7 112.8V97.3h4.6c1.4 0 2.6.3 3.6.9s1.9 1.5 2.5 2.6c.6 1.1.9 2.4.9 3.8v.8c0 1.5-.3 2.8-.9 3.9-.6 1.1-1.4 2-2.5 2.6-1.1.6-2.3.9-3.7.9h-4.5zm2.7-13.3v11.1h1.8c1.4 0 2.5-.4 3.2-1.3.8-.9 1.1-2.1 1.2-3.8v-.9c0-1.7-.4-3-1.1-3.8-.7-.9-1.8-1.3-3.2-1.3h-1.9zM332.2 105.4c0 1.5-.3 2.8-.8 4s-1.3 2-2.2 2.6c-1 .6-2.1.9-3.4.9-1.3 0-2.4-.3-3.3-.9-1-.6-1.7-1.5-2.3-2.6-.5-1.1-.8-2.4-.8-3.9v-.9c0-1.5.3-2.8.8-4 .5-1.2 1.3-2 2.3-2.6 1-.6 2.1-.9 3.3-.9s2.4.3 3.3.9c1 .6 1.7 1.5 2.3 2.6.5 1.1.8 2.5.8 4v.8zm-2.7-.8c0-1.7-.3-3-1-3.9-.6-.9-1.6-1.4-2.8-1.4-1.2 0-2.1.5-2.7 1.4-.7.9-1 2.2-1 3.9v.9c0 1.7.3 3 1 3.9s1.6 1.4 2.8 1.4c1.2 0 2.1-.5 2.7-1.4.6-.9 1-2.2 1-4v-.8zM343.3 109.2h-6l-1.3 3.6h-2.8l5.8-15.4h2.4l5.8 15.4h-2.8l-1.1-3.6zm-5.2-2.2h4.5l-2.2-6.4-2.3 6.4zM361.4 112.8h-2.7l-6.9-11v11h-2.7V97.3h2.7l6.9 11v-11h2.7v15.5zM376.8 112.8h-2.7v-6.9h-6.9v6.9h-2.7V97.3h2.7v6.4h6.9v-6.4h2.7v15.5z" class="st1"/></svg>