<svg xmlns="http://www.w3.org/2000/svg" width="253" height="91" fill="none"><path fill="#333" d="M98.208 66.986h.992v-5.808h1.856v-.816h-4.704v.816h1.856v5.808Zm4.891-2.783h1.178l1.327 2.783h1.095l-1.448-2.876c.91-.204 1.309-.77 1.309-1.865 0-.64-.149-1.076-.474-1.4-.343-.344-.807-.483-1.623-.483h-2.356v6.624h.992v-2.783Zm-.018-.789V61.16h1.289c.835 0 1.206.343 1.206 1.132 0 .77-.352 1.122-1.15 1.122h-1.345Zm8.546 2.19.464 1.382h1.076l-2.412-6.624h-.956l-2.412 6.624h1.077l.463-1.382h2.7Zm-.241-.798h-2.217l1.113-3.238 1.104 3.238Zm2.369 2.18h.965v-4.954l2.95 4.954h.965v-6.624h-.965v4.954l-2.95-4.954h-.965v6.624Zm8.793-2.783h1.243v.51c0 1.048-.454 1.559-1.391 1.559-1.012 0-1.392-.53-1.392-1.958v-1.262c0-1.419.38-1.957 1.382-1.957.733 0 1.169.352 1.262 1.03l.918-.065c-.065-1.16-.835-1.772-2.217-1.772-.835 0-1.401.222-1.818.705-.381.436-.52.974-.52 1.994v1.383c0 .946.112 1.456.427 1.883.408.566 1.021.826 1.976.826.854 0 1.457-.242 1.874-.743.353-.426.482-.918.482-1.836v-1.067h-2.226v.77Zm6.339 2.783h.993v-5.808h1.855v-.816h-4.703v.816h1.855v5.808Zm3.89 0h.992v-2.941h2.542v2.94h.993v-6.623h-.993v2.867h-2.542v-2.867h-.992v6.624Zm5.916-2.505c0 .872.13 1.382.454 1.8.418.547 1.021.798 1.939.798.844 0 1.401-.204 1.837-.687.399-.427.547-.965.547-1.911v-1.614c0-.872-.13-1.383-.454-1.8-.418-.547-1.021-.798-1.93-.798-.853 0-1.41.204-1.846.687-.399.436-.547.965-.547 1.91v1.615Zm3.785-.093c0 1.327-.418 1.883-1.392 1.883-.983 0-1.401-.556-1.401-1.883V62.96c0-1.327.418-1.884 1.401-1.884.974 0 1.392.557 1.392 1.884v1.428Zm-1.401-5.445.594.742h.946l-1.215-1.318h-.65l-1.206 1.318h.946l.585-.742Zm3.784 8.043h.964v-4.954l2.95 4.954h.965v-6.624h-.965v4.954l-2.95-4.954h-.964v6.624Zm8.792-2.783h1.243v.51c0 1.048-.454 1.559-1.391 1.559-1.011 0-1.392-.53-1.392-1.958v-1.262c0-1.419.381-1.957 1.383-1.957.733 0 1.169.352 1.261 1.03l.919-.065c-.065-1.16-.835-1.772-2.217-1.772-.835 0-1.401.222-1.819.705-.38.436-.519.974-.519 1.994v1.383c0 .946.111 1.456.426 1.883.409.566 1.021.826 1.976.826.854 0 1.457-.242 1.874-.743.353-.426.483-.918.483-1.836v-1.067h-2.227v.77Zm6.34 2.783h.992v-5.808h1.856v-.816h-4.704v.816h1.856v5.808Zm3.889 0h.993v-6.624h-.993v6.624Zm2.54 0h.965v-4.954l2.95 4.954h.965v-6.624h-.965v4.954l-2.95-4.954h-.965v6.624Zm8.053-3.748h-.742v.798h.742v2.95h2.18c1.67.018 2.495-.835 2.449-2.542v-1.54c.046-1.707-.779-2.57-2.449-2.542h-2.18v2.876Zm.992 0V61.16h1.012c1.159-.028 1.623.492 1.632 1.827v1.364c-.009 1.345-.473 1.865-1.632 1.837h-1.012v-2.152h1.392v-.798h-1.392Zm5.036 3.748h.993v-6.624h-.993v6.624Zm2.55 0h3.998v-.817h-3.015v-2.124h2.542v-.816h-2.542v-2.05h2.987v-.817h-3.97v6.624Zm2.003-8.043.594.742h.937l-1.206-1.318h-.649l-1.216 1.318h.947l.593-.742Zm-.436 9.898h.919v-1.057h-.919v1.057Zm3.573-1.855h.965v-4.954l2.95 4.954h.965v-6.624h-.965v4.954l-2.95-4.954h-.965v6.624Zm9.239 0h.993v-5.808h1.856v-.816h-4.704v.816h1.855v5.808Zm3.699-6.624v4.175c0 .881.074 1.29.316 1.66.398.603 1.029.882 2.013.882.918 0 1.493-.232 1.911-.77.315-.39.408-.817.408-1.772v-2.162c.482-.25.649-.343.835-.473.519-.371.742-.742.742-1.234 0-.148-.009-.241-.065-.408h-.835a.996.996 0 0 1 .139.52c0 .435-.213.704-.816.983v-1.401h-.993v4.175c0 .556-.046.872-.157 1.113-.214.436-.566.621-1.169.621-.576 0-.9-.157-1.132-.538-.149-.26-.204-.556-.204-1.196v-4.175h-.993Zm2.793-.566c.009-.288.018-.334.167-.52.259-.315.296-.38.296-.593 0-.445-.324-.705-.881-.705-.278 0-.464.037-.789.148l.158.529c.223-.102.343-.13.473-.13.167 0 .26.074.26.195a.422.422 0 0 1-.083.232c-.232.315-.251.371-.26.724v.12h.659Zm6.674 7.19h.993v-5.808h1.855v-.816h-4.703v.816h1.855v5.808Zm3.569-2.505c0 .872.13 1.382.454 1.8.418.547 1.021.798 1.939.798.844 0 1.401-.204 1.837-.687.399-.427.547-.965.547-1.911v-1.614c0-.872-.129-1.383-.454-1.8-.418-.547-1.021-.798-1.93-.798-.853 0-1.41.204-1.846.687-.399.436-.547.965-.547 1.91v1.615Zm3.785-.093c0 1.327-.418 1.883-1.392 1.883-.983 0-1.401-.556-1.401-1.883V62.96c0-1.327.418-1.884 1.401-1.884.974 0 1.392.557 1.392 1.884v1.428Zm-1.114-5.603c.01-.195.01-.223.13-.334.204-.213.242-.278.242-.436 0-.334-.279-.538-.743-.538-.25 0-.426.037-.668.12l.14.427c.176-.083.278-.111.389-.111.139 0 .214.037.214.111a.289.289 0 0 1-.065.158c-.204.241-.214.278-.223.603h.584Zm-.296.64.575.501h.9l-1.169-.993h-.622l-1.159.993h.89l.585-.501Zm3.793 7.56h.964v-4.953l2.95 4.954h.965v-6.624h-.965v4.954l-2.95-4.954h-.964v6.624Zm8.792-2.782h1.243v.51c0 1.048-.454 1.559-1.391 1.559-1.011 0-1.392-.53-1.392-1.958v-1.262c0-1.419.381-1.957 1.383-1.957.733 0 1.169.352 1.261 1.03l.919-.065c-.065-1.16-.835-1.772-2.217-1.772-.835 0-1.401.222-1.819.705-.38.436-.519.974-.519 1.994v1.383c0 .946.111 1.456.426 1.883.409.566 1.021.826 1.976.826.854 0 1.457-.242 1.874-.743.353-.426.483-.918.483-1.836v-1.067h-2.227v.77Zm5.152 2.783h.993v-2.941h2.542v2.94h.992v-6.623h-.992v2.867h-2.542v-2.867h-.993v6.624Zm10.953-6.726c.103.186.14.325.14.51 0 .343-.149.566-.566.844-.334-.909-1.058-1.345-2.227-1.345-.844 0-1.401.214-1.837.687-.399.436-.547.965-.547 1.91v1.615c0 .872.13 1.382.455 1.8.417.547 1.02.798 1.939.798.844 0 1.4-.204 1.836-.687.399-.427.548-.965.548-1.911v-1.614c0-.27-.01-.436-.056-.696.362-.213.492-.288.668-.436.353-.288.547-.677.547-1.085 0-.149-.018-.232-.065-.39h-.835Zm-1.252 4.128c0 1.327-.417 1.883-1.391 1.883-.984 0-1.401-.556-1.401-1.883V62.96c0-1.318.417-1.874 1.401-1.874.974 0 1.391.556 1.391 1.874v1.428Zm-1.957 4.453h.918v-1.057h-.918v1.057Zm5.632-4.341h1.187c.798 0 1.271-.13 1.623-.446.399-.361.576-.872.576-1.633 0-.704-.149-1.168-.492-1.53-.362-.38-.835-.529-1.707-.529h-2.18v6.624h.993V64.5Zm-.019-.807V61.16h1.206c.844 0 1.215.38 1.215 1.27 0 .873-.371 1.263-1.215 1.263h-1.206Z" opacity=".7"/><path fill="#F36E22" d="M6.102 27.418A41.56 41.56 0 0 0 .01 48.26a41.57 41.57 0 0 0 5.244 21.073 41.36 41.36 0 0 0 15.14 15.514 41.143 41.143 0 0 0 20.878 5.693c7.34 0 14.546-1.965 20.877-5.693A41.36 41.36 0 0 0 77.29 69.333a41.57 41.57 0 0 0 5.244-21.073 41.56 41.56 0 0 0-6.094-20.842H6.102Z"/><path fill="#C32022" d="M62.326 27.418H20.252a31.666 31.666 0 0 0-9.594 16.123 31.761 31.761 0 0 0 1.199 18.743 31.62 31.62 0 0 0 11.569 14.758 31.425 31.425 0 0 0 17.863 5.575 31.425 31.425 0 0 0 17.863-5.575A31.62 31.62 0 0 0 70.72 62.284 31.761 31.761 0 0 0 71.92 43.54a31.666 31.666 0 0 0-9.594-16.123Zm-32.427 40.86h-7.996V40.552l4.525-8.628h3.449l.022 36.354Zm34.91-6.585h-4.642v6.585h-8.004v-6.585H33.79v-5.816L46.142 31.96h8.844L43.34 54.22h8.844V44.94l2.609-4.662h5.373V54.22h4.642v7.474Z"/><path fill="#9F101B" d="M41.308 78.194a31.414 31.414 0 0 1-21.484-8.51 31.662 31.662 0 0 1-9.919-20.94c-.052.74-.081 1.436-.081 2.168a31.68 31.68 0 0 0 9.39 22.045 31.426 31.426 0 0 0 22.097 9.09 31.426 31.426 0 0 0 22.097-9.09 31.68 31.68 0 0 0 9.39-22.045 18.169 18.169 0 0 0-.08-2.116 31.662 31.662 0 0 1-9.939 20.91 31.415 31.415 0 0 1-21.471 8.488Z"/><path fill="#9F101B" d="M52.164 68.279h7.981v-6.586h4.643V54.22h-4.643V40.279h-5.372l-2.61 4.661v9.28H43.32L55 31.962h-8.844L33.791 55.877v5.816h18.373v6.586ZM29.885 31.962h-3.457l-4.525 8.59V68.28h7.982V31.962Z"/><path fill="#FFB420" d="M76.44 27.418h-7.901a36.119 36.119 0 0 1 8.324 18.476 36.182 36.182 0 0 1-2.925 20.064 36.01 36.01 0 0 1-13.25 15.305 35.8 35.8 0 0 1-19.38 5.703 35.8 35.8 0 0 1-19.381-5.703 36.009 36.009 0 0 1-13.25-15.305 36.182 36.182 0 0 1-2.925-20.064 36.119 36.119 0 0 1 8.324-18.476H6.102A41.56 41.56 0 0 0 .01 48.26a41.57 41.57 0 0 0 5.244 21.073 41.36 41.36 0 0 0 15.14 15.514 41.143 41.143 0 0 0 20.878 5.693c7.34 0 14.546-1.965 20.877-5.693A41.36 41.36 0 0 0 77.29 69.333a41.57 41.57 0 0 0 5.244-21.073 41.56 41.56 0 0 0-6.094-20.842Z"/><path fill="#C32022" d="M6.839.499h15.388v22.45H6.84c-.977 0-1.915-.39-2.606-1.083a3.708 3.708 0 0 1-1.079-2.616V4.199c0-.981.388-1.922 1.08-2.616A3.677 3.677 0 0 1 6.838.499Z"/><path fill="#F36E22" d="M41.308.499h-19.08v22.45h19.08V.5Z"/><path fill="#FFB420" d="M60.388.499h-19.08v22.45h19.08V.5Z"/><path fill="#FFD65C" d="M60.432.499H75.82c.978 0 1.915.39 2.606 1.084a3.708 3.708 0 0 1 1.08 2.616v15.043c0 .981-.39 1.922-1.08 2.616a3.678 3.678 0 0 1-2.606 1.084H60.432V.499Z"/><path fill="#fff" d="m16.147 18.998-4.562-5.735h-1.23v5.735h-3.45V4.465h3.45v5.653h1.267l4.142-5.66h3.95v.385l-5.291 6.704 5.291 6.504v.947h-3.567Zm21.166 0H26.258V4.465h11.055v3.123h-7.635v2.53h7.17v3.116h-7.17v2.664h7.635v3.1Zm20.23 0h-3.338l-6.633-8.88v8.88h-3.413V4.465h3.295l6.633 8.88v-8.88h3.397v14.533h.06Zm18.889 0H72.96V13.3h-6.08v5.698h-3.45V4.465h3.45v5.587h6.08V4.465h3.449l.022 14.533ZM29.877 68.279h-7.974V40.553l4.525-8.628h3.45v36.354Zm34.91-6.586h-4.642v6.586h-7.982v-6.586H33.791v-5.816l12.351-23.915h8.844L43.342 54.22h8.843v-9.28l2.61-4.661h5.372v13.94h4.643l-.022 7.474Z"/><path fill="#333" d="m104.283 35.987 5.234-6.618h6.149l-7.346 8.754 7.393 9.858h-6.149l-5.351-7.534h-1.69v7.533h-5.022V23.97h5.022v12.017h1.76Z"/><path fill="#333" d="M134.042 38.613c0 .587-.046 1.267-.093 1.69h-13.19c.539 2.699 2.417 3.849 4.787 3.849 1.62 0 3.357-.657 4.694-1.784l2.934 3.215c-2.112 1.948-4.811 2.817-7.933 2.817-5.703 0-9.646-3.873-9.646-9.74 0-5.868 3.849-9.857 9.412-9.857 5.351.023 9.012 4.013 9.035 9.81Zm-13.26-1.737h8.238c-.469-2.37-1.901-3.732-4.06-3.732-2.347 0-3.732 1.432-4.178 3.732ZM154.388 36.078V47.93h-5.023V37.697c0-2.699-1.338-4.177-3.638-4.177-2.159 0-3.943 1.408-3.943 4.201v10.186h-5.022V29.319h4.881v2.183c1.315-1.972 3.357-2.7 5.469-2.7 4.271.024 7.276 2.958 7.276 7.276ZM168.238 28.826c4.225 0 7.229 2.934 7.229 7.252V47.93h-5.023V37.699c0-2.7-1.337-4.178-3.637-4.178-2.16 0-3.943 1.408-3.943 4.201v10.186h-5.023V23.921h5.023v7.416c1.361-1.854 3.332-2.51 5.374-2.51ZM214.616 45.278c0 1.69-1.456 3.145-3.122 3.145s-3.145-1.455-3.145-3.145c0-1.666 1.479-3.121 3.145-3.121s3.122 1.431 3.122 3.121ZM219.752 48.095l-7.346-18.612h5.445l4.811 13.331 4.859-13.33h5.28l-7.275 18.61h-5.774ZM252 36.242v11.852h-5.023V37.862c0-2.7-1.337-4.178-3.638-4.178-2.159 0-3.942 1.408-3.942 4.201v10.186h-5.023V29.483h4.882v2.183c1.314-1.972 3.356-2.7 5.468-2.7 4.248.024 7.276 2.958 7.276 7.276ZM181.757 23.92l-2.933 5.587v18.588h5.186v-24.15l-2.253-.024ZM203.655 29.319h-3.497l-1.69 3.027v5.985h-5.703l7.557-14.387h-5.75l-8.027 15.467v3.778h11.923v4.905h5.187V43.19h3.027v-4.858h-3.027V29.32Z"/></svg>