<svg width="101" height="100" viewBox="0 0 101 100" fill="none" xmlns="http://www.w3.org/2000/svg">
<path d="M54.2887 88.3022C63.128 88.3022 70.2937 86.1928 70.2937 83.5907C70.2937 80.9886 63.128 78.8792 54.2887 78.8792C45.4494 78.8792 38.2837 80.9886 38.2837 83.5907C38.2837 86.1928 45.4494 88.3022 54.2887 88.3022Z" fill="#28739D"/>
<path d="M40.1507 63.5906C37.6846 67.0232 32.4648 65.9776 27.5533 61.1411C24.0332 57.6752 20.4548 52.243 21.7837 50.3934C23.1126 48.5437 29.4029 50.2017 33.8104 52.4304C39.9633 55.5423 42.6169 60.158 40.1507 63.5864V63.5906Z" fill="#D5E9F2"/>
<path d="M38.6925 63.3865C33.0562 57.1044 22.2001 46.0026 21.5586 52.0222C21.9877 54.4841 24.7871 58.4167 27.5532 61.1411C31.8398 65.361 36.3597 66.6941 39.08 64.682C38.98 64.2529 39.0008 63.7322 38.6925 63.3865Z" fill="#A8D7E9"/>
<path d="M37.1842 65.3071C36.0928 73.8886 42.9414 79.8082 52.1686 80.983C61.3959 82.1578 69.5108 78.1461 70.6023 69.5604C71.6937 60.9788 65.3534 51.0725 56.122 49.8978C46.8947 48.723 38.2715 56.7214 37.1801 65.3029L37.1842 65.3071Z" fill="#D5E9F2"/>
<path d="M68.2697 58.5877C68.7654 60.5039 68.9237 62.4785 68.6821 64.3823C67.6781 72.2765 60.2172 75.9674 51.7273 74.8843C43.958 73.897 38.0259 69.2479 37.8468 62.4119C37.5385 63.3617 37.3136 64.3281 37.1886 65.3029C36.0972 73.8845 42.9458 79.8041 52.173 80.9788C61.4002 82.1536 69.5152 78.1419 70.6067 69.5562C71.0732 65.8778 70.1734 61.9536 68.2655 58.5835L68.2697 58.5877Z" fill="#A8D7E9"/>
<path d="M40.0259 57.9626C44.125 61.6535 49.753 63.3324 55.8018 62.77C60.4675 62.3367 64.6416 60.6413 67.8493 57.8793C65.2665 53.726 61.1215 50.535 56.1309 49.8976C49.6739 49.077 43.521 52.7429 40.03 57.9626H40.0259Z" fill="#82C9E0"/>
<path d="M33.464 39.4915C34.6637 52.4888 44.47 59.1666 55.7094 58.1251C66.9487 57.0878 75.3636 48.7271 74.1597 35.7298C72.9558 22.7325 62.5913 10.0184 51.3561 11.0599C40.1168 12.0972 32.2601 26.4942 33.464 39.4915Z" fill="#D5E9F2"/>
<path d="M74.156 35.7299C73.8019 31.8932 72.648 28.0773 70.9067 24.6363C71.9315 27.1941 72.6147 29.9061 72.8646 32.6305C73.9894 44.8155 66.1035 52.6513 55.5682 53.6261C45.0329 54.6009 35.8431 48.3397 34.7142 36.1589C34.2851 31.5182 35.0891 26.6901 36.8304 22.4326C34.2143 27.5066 32.9188 33.6428 33.4603 39.4957C34.6601 52.493 44.4664 59.1708 55.7057 58.1294C66.945 57.0921 75.3599 48.7313 74.156 35.734V35.7299Z" fill="#A8D7E9"/>
<path d="M36.251 41.0912C36.251 49.3394 43.8869 56.0256 53.3099 56.0256C62.733 56.0256 70.3689 49.3394 70.3689 41.0912C70.3689 32.8429 62.733 29.1853 53.3099 29.1853C43.8869 29.1853 36.251 32.8429 36.251 41.0912Z" fill="#38446A"/>
<path d="M53.9912 51.372C53.9912 51.9219 54.437 52.3718 54.991 52.3718C55.5451 52.3718 55.9908 51.926 55.9908 51.372C55.9908 50.8179 55.5451 50.3722 54.991 50.3722C54.437 50.3722 53.9912 50.8179 53.9912 51.372Z" fill="#30A5C6"/>
<path d="M51.9956 51.372C51.9956 51.9219 52.4413 52.3718 52.9954 52.3718C53.5494 52.3718 53.9952 51.926 53.9952 51.372C53.9952 50.8179 53.5494 50.3722 52.9954 50.3722C52.4413 50.3722 51.9956 50.8179 51.9956 51.372Z" fill="#30A5C6"/>
<path d="M56.9817 50.3764C57.5339 50.3764 57.9815 49.9288 57.9815 49.3766C57.9815 48.8245 57.5339 48.3768 56.9817 48.3768C56.4296 48.3768 55.9819 48.8245 55.9819 49.3766C55.9819 49.9288 56.4296 50.3764 56.9817 50.3764Z" fill="#30A5C6"/>
<path d="M50.9954 50.3764C51.5476 50.3764 51.9952 49.9288 51.9952 49.3766C51.9952 48.8245 51.5476 48.3768 50.9954 48.3768C50.4432 48.3768 49.9956 48.8245 49.9956 49.3766C49.9956 49.9288 50.4432 50.3764 50.9954 50.3764Z" fill="#30A5C6"/>
<path d="M55.9858 47.3813C55.9858 47.9311 56.4316 48.3811 56.9856 48.3811C57.5397 48.3811 57.9854 47.9353 57.9854 47.3813C57.9854 46.8272 57.5397 46.3815 56.9856 46.3815C56.4316 46.3815 55.9858 46.8272 55.9858 47.3813Z" fill="#30A5C6"/>
<path d="M53.9902 47.3813C53.9902 47.9311 54.436 48.3811 54.99 48.3811C55.5441 48.3811 55.9898 47.9353 55.9898 47.3813C55.9898 46.8272 55.5441 46.3815 54.99 46.3815C54.436 46.3815 53.9902 46.8272 53.9902 47.3813Z" fill="#30A5C6"/>
<path d="M51.9951 47.3813C51.9951 47.9311 52.4409 48.3811 52.9949 48.3811C53.549 48.3811 53.9947 47.9353 53.9947 47.3813C53.9947 46.8272 53.549 46.3815 52.9949 46.3815C52.4409 46.3815 51.9951 46.8272 51.9951 47.3813Z" fill="#30A5C6"/>
<path d="M49.9995 47.3813C49.9995 47.9311 50.4452 48.3811 50.9993 48.3811C51.5534 48.3811 51.9991 47.9353 51.9991 47.3813C51.9991 46.8272 51.5534 46.3815 50.9993 46.3815C50.4452 46.3815 49.9995 46.8272 49.9995 47.3813Z" fill="#30A5C6"/>
<path d="M57.9814 47.3813C57.9814 47.9311 58.4272 48.3811 58.9812 48.3811C59.5353 48.3811 59.981 47.9353 59.981 47.3813C59.981 46.8272 59.5353 46.3815 58.9812 46.3815C58.4272 46.3815 57.9814 46.8272 57.9814 47.3813Z" fill="#30A5C6"/>
<path d="M48.0044 47.3813C48.0044 47.9311 48.4501 48.3811 49.0042 48.3811C49.5582 48.3811 50.004 47.9353 50.004 47.3813C50.004 46.8272 49.5582 46.3815 49.0042 46.3815C48.4501 46.3815 48.0044 46.8272 48.0044 47.3813Z" fill="#30A5C6"/>
<path d="M63.9688 41.3953C63.9688 41.9452 64.4145 42.3951 64.9685 42.3951C65.5226 42.3951 65.9683 41.9494 65.9683 41.3953C65.9683 40.8412 65.5226 40.3955 64.9685 40.3955C64.4145 40.3955 63.9688 40.8412 63.9688 41.3953Z" fill="#30A5C6"/>
<path d="M57.9824 41.3953C57.9824 41.9452 58.4282 42.3951 58.9822 42.3951C59.5363 42.3951 59.982 41.9494 59.982 41.3953C59.982 40.8412 59.5363 40.3955 58.9822 40.3955C58.4282 40.3955 57.9824 40.8412 57.9824 41.3953Z" fill="#30A5C6"/>
<path d="M63.9688 43.3907C63.9688 43.9405 64.4145 44.3905 64.9685 44.3905C65.5226 44.3905 65.9683 43.9447 65.9683 43.3907C65.9683 42.8366 65.5226 42.3909 64.9685 42.3909C64.4145 42.3909 63.9688 42.8366 63.9688 43.3907Z" fill="#30A5C6"/>
<path d="M57.9824 43.3907C57.9824 43.9405 58.4282 44.3905 58.9822 44.3905C59.5363 44.3905 59.982 43.9447 59.982 43.3907C59.982 42.8366 59.5363 42.3909 58.9822 42.3909C58.4282 42.3909 57.9824 42.8366 57.9824 43.3907Z" fill="#30A5C6"/>
<path d="M64.9685 40.3996C65.5207 40.3996 65.9683 39.952 65.9683 39.3998C65.9683 38.8476 65.5207 38.4 64.9685 38.4C64.4164 38.4 63.9688 38.8476 63.9688 39.3998C63.9688 39.952 64.4164 40.3996 64.9685 40.3996Z" fill="#30A5C6"/>
<path d="M61.9731 39.3998C61.9731 39.9497 62.4189 40.3996 62.9729 40.3996C63.527 40.3996 63.9727 39.9539 63.9727 39.3998C63.9727 38.8458 63.527 38.4 62.9729 38.4C62.4189 38.4 61.9731 38.8458 61.9731 39.3998Z" fill="#30A5C6"/>
<path d="M59.978 39.3998C59.978 39.9497 60.4238 40.3996 60.9778 40.3996C61.5319 40.3996 61.9776 39.9539 61.9776 39.3998C61.9776 38.8458 61.5319 38.4 60.9778 38.4C60.4238 38.4 59.978 38.8458 59.978 39.3998Z" fill="#30A5C6"/>
<path d="M58.9822 40.3996C59.5344 40.3996 59.982 39.952 59.982 39.3998C59.982 38.8476 59.5344 38.4 58.9822 38.4C58.43 38.4 57.9824 38.8476 57.9824 39.3998C57.9824 39.952 58.43 40.3996 58.9822 40.3996Z" fill="#30A5C6"/>
<path d="M63.9688 37.4045C63.9688 37.9543 64.4145 38.4042 64.9685 38.4042C65.5226 38.4042 65.9683 37.9585 65.9683 37.4045C65.9683 36.8504 65.5226 36.4047 64.9685 36.4047C64.4145 36.4047 63.9688 36.8504 63.9688 37.4045Z" fill="#30A5C6"/>
<path d="M61.9731 37.4045C61.9731 37.9543 62.4189 38.4042 62.9729 38.4042C63.527 38.4042 63.9727 37.9585 63.9727 37.4045C63.9727 36.8504 63.527 36.4047 62.9729 36.4047C62.4189 36.4047 61.9731 36.8504 61.9731 37.4045Z" fill="#30A5C6"/>
<path d="M59.978 37.4045C59.978 37.9543 60.4238 38.4042 60.9778 38.4042C61.5319 38.4042 61.9776 37.9585 61.9776 37.4045C61.9776 36.8504 61.5319 36.4047 60.9778 36.4047C60.4238 36.4047 59.978 36.8504 59.978 37.4045Z" fill="#30A5C6"/>
<path d="M57.9824 37.4045C57.9824 37.9543 58.4282 38.4042 58.9822 38.4042C59.5363 38.4042 59.982 37.9585 59.982 37.4045C59.982 36.8504 59.5363 36.4047 58.9822 36.4047C58.4282 36.4047 57.9824 36.8504 57.9824 37.4045Z" fill="#30A5C6"/>
<path d="M61.9731 35.4048C61.9731 35.9547 62.4189 36.4046 62.9729 36.4046C63.527 36.4046 63.9727 35.9589 63.9727 35.4048C63.9727 34.8508 63.527 34.405 62.9729 34.405C62.4189 34.405 61.9731 34.8508 61.9731 35.4048Z" fill="#30A5C6"/>
<path d="M59.9775 35.4048C59.9775 35.9547 60.4233 36.4046 60.9773 36.4046C61.5314 36.4046 61.9771 35.9589 61.9771 35.4048C61.9771 34.8508 61.5314 34.405 60.9773 34.405C60.4233 34.405 59.9775 34.8508 59.9775 35.4048Z" fill="#30A5C6"/>
<path d="M48.4541 41.845C48.4541 42.5198 49.004 43.0697 49.6788 43.0697C50.3537 43.0697 50.9036 42.5198 50.9036 41.845C50.9036 41.1701 50.3537 40.6202 49.6788 40.6202C49.004 40.6202 48.4541 41.1701 48.4541 41.845Z" fill="#30A5C6"/>
<path d="M46.0054 41.845C46.0054 42.5198 46.5553 43.0697 47.2301 43.0697C47.905 43.0697 48.4549 42.5198 48.4549 41.845C48.4549 41.1701 47.905 40.6202 47.2301 40.6202C46.5553 40.6202 46.0054 41.1701 46.0054 41.845Z" fill="#30A5C6"/>
<path d="M43.5591 41.845C43.5591 42.5198 44.109 43.0697 44.7838 43.0697C45.4587 43.0697 46.0086 42.5198 46.0086 41.845C46.0086 41.1701 45.4587 40.6202 44.7838 40.6202C44.109 40.6202 43.5591 41.1701 43.5591 41.845Z" fill="#30A5C6"/>
<path d="M46.0054 44.2943C46.0054 44.9692 46.5553 45.5191 47.2301 45.5191C47.905 45.5191 48.4549 44.9692 48.4549 44.2943C48.4549 43.6195 47.905 43.0696 47.2301 43.0696C46.5553 43.0696 46.0054 43.6195 46.0054 44.2943Z" fill="#30A5C6"/>
<path d="M43.5591 44.2943C43.5591 44.9692 44.109 45.5191 44.7838 45.5191C45.4587 45.5191 46.0086 44.9692 46.0086 44.2943C46.0086 43.6195 45.4587 43.0696 44.7838 43.0696C44.109 43.0696 43.5591 43.6195 43.5591 44.2943Z" fill="#30A5C6"/>
<path d="M41.1099 41.845C41.1099 42.5198 41.6597 43.0697 42.3346 43.0697C43.0095 43.0697 43.5594 42.5198 43.5594 41.845C43.5594 41.1701 43.0095 40.6202 42.3346 40.6202C41.6597 40.6202 41.1099 41.1701 41.1099 41.845Z" fill="#30A5C6"/>
<path d="M48.4541 39.3996C48.4541 40.0744 49.004 40.6243 49.6788 40.6243C50.3537 40.6243 50.9036 40.0744 50.9036 39.3996C50.9036 38.7247 50.3537 38.1748 49.6788 38.1748C49.004 38.1748 48.4541 38.7247 48.4541 39.3996Z" fill="#30A5C6"/>
<path d="M46.0054 39.3996C46.0054 40.0744 46.5553 40.6243 47.2301 40.6243C47.905 40.6243 48.4549 40.0744 48.4549 39.3996C48.4549 38.7247 47.905 38.1748 47.2301 38.1748C46.5553 38.1748 46.0054 38.7247 46.0054 39.3996Z" fill="#30A5C6"/>
<path d="M44.7838 40.6243C45.4602 40.6243 46.0086 40.076 46.0086 39.3996C46.0086 38.7231 45.4602 38.1748 44.7838 38.1748C44.1074 38.1748 43.5591 38.7231 43.5591 39.3996C43.5591 40.076 44.1074 40.6243 44.7838 40.6243Z" fill="#30A5C6"/>
<path d="M41.1099 39.3996C41.1099 40.0744 41.6597 40.6243 42.3346 40.6243C43.0095 40.6243 43.5594 40.0744 43.5594 39.3996C43.5594 38.7247 43.0095 38.1748 42.3346 38.1748C41.6597 38.1748 41.1099 38.7247 41.1099 39.3996Z" fill="#30A5C6"/>
<path d="M48.4541 36.9502C48.4541 37.6251 49.004 38.175 49.6788 38.175C50.3537 38.175 50.9036 37.6251 50.9036 36.9502C50.9036 36.2754 50.3537 35.7255 49.6788 35.7255C49.004 35.7255 48.4541 36.2754 48.4541 36.9502Z" fill="#30A5C6"/>
<path d="M46.0054 36.9502C46.0054 37.6251 46.5553 38.175 47.2301 38.175C47.905 38.175 48.4549 37.6251 48.4549 36.9502C48.4549 36.2754 47.905 35.7255 47.2301 35.7255C46.5553 35.7255 46.0054 36.2754 46.0054 36.9502Z" fill="#30A5C6"/>
<path d="M43.5591 36.9502C43.5591 37.6251 44.109 38.175 44.7838 38.175C45.4587 38.175 46.0086 37.6251 46.0086 36.9502C46.0086 36.2754 45.4587 35.7255 44.7838 35.7255C44.109 35.7255 43.5591 36.2754 43.5591 36.9502Z" fill="#30A5C6"/>
<path d="M41.1099 36.9502C41.1099 37.6251 41.6597 38.175 42.3346 38.175C43.0095 38.175 43.5594 37.6251 43.5594 36.9502C43.5594 36.2754 43.0095 35.7255 42.3346 35.7255C41.6597 35.7255 41.1099 36.2754 41.1099 36.9502Z" fill="#30A5C6"/>
<path d="M46.0054 34.5007C46.0054 35.1756 46.5553 35.7255 47.2301 35.7255C47.905 35.7255 48.4549 35.1756 48.4549 34.5007C48.4549 33.8259 47.905 33.276 47.2301 33.276C46.5553 33.276 46.0054 33.8259 46.0054 34.5007Z" fill="#30A5C6"/>
<path d="M43.5591 34.5007C43.5591 35.1756 44.109 35.7255 44.7838 35.7255C45.4587 35.7255 46.0086 35.1756 46.0086 34.5007C46.0086 33.8259 45.4587 33.276 44.7838 33.276C44.109 33.276 43.5591 33.8259 43.5591 34.5007Z" fill="#30A5C6"/>
<path d="M75.6393 79.0666C71.6526 80.4622 67.9742 76.613 66.7286 69.8311C65.833 64.9737 66.0204 58.4709 68.1741 57.7169C70.3279 56.9629 74.5228 61.9327 76.8557 66.2901C80.105 72.368 79.6301 77.6711 75.6434 79.0666H75.6393Z" fill="#A8D7E9"/>
<path d="M76.2474 77.8543C73.9812 78.2167 69.1906 76.0046 67.9408 69.2269C67.0452 64.3696 66.0204 58.4708 68.1741 57.7209C70.3278 56.9669 74.5228 61.9367 76.8556 66.2942C80.105 72.3721 78.8635 76.8753 76.2516 77.8584L76.2474 77.8543Z" fill="#D5E9F2"/>
<path d="M64.8622 62.1326C65.7871 62.7992 65.6704 64.228 65.208 65.2695C64.3957 67.0941 62.796 68.548 60.9047 69.1895C59.0135 69.831 56.8597 69.6436 55.1059 68.6896C51.5234 66.74 52.9856 63.4282 57.3471 63.2824C60.9881 63.1616 63.3126 61.0204 64.8581 62.1368L64.8622 62.1326Z" fill="white"/>
<path d="M51.6608 64.1989C52.1565 64.9487 51.9899 66.061 51.2983 66.6359C50.6068 67.2108 49.482 67.1691 48.8363 66.5442C48.3531 66.0777 48.1573 65.357 48.249 64.6905C48.4781 63.0325 50.8401 62.9491 51.6649 64.1947L51.6608 64.1989Z" fill="white"/>
<path d="M68.5614 58.4959C67.9074 58.8417 67.8699 59.9581 67.9241 60.6954C68.3323 66.2235 69.1405 73.3345 73.4729 76.1547C70.6902 72.8096 71.7066 60.7204 71.7066 60.7204C71.3359 59.7248 69.4279 58.0335 68.5614 58.4959Z" fill="white"/>
<path d="M62.9711 17.2753C60.7799 15.0591 58.9928 15.4215 58.2888 15.7756C57.1182 16.3671 56.8349 17.8876 56.7558 19.1957C56.4933 23.4865 57.6639 27.9689 62.3838 29.102C66.208 30.0185 68.7991 27.6106 67.4036 23.8156C66.4371 21.1953 64.8999 19.2207 62.9711 17.2711V17.2753Z" fill="white"/>
<path d="M52.7894 12.9095C51.5438 12.9928 50.3649 13.8551 50.5482 15.4048C50.7023 16.7254 52.0562 17.7835 53.3685 17.596C54.6848 17.4086 55.6888 15.988 55.4097 14.6883C55.1306 13.4011 53.9308 12.8303 52.7894 12.9053V12.9095Z" fill="white"/>
<g style="mix-blend-mode:color-dodge" opacity="0.3">
<path d="M43.1377 41.6369C45.6331 40.2371 48.9199 41.4244 51.2319 39.5998C52.2775 38.7749 52.8274 37.5335 53.0648 36.2171C52.3483 34.2551 50.9486 32.6179 49.149 31.6014C49.3365 33.4011 48.9074 35.2007 47.6285 36.6421C46.2079 38.2459 44.45 38.4667 42.4671 38.8208C41.2548 39.0374 40.6299 39.2623 40.1134 40.0872C39.3594 41.2953 38.9594 42.4867 38.6553 43.9405C38.5595 44.3946 38.5429 44.8487 38.5512 45.2903C38.9761 45.7277 39.4427 46.1234 39.9509 46.465C40.1759 44.5279 41.1215 42.77 43.1377 41.641V41.6369Z" fill="#53FFFF"/>
</g>
<path d="M27.9744 53.7636C27.5787 53.7636 27.1912 53.5928 26.9205 53.2679C26.4414 52.6847 26.5247 51.8265 27.1079 51.3475L36.5851 43.5574C37.1683 43.0783 38.0265 43.1617 38.5055 43.7449C38.9846 44.3281 38.9013 45.1862 38.3181 45.6653L28.8409 53.4595C28.5868 53.6678 28.2785 53.772 27.9744 53.772V53.7636Z" fill="#AE6347"/>
<path d="M44.8506 49.327C39.2726 49.327 34.7402 44.7905 34.7402 39.2166C34.7402 33.6428 39.2768 29.1021 44.8506 29.1021C50.4245 29.1021 54.9652 33.6386 54.9652 39.2166C54.9652 44.7946 50.4286 49.327 44.8506 49.327ZM44.8506 31.8307C40.7765 31.8307 37.4647 35.1425 37.4647 39.2166C37.4647 43.2908 40.7765 46.6026 44.8506 46.6026C48.9248 46.6026 52.2366 43.2908 52.2366 39.2166C52.2366 35.1425 48.9248 31.8307 44.8506 31.8307Z" fill="#CC9B64"/>
<path d="M49.5451 32.5931C49.3951 32.5931 49.2452 32.5472 49.1118 32.4556C48.0829 31.7391 46.3041 31.2267 44.8711 31.2267C44.8627 31.2267 44.8544 31.2267 44.8461 31.2267C44.4295 31.2267 44.0921 30.8892 44.0879 30.4727C44.0879 30.0561 44.4253 29.7145 44.8419 29.7103H44.8669C46.3374 29.7103 48.4786 30.1727 49.9742 31.2142C50.3158 31.4516 50.4032 31.9265 50.1616 32.2681C50.0158 32.4806 49.7784 32.5931 49.5409 32.5931H49.5451Z" fill="#EDE3AC"/>
<path d="M51.4648 34.301C51.269 34.301 51.0774 34.226 50.9274 34.0802L50.6608 33.8136C50.365 33.5178 50.365 33.0387 50.6608 32.7429C50.9566 32.4472 51.4356 32.4472 51.7314 32.7429L51.998 33.0096C52.2938 33.3053 52.2938 33.7844 51.998 34.0802C51.848 34.2301 51.6564 34.301 51.4606 34.301H51.4648Z" fill="#EDE3AC"/>
<path d="M44.8248 48.6773C43.3543 48.6773 41.2131 48.2149 39.7175 47.1735C39.3759 46.936 39.2885 46.4611 39.5301 46.1195C39.7675 45.7779 40.2424 45.6904 40.584 45.932C41.613 46.6486 43.3918 47.1651 44.8248 47.1651C44.8331 47.1651 44.8415 47.1651 44.8498 47.1651C45.2664 47.1651 45.6038 47.5026 45.608 47.9191C45.608 48.3357 45.2705 48.6773 44.854 48.6815H44.829L44.8248 48.6773Z" fill="#EDE3AC"/>
<path d="M38.497 45.8696C38.3012 45.8696 38.1096 45.7946 37.9596 45.6488L37.693 45.3822C37.3972 45.0864 37.3972 44.6073 37.693 44.3116C37.9888 44.0158 38.4679 44.0158 38.7636 44.3116L39.0302 44.5782C39.326 44.8739 39.326 45.353 39.0302 45.6488C38.8803 45.7987 38.6886 45.8696 38.4929 45.8696H38.497Z" fill="#EDE3AC"/>
</svg>
