<svg xmlns="http://www.w3.org/2000/svg" width="60" height="60" fill="none"><path fill="#fff" d="M0 0h60v60H0z"/><path stroke="#111" stroke-linecap="round" stroke-linejoin="round" stroke-miterlimit="10" stroke-width="2" d="M26.806 20.64v16.777M30.725 37.417V24.958M34.643 24.958v12.46M34.643 20.64v4.318M30.724 10.948a3.69 3.69 0 0 0 3.69-3.69 3.69 3.69 0 1 0-3.69 3.69ZM23.706 24.958v-9.32c0-1.325 1.074-2.4 2.398-2.4h9.24a2.399 2.399 0 0 1 2.399 2.4v8.421M26.806 24.958h7.837M41.9 37.572h4.478c.914-.113 1.608-.995 1.608-2.048V34.06s3.927 3.319 6.688 5.488c-2.761 2.165-6.688 5.488-6.688 5.488v-1.463c0-1.053-.694-1.935-1.608-2.048H37.379a4.603 4.603 0 0 0-4.603 4.606v3.774c.112.915.994 1.609 2.047 1.609h1.462s-3.317 3.929-5.485 6.691c-2.164-2.762-5.485-6.691-5.485-6.691h1.462c1.052 0 1.934-.694 2.047-1.61v-3.773a4.603 4.603 0 0 0-4.604-4.606h-9.148c-.915.113-1.609.994-1.609 2.048v1.463s-3.927-3.319-6.688-5.488c2.761-2.165 6.688-5.488 6.688-5.488v1.463c0 1.053.694 1.935 1.609 2.048h4.478"/><path fill="#FFC524" d="M26.292 15.466v2.374l1.893-.506a9.785 9.785 0 0 1 5.08 0l1.892.506v-2.374h-8.865Z"/></svg>