<svg xmlns="http://www.w3.org/2000/svg" width="60" height="60" fill="none"><path fill="#fff" d="M0 0h60v60H0z"/><path stroke="#111" stroke-linecap="round" stroke-miterlimit="10" stroke-width="2" d="M31.135 34.386a17.129 17.129 0 0 1-10.552 3.616c-9.504 0-17.208-7.707-17.208-17.216 0-9.508 7.704-17.215 17.208-17.215 6.884 0 12.825 4.045 15.573 9.888"/><path fill="#1772BD" d="M17.02 35.055c-.03-.13-.06-.255-.084-.38-.46-2.4-.506-4.865-.97-7.264-.463-2.4-1.424-4.823-3.312-6.37-1.842-1.509-4.278-1.985-6.563-2.675-.134.79-.205 1.601-.205 2.428 0 6.876 4.746 12.665 11.133 14.261Z"/><path fill="#FFC524" d="M11.016 9.64c.243.438.477.881.71 1.316 1.179 2.181 2.733 4.468 5.143 5.053 1.955.476 4.015-.318 5.673-1.463 1.659-1.141 3.054-2.629 4.691-3.795.79-.56 1.63-1.04 2.511-1.438-2.565-2.044-5.782-3.23-9.161-3.23a14.639 14.639 0 0 0-9.567 3.556Z"/><path stroke="#111" stroke-linecap="round" stroke-miterlimit="10" stroke-width="2" d="M32.727 26.709c-.886.255-1.525 1.308-1.525 2.612 0 1.433.78 2.566 1.8 2.662.572 2.17 1.755 4.03 3.355 5.275l-.263 2.265c-.042.36-.239.686-.54.89a1.381 1.381 0 0 1-.346.164l-5.702 1.655c-.74.163-1.492.556-2.235 1.17a6.585 6.585 0 0 0-2.265 3.786l-1.336 10.5h26.794"/><path stroke="#111" stroke-linecap="round" stroke-miterlimit="10" stroke-width="2" d="M48.969 26.709c.885.255 1.524 1.308 1.524 2.612 0 1.433-.78 2.566-1.8 2.662-.572 2.17-1.755 4.03-3.355 5.275l.264 2.265c.041.36.238.686.538.89.109.072.226.126.347.164l5.702 1.655c.74.163 1.492.556 2.235 1.17a6.585 6.585 0 0 1 2.265 3.786l1.336 10.5H50.46M33.712 21.781c-1.207 1.768-.985 4.928-.985 4.928M48.868 26.692s.092-1.806-.518-3.841M45.485 38.988l-4.663 4.18-4.666-4.18M33.713 21.781c.033-3.586 3.053-5.634 5.877-6.006.694-.092 3.012-.364 4.604-1.011l.012.02c.21.33.243.744.097 1.108 1.708.46 3.112.247 4.57-.364.017 1.041.046 3.14-.372 4.092-.418.953-1.195 1.79-2.189 2.09-.64.196-1.328.163-1.988.075-1.337-.175-2.632-.572-3.952-.827-1.325-.255-2.712-.364-4.002.033"/><path stroke="#111" stroke-linecap="round" stroke-miterlimit="10" stroke-width="2" d="M46.667 18.195a2.072 2.072 0 0 1-1.441 1.408c-.677.18-1.396 0-2.072-.18M40.823 43.168v7.749M40.823 33.517v-1.162c0-.957.539-1.83 1.387-2.26.898-.456 1.508-1.363 1.52-2.37 0-.055 0-.11-.004-.16-.063-1.483-1.266-2.708-2.749-2.787a2.914 2.914 0 0 0-3.074 2.909M41.224 36.1a.406.406 0 1 1-.812 0 .406.406 0 0 1 .812 0Z"/></svg>