<svg xmlns="http://www.w3.org/2000/svg" width="137" height="29" fill="none"><path fill="url(#a)" d="M0 14.461c0 3.993 1.611 7.61 4.215 10.225 2.6 2.617 6.2 4.237 10.171 4.237h108.231C130.56 28.92 137 22.447 137 14.462a14.437 14.437 0 0 0-4.215-10.224 14.297 14.297 0 0 0-10.171-4.238H14.384C7.973 0 2.543 4.214.686 10.04A14.482 14.482 0 0 0 0 14.46Z"/><path fill="#fff" d="M1.176 14.516c0 3.685 1.578 7.027 4.13 9.443 2.55 2.415 6.075 3.91 9.965 3.91h106.04c7.782 0 14.092-5.976 14.092-13.353a12.724 12.724 0 0 0-2.078-6.985 13.41 13.41 0 0 0-2.049-2.458c-2.547-2.416-6.073-3.91-9.962-3.91H15.271c-4.854 0-9.136 2.327-11.672 5.87-.257.361-.498.733-.718 1.114a12.58 12.58 0 0 0-1.032 2.285 12.658 12.658 0 0 0-.673 4.084Z" opacity=".3"/><path fill="#F9B428" d="M113.851 16.019c.333.327.489.801.407 1.264l-.772 4.53c-.201 1.165 1.018 2.055 2.058 1.506l4.048-2.137a1.394 1.394 0 0 1 1.32 0l4.046 2.137c1.043.552 2.261-.338 2.061-1.506l-.521-3.052-.251-1.478a1.445 1.445 0 0 1 .407-1.264l.551-.54 2.728-2.668c.842-.827.376-2.265-.789-2.436l-4.525-.66a1.43 1.43 0 0 1-1.069-.78l-2.024-4.124c-.52-1.06-2.027-1.06-2.547 0l-1.08 2.2-.944 1.92c-.207.421-.605.714-1.072.782l-.155.023-4.37.636c-1.162.17-1.629 1.609-.786 2.436l3.279 3.21Z"/><path fill="#fff" d="M115.734 9.739c.605 5.095 4.913 9.042 10.142 9.042.21 0 .419-.006.625-.023l-.251-1.477c-.08-.464.076-.935.407-1.265l3.276-3.205c.842-.827.376-2.265-.789-2.436l-4.525-.66a1.43 1.43 0 0 1-1.069-.78l-2.024-4.124c-.52-1.06-2.027-1.06-2.547 0l-2.024 4.123c-.207.421-.605.714-1.072.782l-.149.023Z" opacity=".14"/><path fill="#F9B428" d="M88.7 16.018c.333.327.489.802.407 1.265l-.772 4.53c-.2 1.165 1.018 2.054 2.058 1.506l4.048-2.137a1.393 1.393 0 0 1 1.32 0l4.046 2.137c1.043.551 2.261-.338 2.06-1.506l-.52-3.052-.251-1.478a1.445 1.445 0 0 1 .407-1.265l.551-.54 2.722-2.665c.843-.827.376-2.265-.788-2.435l-4.526-.66a1.43 1.43 0 0 1-1.069-.781L96.37 4.814c-.52-1.06-2.027-1.06-2.547 0l-1.08 2.199-.944 1.921a1.42 1.42 0 0 1-1.071.781l-.156.023-4.37.637c-1.162.17-1.628 1.608-.786 2.435l3.285 3.208Z"/><path fill="#fff" d="M90.582 9.739c.605 5.095 4.913 9.042 10.143 9.042a7.6 7.6 0 0 0 .625-.023l-.252-1.478a1.448 1.448 0 0 1 .407-1.264l3.277-3.208c.842-.827.376-2.265-.789-2.436l-4.526-.66a1.43 1.43 0 0 1-1.068-.78l-2.025-4.124c-.52-1.06-2.026-1.06-2.546 0l-2.025 4.123a1.42 1.42 0 0 1-1.071.782l-.15.026Z" opacity=".14"/><path fill="#F9B428" d="M63.549 16.018c.334.327.489.802.407 1.265l-.772 4.53c-.2 1.165 1.018 2.054 2.058 1.506l4.048-2.137a1.393 1.393 0 0 1 1.32 0l4.046 2.137c1.043.551 2.261-.338 2.06-1.506l-.52-3.052-.251-1.478c-.08-.463.076-.935.407-1.265l.551-.54 2.722-2.665c.843-.827.376-2.265-.788-2.435l-4.526-.66a1.426 1.426 0 0 1-1.069-.781l-2.024-4.123c-.52-1.06-2.027-1.06-2.547 0l-1.08 2.199-.944 1.921a1.42 1.42 0 0 1-1.071.781l-.156.023-4.37.637c-1.162.17-1.628 1.608-.786 2.435l3.285 3.208Z"/><path fill="#fff" d="M65.429 9.739c.605 5.095 4.913 9.042 10.143 9.042.209 0 .418-.006.624-.023l-.251-1.478c-.08-.463.076-.934.407-1.264l3.276-3.208c.843-.827.376-2.265-.789-2.436l-4.525-.66a1.426 1.426 0 0 1-1.069-.78l-2.024-4.124c-.52-1.06-2.027-1.06-2.547 0L66.65 8.931a1.42 1.42 0 0 1-1.072.782l-.15.026Z" opacity=".14"/><path fill="#F9B428" d="M38.395 16.019c.333.326.489.801.407 1.264l-.772 4.53c-.2 1.165 1.018 2.055 2.058 1.506l4.048-2.137a1.394 1.394 0 0 1 1.32 0l4.046 2.137c1.043.551 2.261-.338 2.06-1.506l-.52-3.052-.251-1.478c-.08-.463.076-.935.407-1.264l.551-.54 2.722-2.666c.843-.827.376-2.265-.788-2.435l-4.526-.66a1.43 1.43 0 0 1-1.069-.78l-2.024-4.124c-.52-1.06-2.027-1.06-2.547 0l-1.08 2.2-.944 1.92a1.42 1.42 0 0 1-1.071.782l-.156.022-4.37.637c-1.162.17-1.628 1.608-.786 2.435l3.285 3.209ZM12.386 16.019c.333.326.489.801.407 1.264l-.772 4.53c-.2 1.165 1.018 2.055 2.058 1.506l4.048-2.137a1.394 1.394 0 0 1 1.32 0l4.046 2.137c1.043.551 2.261-.338 2.06-1.506l-.52-3.052-.251-1.478c-.08-.463.076-.935.407-1.264l.551-.54 2.722-2.666c.843-.827.376-2.265-.788-2.435l-4.526-.66a1.43 1.43 0 0 1-1.069-.78l-2.024-4.124c-.52-1.06-2.027-1.06-2.547 0l-1.08 2.2-.944 1.92a1.42 1.42 0 0 1-1.071.782l-.156.022-4.37.637c-1.162.17-1.628 1.608-.786 2.435l3.285 3.209Z"/><path fill="#fff" d="M40.277 9.739c.605 5.095 4.913 9.042 10.143 9.042.21 0 .419-.006.625-.023l-.252-1.478c-.079-.463.077-.934.407-1.264l3.277-3.208c.842-.827.376-2.265-.789-2.436l-4.526-.66a1.43 1.43 0 0 1-1.068-.78L46.07 4.807c-.52-1.06-2.027-1.06-2.547 0l-2.025 4.123a1.42 1.42 0 0 1-1.07.782l-.15.026ZM14.268 9.739c.605 5.095 4.913 9.042 10.143 9.042.21 0 .419-.006.625-.023l-.252-1.478c-.079-.463.077-.934.408-1.264l3.276-3.208c.842-.827.376-2.265-.789-2.436l-4.526-.66a1.43 1.43 0 0 1-1.068-.78L20.06 4.807c-.52-1.06-2.027-1.06-2.547 0L15.49 8.931a1.42 1.42 0 0 1-1.072.782l-.15.026Z" opacity=".14"/><defs><linearGradient id="a" x1="68.5" x2="68.5" y1="-13.77" y2="22.497" gradientUnits="userSpaceOnUse"><stop stop-color="#fff"/><stop offset="1" stop-color="#E5EDF1"/></linearGradient></defs></svg>