<svg xmlns="http://www.w3.org/2000/svg" width="44" height="44" fill="none"><rect width="44" height="44" fill="#F3F6F9" rx="22"/><path fill="#1772BD" d="M12.848 15.62h16.633v1.848h1.848V15.62a1.853 1.853 0 0 0-1.848-1.848h-.924v-.924h-1.848v.924H24.86V11h-7.393v2.772H15.62v-.924h-1.848v.924h-.924A1.853 1.853 0 0 0 11 15.62V26.71c0 1.016.832 1.848 1.848 1.848h4.62v-1.848h-4.62V15.62Zm6.469-2.772h3.696v.924h-3.697v-.924Z"/><path fill="#1772BD" d="M25.785 17.468c-4.075 0-7.392 3.318-7.392 7.393 0 4.075 3.317 7.392 7.392 7.392a7.36 7.36 0 0 0 4.944-1.913.927.927 0 0 0 .332-.212.74.74 0 0 0 .204-.333 7.359 7.359 0 0 0 1.912-4.943c0-4.066-3.317-7.384-7.392-7.384Zm4.51 10.6-2.283-2.283h3.234a5.393 5.393 0 0 1-.952 2.282Zm.951-4.131H26.71V19.4a5.537 5.537 0 0 1 4.537 4.537Zm-11.005.924c0-2.745 2.005-5.018 4.62-5.461v5.46c0 .241.092.472.268.657l3.862 3.862a5.5 5.5 0 0 1-3.206 1.026 5.549 5.549 0 0 1-5.544-5.544Z"/></svg>