<svg width="100" height="100" viewBox="0 0 100 100" fill="none" xmlns="http://www.w3.org/2000/svg">
<path d="M67.6116 85.7456C75.7008 85.7456 82.2584 83.8152 82.2584 81.4339C82.2584 79.0526 75.7008 77.1222 67.6116 77.1222C59.5224 77.1222 52.9648 79.0526 52.9648 81.4339C52.9648 83.8152 59.5224 85.7456 67.6116 85.7456Z" fill="#28739D"/>
<path d="M56.9447 59.0599C54.4705 62.0296 49.7738 60.7373 45.6069 56.0024C42.6181 52.6095 39.7055 47.4172 41.0398 45.816C42.3741 44.2149 48.0087 46.1362 51.8858 48.4617C57.2992 51.706 59.4188 56.0901 56.9447 59.0599Z" fill="#D5E9F2"/>
<path d="M55.6259 58.778C50.8911 52.6783 41.7035 41.8362 40.7275 47.2878C40.9601 49.5599 43.2589 53.3378 45.6073 56.0026C49.2442 60.1351 53.2852 61.6448 55.9004 59.9865C55.8356 59.59 55.8928 59.1173 55.6298 58.778H55.6259Z" fill="#A8D7E9"/>
<path d="M52.2321 64.698C51.2333 72.5513 57.5007 77.9686 65.9449 79.0436C74.3891 80.1187 81.8154 76.4475 82.8143 68.5904C83.8131 60.7332 78.0108 51.6715 69.5628 50.5964C61.1186 49.5213 53.2271 56.8409 52.2283 64.6942L52.2321 64.698Z" fill="#D5E9F2"/>
<path d="M80.6756 58.5486C81.1292 60.3023 81.2741 62.1093 81.053 63.8515C80.1342 71.0758 73.3064 74.4535 65.537 73.4623C58.4271 72.5587 52.9984 68.3042 52.8345 62.0483C52.5524 62.9175 52.3465 63.8019 52.2321 64.694C51.2333 72.5473 57.5007 77.9646 65.9449 79.0396C74.3891 80.1147 81.8154 76.4435 82.8143 68.5863C83.2412 65.2201 82.4178 61.6289 80.6718 58.5448L80.6756 58.5486Z" fill="#A8D7E9"/>
<path d="M54.8315 57.9806C58.5828 61.3583 63.7332 62.8947 69.2687 62.38C73.5384 61.9835 77.3583 60.4319 80.2938 57.9044C77.9301 54.1035 74.1369 51.1833 69.5698 50.6001C63.6608 49.849 58.03 53.2038 54.8353 57.9806H54.8315Z" fill="#82C9E0"/>
<path d="M77.5614 61.7968C78.4077 62.4067 78.301 63.7143 77.8778 64.6674C77.1344 66.3372 75.6705 67.6677 73.9397 68.2548C72.2089 68.8419 70.238 68.6703 68.633 67.7973C65.3544 66.0131 66.6926 62.9824 70.684 62.8489C74.016 62.7384 76.1432 60.7789 77.5576 61.8006L77.5614 61.7968Z" fill="white"/>
<path d="M65.4758 63.6877C65.9295 64.3739 65.777 65.3918 65.1441 65.9179C64.5113 66.444 63.482 66.4059 62.8911 65.834C62.4489 65.4071 62.2697 64.7475 62.3536 64.1376C62.5632 62.6241 64.7248 62.544 65.4796 63.6839L65.4758 63.6877Z" fill="white"/>
<path d="M87.4237 77.2901C83.7754 78.5672 80.4091 75.0447 79.2693 68.8383C78.4496 64.3932 78.6212 58.4422 80.5921 57.7522C82.5631 57.0622 86.402 61.6102 88.5369 65.5979C91.5105 71.16 91.0759 76.013 87.4275 77.2901H87.4237Z" fill="#A8D7E9"/>
<path d="M87.9802 76.181C85.9063 76.5126 81.5222 74.4883 80.3785 68.2857C79.5588 63.8406 78.621 58.4424 80.592 57.7562C82.5629 57.0662 86.4019 61.6142 88.5368 65.6019C91.5103 71.164 90.3743 75.2851 87.984 76.1848L87.9802 76.181Z" fill="#D5E9F2"/>
<path d="M80.9463 58.4652C80.3478 58.7816 80.3135 59.8033 80.363 60.4781C80.7366 65.537 81.4762 72.0445 85.441 74.6255C82.8944 71.5642 83.8246 60.501 83.8246 60.501C83.4853 59.5898 81.7393 58.042 80.9463 58.4652Z" fill="white"/>
<path d="M48.8247 41.0732C49.9227 52.9675 58.8968 59.0786 69.1823 58.1256C79.4679 57.1725 87.1687 49.5251 86.0669 37.6307C84.969 25.7364 75.484 14.1051 65.1985 15.0544C54.913 16.0037 47.723 29.1789 48.8247 41.0732Z" fill="#D5E9F2"/>
<path d="M86.0672 37.6308C85.7431 34.1197 84.6871 30.6277 83.0936 27.4787C84.0314 29.8195 84.6566 32.3013 84.8854 34.7945C85.9147 45.9454 78.698 53.1163 69.0568 54.0084C59.4155 54.9005 51.0056 49.1706 49.9725 38.0235C49.5798 33.7766 50.3156 29.3582 51.9091 25.462C49.515 30.1054 48.3294 35.7209 48.825 41.0771C49.9229 52.9715 58.897 59.0825 69.1826 58.1295C79.4681 57.1764 87.1689 49.529 86.0672 37.6347V37.6308Z" fill="#A8D7E9"/>
<path d="M51.3789 42.541C51.3789 50.0893 58.3668 56.208 66.9902 56.208C75.6136 56.208 82.6015 50.0893 82.6015 42.541C82.6015 34.9927 75.6136 31.6455 66.9902 31.6455C58.3668 31.6455 51.3789 34.9927 51.3789 42.541Z" fill="#38446A"/>
<path d="M67.6118 48.2975C67.6118 48.8007 68.0197 49.2125 68.5268 49.2125C69.0338 49.2125 69.4417 48.8045 69.4417 48.2975C69.4417 47.7905 69.0338 47.3826 68.5268 47.3826C68.0197 47.3826 67.6118 47.7905 67.6118 48.2975Z" fill="#30A5C6"/>
<path d="M65.7817 48.2975C65.7817 48.8007 66.1897 49.2125 66.6967 49.2125C67.2037 49.2125 67.6116 48.8045 67.6116 48.2975C67.6116 47.7905 67.2037 47.3826 66.6967 47.3826C66.1897 47.3826 65.7817 47.7905 65.7817 48.2975Z" fill="#30A5C6"/>
<path d="M67.6118 50.1234C67.6118 50.6267 68.0197 51.0384 68.5268 51.0384C69.0338 51.0384 69.4417 50.6305 69.4417 50.1234C69.4417 49.6164 69.0338 49.2085 68.5268 49.2085C68.0197 49.2085 67.6118 49.6164 67.6118 50.1234Z" fill="#30A5C6"/>
<path d="M65.7817 50.1234C65.7817 50.6267 66.1897 51.0384 66.6967 51.0384C67.2037 51.0384 67.6116 50.6305 67.6116 50.1234C67.6116 49.6164 67.2037 49.2085 66.6967 49.2085C66.1897 49.2085 65.7817 49.6164 65.7817 50.1234Z" fill="#30A5C6"/>
<path d="M69.438 48.2975C69.438 48.8007 69.8459 49.2125 70.3529 49.2125C70.86 49.2125 71.2679 48.8045 71.2679 48.2975C71.2679 47.7905 70.86 47.3826 70.3529 47.3826C69.8459 47.3826 69.438 47.7905 69.438 48.2975Z" fill="#30A5C6"/>
<path d="M63.9556 48.2975C63.9556 48.8007 64.3635 49.2125 64.8705 49.2125C65.3775 49.2125 65.7855 48.8045 65.7855 48.2975C65.7855 47.7905 65.3775 47.3826 64.8705 47.3826C64.3635 47.3826 63.9556 47.7905 63.9556 48.2975Z" fill="#30A5C6"/>
<path d="M76.7417 44.6413C76.7417 45.1445 77.1496 45.5562 77.6566 45.5562C78.1637 45.5562 78.5716 45.1483 78.5716 44.6413C78.5716 44.1342 78.1637 43.7263 77.6566 43.7263C77.1496 43.7263 76.7417 44.1342 76.7417 44.6413Z" fill="#30A5C6"/>
<path d="M71.2632 44.6413C71.2632 45.1445 71.6711 45.5562 72.1781 45.5562C72.6852 45.5562 73.0931 45.1483 73.0931 44.6413C73.0931 44.1342 72.6852 43.7263 72.1781 43.7263C71.6711 43.7263 71.2632 44.1342 71.2632 44.6413Z" fill="#30A5C6"/>
<path d="M62.1294 44.6413C62.1294 45.1445 62.5373 45.5562 63.0443 45.5562C63.5514 45.5562 63.9593 45.1483 63.9593 44.6413C63.9593 44.1342 63.5514 43.7263 63.0443 43.7263C62.5373 43.7263 62.1294 44.1342 62.1294 44.6413Z" fill="#30A5C6"/>
<path d="M56.6509 44.6414C56.6509 45.1446 57.0588 45.5563 57.5658 45.5563C58.0729 45.5563 58.4808 45.1484 58.4808 44.6414C58.4808 44.1344 58.0729 43.7264 57.5658 43.7264C57.0588 43.7264 56.6509 44.1344 56.6509 44.6414Z" fill="#30A5C6"/>
<path d="M76.7417 42.8158C76.7417 43.319 77.1496 43.7308 77.6566 43.7308C78.1637 43.7308 78.5716 43.3229 78.5716 42.8158C78.5716 42.3088 78.1637 41.9009 77.6566 41.9009C77.1496 41.9009 76.7417 42.3088 76.7417 42.8158Z" fill="#30A5C6"/>
<path d="M74.9146 44.6418C74.9146 45.145 75.3225 45.5567 75.8295 45.5567C76.3365 45.5567 76.7444 45.1488 76.7444 44.6418C76.7444 44.1347 76.3365 43.7268 75.8295 43.7268C75.3225 43.7268 74.9146 44.1347 74.9146 44.6418Z" fill="#30A5C6"/>
<path d="M73.0894 44.6418C73.0894 45.145 73.4973 45.5567 74.0043 45.5567C74.5113 45.5567 74.9192 45.1488 74.9192 44.6418C74.9192 44.1347 74.5113 43.7268 74.0043 43.7268C73.4973 43.7268 73.0894 44.1347 73.0894 44.6418Z" fill="#30A5C6"/>
<path d="M72.1742 43.7308C72.6795 43.7308 73.0892 43.3211 73.0892 42.8158C73.0892 42.3105 72.6795 41.9009 72.1742 41.9009C71.6689 41.9009 71.2593 42.3105 71.2593 42.8158C71.2593 43.3211 71.6689 43.7308 72.1742 43.7308Z" fill="#30A5C6"/>
<path d="M63.0443 43.7308C63.5497 43.7308 63.9593 43.3211 63.9593 42.8158C63.9593 42.3105 63.5497 41.9009 63.0443 41.9009C62.539 41.9009 62.1294 42.3105 62.1294 42.8158C62.1294 43.3211 62.539 43.7308 63.0443 43.7308Z" fill="#30A5C6"/>
<path d="M60.3032 44.6418C60.3032 45.145 60.7111 45.5567 61.2182 45.5567C61.7252 45.5567 62.1331 45.1488 62.1331 44.6418C62.1331 44.1347 61.7252 43.7268 61.2182 43.7268C60.7111 43.7268 60.3032 44.1347 60.3032 44.6418Z" fill="#30A5C6"/>
<path d="M58.4771 44.6418C58.4771 45.145 58.885 45.5567 59.392 45.5567C59.899 45.5567 60.3069 45.1488 60.3069 44.6418C60.3069 44.1347 59.899 43.7268 59.392 43.7268C58.885 43.7268 58.4771 44.1347 58.4771 44.6418Z" fill="#30A5C6"/>
<path d="M56.6509 42.8157C56.6509 43.3189 57.0588 43.7307 57.5658 43.7307C58.0729 43.7307 58.4808 43.3227 58.4808 42.8157C58.4808 42.3087 58.0729 41.9008 57.5658 41.9008C57.0588 41.9008 56.6509 42.3087 56.6509 42.8157Z" fill="#30A5C6"/>
<path d="M76.7417 40.9894C76.7417 41.4926 77.1496 41.9044 77.6566 41.9044C78.1637 41.9044 78.5716 41.4964 78.5716 40.9894C78.5716 40.4824 78.1637 40.0745 77.6566 40.0745C77.1496 40.0745 76.7417 40.4824 76.7417 40.9894Z" fill="#30A5C6"/>
<path d="M71.2632 40.9894C71.2632 41.4926 71.6711 41.9044 72.1781 41.9044C72.6852 41.9044 73.0931 41.4964 73.0931 40.9894C73.0931 40.4824 72.6852 40.0745 72.1781 40.0745C71.6711 40.0745 71.2632 40.4824 71.2632 40.9894Z" fill="#30A5C6"/>
<path d="M62.1294 40.9894C62.1294 41.4926 62.5373 41.9044 63.0443 41.9044C63.5514 41.9044 63.9593 41.4964 63.9593 40.9894C63.9593 40.4824 63.5514 40.0745 63.0443 40.0745C62.5373 40.0745 62.1294 40.4824 62.1294 40.9894Z" fill="#30A5C6"/>
<path d="M56.6509 40.9893C56.6509 41.4925 57.0588 41.9042 57.5658 41.9042C58.0729 41.9042 58.4808 41.4963 58.4808 40.9893C58.4808 40.4823 58.0729 40.0743 57.5658 40.0743C57.0588 40.0743 56.6509 40.4823 56.6509 40.9893Z" fill="#30A5C6"/>
<path d="M76.7417 39.1632C76.7417 39.6665 77.1496 40.0782 77.6566 40.0782C78.1637 40.0782 78.5716 39.6703 78.5716 39.1632C78.5716 38.6562 78.1637 38.2483 77.6566 38.2483C77.1496 38.2483 76.7417 38.6562 76.7417 39.1632Z" fill="#30A5C6"/>
<path d="M75.8266 40.0782C76.3319 40.0782 76.7415 39.6686 76.7415 39.1632C76.7415 38.6579 76.3319 38.2483 75.8266 38.2483C75.3213 38.2483 74.9116 38.6579 74.9116 39.1632C74.9116 39.6686 75.3213 40.0782 75.8266 40.0782Z" fill="#30A5C6"/>
<path d="M73.0894 39.1632C73.0894 39.6665 73.4973 40.0782 74.0043 40.0782C74.5113 40.0782 74.9192 39.6703 74.9192 39.1632C74.9192 38.6562 74.5113 38.2483 74.0043 38.2483C73.4973 38.2483 73.0894 38.6562 73.0894 39.1632Z" fill="#30A5C6"/>
<path d="M72.1742 40.0782C72.6795 40.0782 73.0892 39.6686 73.0892 39.1632C73.0892 38.6579 72.6795 38.2483 72.1742 38.2483C71.6689 38.2483 71.2593 38.6579 71.2593 39.1632C71.2593 39.6686 71.6689 40.0782 72.1742 40.0782Z" fill="#30A5C6"/>
<path d="M63.0443 40.0782C63.5497 40.0782 63.9593 39.6686 63.9593 39.1632C63.9593 38.6579 63.5497 38.2483 63.0443 38.2483C62.539 38.2483 62.1294 38.6579 62.1294 39.1632C62.1294 39.6686 62.539 40.0782 63.0443 40.0782Z" fill="#30A5C6"/>
<path d="M60.3032 39.1632C60.3032 39.6665 60.7111 40.0782 61.2182 40.0782C61.7252 40.0782 62.1331 39.6703 62.1331 39.1632C62.1331 38.6562 61.7252 38.2483 61.2182 38.2483C60.7111 38.2483 60.3032 38.6562 60.3032 39.1632Z" fill="#30A5C6"/>
<path d="M59.392 40.0782C59.8973 40.0782 60.3069 39.6686 60.3069 39.1632C60.3069 38.6579 59.8973 38.2483 59.392 38.2483C58.8867 38.2483 58.4771 38.6579 58.4771 39.1632C58.4771 39.6686 58.8867 40.0782 59.392 40.0782Z" fill="#30A5C6"/>
<path d="M56.6509 39.1632C56.6509 39.6665 57.0588 40.0782 57.5658 40.0782C58.0729 40.0782 58.4808 39.6703 58.4808 39.1632C58.4808 38.6562 58.0729 38.2483 57.5658 38.2483C57.0588 38.2483 56.6509 38.6562 56.6509 39.1632Z" fill="#30A5C6"/>
<path d="M74.9146 37.3373C74.9146 37.8405 75.3225 38.2523 75.8295 38.2523C76.3365 38.2523 76.7444 37.8443 76.7444 37.3373C76.7444 36.8303 76.3365 36.4224 75.8295 36.4224C75.3225 36.4224 74.9146 36.8303 74.9146 37.3373Z" fill="#30A5C6"/>
<path d="M73.0884 37.3373C73.0884 37.8405 73.4963 38.2523 74.0033 38.2523C74.5104 38.2523 74.9183 37.8443 74.9183 37.3373C74.9183 36.8303 74.5104 36.4224 74.0033 36.4224C73.4963 36.4224 73.0884 36.8303 73.0884 37.3373Z" fill="#30A5C6"/>
<path d="M60.3013 37.3373C60.3013 37.8405 60.7092 38.2523 61.2162 38.2523C61.7233 38.2523 62.1312 37.8443 62.1312 37.3373C62.1312 36.8303 61.7233 36.4224 61.2162 36.4224C60.7092 36.4224 60.3013 36.8303 60.3013 37.3373Z" fill="#30A5C6"/>
<path d="M58.4761 37.3373C58.4761 37.8405 58.884 38.2523 59.391 38.2523C59.8981 38.2523 60.306 37.8443 60.306 37.3373C60.306 36.8303 59.8981 36.4224 59.391 36.4224C58.884 36.4224 58.4761 36.8303 58.4761 37.3373Z" fill="#30A5C6"/>
<path d="M75.827 20.7462C73.8217 18.7181 72.1862 19.0497 71.542 19.3738C70.4707 19.9151 70.2115 21.3066 70.1391 22.5037C69.8989 26.4303 70.9701 30.5323 75.2894 31.5693C78.7891 32.408 81.1604 30.2045 79.8832 26.7315C78.9988 24.3336 77.5921 22.5265 75.827 20.7424V20.7462Z" fill="white"/>
<path d="M66.5097 16.7471C65.3698 16.8233 64.291 17.6125 64.4587 19.0306C64.5998 20.2391 65.8388 21.2075 67.0396 21.0359C68.2443 20.8643 69.1631 19.5644 68.9076 18.3749C68.6522 17.1969 67.5543 16.6746 66.5097 16.7433V16.7471Z" fill="white"/>
<path d="M47.9079 22.4815L15.8232 18.0535L10.0002 60.2221L42.0848 64.6501L47.9079 22.4815Z" fill="white"/>
<path d="M24.192 28.2231L14.6016 26.8995L9.99985 60.2236L19.5903 61.5472L24.192 28.2231Z" fill="#FED070"/>
<g style="mix-blend-mode:multiply">
<path d="M47.9053 22.4812L25.4131 19.3771L24.1917 28.2216L46.684 31.3258L47.9053 22.4812Z" fill="#CCE8FB"/>
</g>
<path d="M46.6861 31.3279L24.1938 28.2238L24.0717 29.1084L46.5639 32.2126L46.6861 31.3279Z" fill="#FED070"/>
<path d="M42.2369 63.7771L19.7446 60.673L19.6225 61.5576L42.1147 64.6618L42.2369 63.7771Z" fill="#FED070"/>
<path d="M31.8659 24.7729L28.1823 24.2645C27.6947 24.1979 27.3538 23.7485 27.4204 23.2611C27.4871 22.7736 27.9366 22.4328 28.4242 22.4994L32.1078 23.0078C32.5954 23.0745 32.9364 23.5238 32.8697 24.0113C32.803 24.4987 32.3535 24.8396 31.8659 24.7729Z" fill="white"/>
<path d="M39.5384 25.8318L34.2472 25.1025C33.7596 25.0359 33.4187 24.5865 33.4854 24.0991C33.552 23.6116 34.0015 23.2708 34.4891 23.3374L39.7803 24.0667C40.2679 24.1333 40.6088 24.5827 40.5422 25.0702C40.4755 25.5576 40.026 25.8985 39.5384 25.8318Z" fill="white"/>
<path d="M31.1805 26.1494L27.2702 25.6105C27.1787 25.5972 27.1159 25.5134 27.1273 25.422C27.1406 25.3306 27.2245 25.2677 27.3159 25.2792L31.2262 25.818C31.3176 25.8314 31.3804 25.9151 31.369 26.0065C31.3557 26.0979 31.2719 26.1608 31.1805 26.1494Z" fill="white"/>
<path d="M35.9285 26.8046L32.0182 26.2658C31.9268 26.2524 31.8639 26.1687 31.8754 26.0773C31.8887 25.9859 31.9725 25.923 32.0639 25.9344L35.9742 26.4733C36.0656 26.4866 36.1285 26.5704 36.1171 26.6618C36.1037 26.7532 36.0199 26.8161 35.9285 26.8046Z" fill="white"/>
<path d="M40.0579 27.3736L36.8791 26.9357C36.7876 26.9224 36.7248 26.8386 36.7362 26.7472C36.7495 26.6558 36.8333 26.5929 36.9248 26.6044L40.1037 27.0423C40.1951 27.0556 40.2579 27.1394 40.2465 27.2308C40.2332 27.3222 40.1494 27.3851 40.0579 27.3736Z" fill="white"/>
<path d="M29.1919 26.8977L27.131 26.614C27.0396 26.6007 26.9767 26.5169 26.9882 26.4255C27.0015 26.3341 27.0853 26.2713 27.1767 26.2827L29.2376 26.5664C29.329 26.5798 29.3918 26.6635 29.3804 26.7549C29.3671 26.8463 29.2833 26.9092 29.1919 26.8977Z" fill="white"/>
<path d="M32.2373 27.3186L30.1764 27.0349C30.085 27.0216 30.0221 26.9378 30.0336 26.8464C30.0469 26.755 30.1307 26.6922 30.2221 26.7036L32.283 26.9873C32.3744 27.0007 32.4373 27.0844 32.4258 27.1758C32.4125 27.2672 32.3287 27.3301 32.2373 27.3186Z" fill="white"/>
<path d="M37.2675 28.0123L33.361 27.4734C33.2696 27.4601 33.2067 27.3763 33.2181 27.2849C33.2315 27.1935 33.3153 27.1307 33.4067 27.1421L37.3132 27.681C37.4046 27.6943 37.4675 27.7781 37.456 27.8695C37.4427 27.9609 37.3589 28.0237 37.2675 28.0123Z" fill="white"/>
<path d="M39.9195 28.3773L38.2853 28.1526C38.1939 28.1393 38.131 28.0555 38.1425 27.9641C38.1558 27.8727 38.2396 27.8099 38.331 27.8213L39.9652 28.046C40.0566 28.0593 40.1195 28.1431 40.1081 28.2345C40.0947 28.3259 40.0109 28.3887 39.9195 28.3773Z" fill="white"/>
<path d="M30.4518 34.5004L26.153 33.9082C26.0616 33.8949 25.9987 33.8111 26.0101 33.7197C26.0235 33.6283 26.1073 33.5655 26.1987 33.5769L30.4975 34.1691C30.589 34.1824 30.6518 34.2662 30.6404 34.3576C30.627 34.449 30.5432 34.5118 30.4518 34.5004Z" fill="#6DAFDC"/>
<path d="M32.9207 34.8414L31.4694 34.6415C31.378 34.6282 31.3151 34.5444 31.3265 34.453C31.3399 34.3616 31.4237 34.2988 31.5151 34.3102L32.9665 34.5101C33.0579 34.5234 33.1207 34.6072 33.1093 34.6986C33.096 34.79 33.0122 34.8529 32.9207 34.8414Z" fill="#6DAFDC"/>
<path d="M37.5342 35.4791L33.9381 34.984C33.8467 34.9707 33.7839 34.8869 33.7953 34.7955C33.8086 34.7041 33.8924 34.6413 33.9838 34.6527L37.5799 35.1478C37.6713 35.1611 37.7341 35.2449 37.7227 35.3363C37.7094 35.4277 37.6256 35.4905 37.5342 35.4791Z" fill="#6DAFDC"/>
<path d="M40.7792 35.9265L38.7145 35.6409C38.6231 35.6276 38.5602 35.5438 38.5717 35.4524C38.585 35.361 38.6688 35.2981 38.7602 35.3096L40.8249 35.5952C40.9163 35.6085 40.9792 35.6923 40.9677 35.7837C40.9544 35.8751 40.8706 35.9379 40.7792 35.9265Z" fill="#6DAFDC"/>
<path d="M29.8001 36.4814L25.8708 35.9387C25.7793 35.9254 25.7165 35.8416 25.7279 35.7502C25.7412 35.6588 25.825 35.596 25.9165 35.6074L29.8458 36.1501C29.9372 36.1634 30.0001 36.2472 29.9886 36.3386C29.9753 36.43 29.8915 36.4928 29.8001 36.4814Z" fill="#6DAFDC"/>
<path d="M32.0699 36.7955L30.7614 36.6146C30.67 36.6013 30.6071 36.5175 30.6185 36.4261C30.6319 36.3347 30.7157 36.2719 30.8071 36.2833L32.1156 36.4642C32.207 36.4775 32.2699 36.5613 32.2584 36.6527C32.2451 36.7441 32.1613 36.807 32.0699 36.7955Z" fill="#6DAFDC"/>
<path d="M36.3156 37.3795L33.0338 36.9263C32.9424 36.913 32.8796 36.8292 32.891 36.7378C32.9043 36.6464 32.9881 36.5835 33.0795 36.595L36.3613 37.0481C36.4527 37.0615 36.5156 37.1453 36.5041 37.2367C36.4908 37.3281 36.407 37.3909 36.3156 37.3795Z" fill="#6DAFDC"/>
<path d="M38.997 36.342L40.6903 36.5762C40.7817 36.5896 40.8446 36.6734 40.8331 36.7648C40.8198 36.8561 40.736 36.919 40.6446 36.9076L38.9513 36.6734C38.8599 36.66 38.797 36.5762 38.8085 36.4848C38.8218 36.3934 38.9056 36.3306 38.997 36.342Z" fill="#6DAFDC"/>
<path d="M35.9047 35.9152L37.8056 36.1779C37.897 36.1913 37.9599 36.275 37.9485 36.3664C37.9351 36.4578 37.8513 36.5207 37.7599 36.5092L35.859 36.2465C35.7676 36.2331 35.7048 36.1494 35.7162 36.058C35.7295 35.9666 35.8133 35.9037 35.9047 35.9152Z" fill="#6DAFDC"/>
<path d="M30.1259 35.1177L34.7124 35.7498C34.8038 35.7632 34.8667 35.847 34.8552 35.9383C34.8419 36.0297 34.7581 36.0926 34.6667 36.0812L30.0802 35.449C29.9888 35.4357 29.9259 35.3519 29.9374 35.2605C29.9507 35.1691 30.0345 35.1062 30.1259 35.1177Z" fill="#6DAFDC"/>
<path d="M26.0634 34.5581L28.9757 34.9599C29.0671 34.9732 29.13 35.057 29.1185 35.1484C29.1052 35.2398 29.0214 35.3026 28.93 35.2912L26.0177 34.8894C25.9263 34.8761 25.8634 34.7923 25.8749 34.7009C25.8882 34.6095 25.972 34.5467 26.0634 34.5581Z" fill="#6DAFDC"/>
<path d="M30.6403 33.2423L26.5644 32.6806C26.3415 32.6502 26.1872 32.4445 26.2177 32.2217C26.2482 31.9989 26.4539 31.8447 26.8291 31.8752L30.9051 32.4369C30.9737 32.4674 31.1298 32.673 31.0994 32.8958C31.0689 33.1186 30.8632 33.2728 30.6403 33.2423Z" fill="#6D95B8"/>
<path d="M34.6479 33.7756L32.0632 33.4195C31.688 33.389 31.5318 33.1834 31.5623 32.9606C31.5928 32.7378 31.7985 32.5836 32.0213 32.6141L34.606 32.9701C34.8288 33.0006 34.9831 33.2062 34.9526 33.429C34.9221 33.6518 34.7164 33.806 34.6479 33.7756Z" fill="#6D95B8"/>
<path d="M29.4479 41.7932L25.1491 41.2011C25.0576 41.1877 24.9948 41.104 25.0062 41.0126C25.0196 40.9212 25.1034 40.8583 25.1948 40.8697L29.4936 41.4619C29.585 41.4753 29.6479 41.559 29.6365 41.6504C29.6231 41.7418 29.5393 41.8047 29.4479 41.7932Z" fill="#6DAFDC"/>
<path d="M31.9163 42.1327L30.465 41.9328C30.3736 41.9194 30.3107 41.8356 30.3221 41.7442C30.3355 41.6528 30.4193 41.59 30.5107 41.6014L31.9621 41.8014C32.0535 41.8147 32.1163 41.8985 32.1049 41.9899C32.0916 42.0813 32.0078 42.1441 31.9163 42.1327Z" fill="#6DAFDC"/>
<path d="M36.5293 42.7704L32.9333 42.2753C32.8418 42.262 32.779 42.1782 32.7904 42.0868C32.8037 41.9954 32.8875 41.9325 32.979 41.944L36.575 42.439C36.6664 42.4524 36.7293 42.5361 36.7178 42.6275C36.7045 42.7189 36.6207 42.7818 36.5293 42.7704Z" fill="#6DAFDC"/>
<path d="M39.7728 43.2176L37.7082 42.932C37.6167 42.9187 37.5539 42.8349 37.5653 42.7435C37.5786 42.6521 37.6624 42.5893 37.7539 42.6007L39.8185 42.8863C39.91 42.8997 39.9728 42.9834 39.9614 43.0748C39.948 43.1662 39.8642 43.2291 39.7728 43.2176Z" fill="#6DAFDC"/>
<path d="M37.9912 43.6333L39.6844 43.8675C39.7758 43.8808 39.8387 43.9646 39.8273 44.056C39.8139 44.1474 39.7301 44.2102 39.6387 44.1988L37.9455 43.9646C37.854 43.9513 37.7912 43.8675 37.8026 43.7761C37.8159 43.6847 37.8997 43.6219 37.9912 43.6333Z" fill="#6DAFDC"/>
<path d="M34.8989 43.2064L36.7997 43.4692C36.8912 43.4825 36.954 43.5663 36.9426 43.6577C36.9293 43.7491 36.8455 43.8119 36.754 43.8005L34.8532 43.5377C34.7618 43.5244 34.6989 43.4406 34.7103 43.3492C34.7237 43.2578 34.8075 43.195 34.8989 43.2064Z" fill="#6DAFDC"/>
<path d="M29.1215 42.4094L33.708 43.0416C33.7994 43.0549 33.8623 43.1387 33.8508 43.2301C33.8375 43.3215 33.7537 43.3843 33.6623 43.3729L29.0758 42.7407C28.9844 42.7274 28.9216 42.6436 28.933 42.5522C28.9463 42.4608 29.0301 42.398 29.1215 42.4094Z" fill="#6DAFDC"/>
<path d="M25.0571 41.8486L27.9693 42.2504C28.0608 42.2637 28.1236 42.3475 28.1122 42.4389C28.0988 42.5303 28.015 42.5931 27.9236 42.5817L25.0114 42.1799C24.92 42.1666 24.8571 42.0828 24.8685 41.9914C24.8819 41.9 24.9657 41.8372 25.0571 41.8486Z" fill="#6DAFDC"/>
<path d="M29.6753 39.6994L33.7513 40.2611C33.9741 40.2916 34.1284 40.4972 34.0979 40.72C34.0674 40.9428 33.8617 41.097 33.6389 41.0666L29.5629 40.5048C29.34 40.4744 29.1858 40.2687 29.2162 40.0459C29.2467 39.8232 29.4524 39.6689 29.6753 39.6994Z" fill="#6D95B8"/>
<path d="M25.8223 39.1664L28.4069 39.5225C28.4755 39.553 28.6317 39.7586 28.6012 39.9814C28.5707 40.2042 28.365 40.3584 28.1422 40.328L25.5575 39.9719C25.3347 39.9414 25.1804 39.7358 25.2109 39.513C25.2413 39.2902 25.447 39.136 25.8223 39.1664Z" fill="#6D95B8"/>
<path d="M28.5832 48.0314L24.2843 47.4392C24.1929 47.4259 24.13 47.3421 24.1415 47.2507C24.1548 47.1593 24.2386 47.0965 24.33 47.1079L28.6289 47.7001C28.7203 47.7134 28.7832 47.7972 28.7717 47.8886C28.7584 47.98 28.6746 48.0428 28.5832 48.0314Z" fill="#6DAFDC"/>
<path d="M31.054 48.3728L29.6027 48.1729C29.5113 48.1595 29.4484 48.0758 29.4598 47.9844C29.4732 47.893 29.557 47.8301 29.6484 47.8415L31.0998 48.0415C31.1912 48.0548 31.254 48.1386 31.2426 48.23C31.2293 48.3214 31.1455 48.3842 31.054 48.3728Z" fill="#6DAFDC"/>
<path d="M35.666 49.0082L32.07 48.5131C31.9785 48.4997 31.9157 48.416 31.9271 48.3246C31.9405 48.2332 32.0243 48.1703 32.1157 48.1818L35.7117 48.6768C35.8031 48.6902 35.866 48.7739 35.8546 48.8653C35.8412 48.9567 35.7574 49.0196 35.666 49.0082Z" fill="#6DAFDC"/>
<path d="M38.9095 49.4559L36.8449 49.1703C36.7534 49.157 36.6906 49.0732 36.702 48.9818C36.7154 48.8904 36.7992 48.8276 36.8906 48.839L38.9552 49.1246C39.0467 49.1379 39.1095 49.2217 39.0981 49.3131C39.0848 49.4045 39.001 49.4673 38.9095 49.4559Z" fill="#6DAFDC"/>
<path d="M27.9334 50.0122L24.0041 49.4695C23.9126 49.4562 23.8498 49.3724 23.8612 49.281C23.8745 49.1896 23.9583 49.1268 24.0498 49.1382L27.9791 49.6809C28.0705 49.6942 28.1334 49.778 28.122 49.8694C28.1086 49.9608 28.0248 50.0236 27.9334 50.0122Z" fill="#6DAFDC"/>
<path d="M30.2027 50.3243L28.8942 50.1434C28.8028 50.1301 28.7399 50.0463 28.7513 49.9549C28.7647 49.8635 28.8485 49.8007 28.9399 49.8121L30.2484 49.993C30.3398 50.0064 30.4027 50.0901 30.3913 50.1815C30.3779 50.2729 30.2941 50.3358 30.2027 50.3243Z" fill="#6DAFDC"/>
<path d="M34.4474 50.9103L31.1657 50.4572C31.0743 50.4438 31.0114 50.3601 31.0228 50.2687C31.0362 50.1773 31.12 50.1144 31.2114 50.1259L34.4931 50.579C34.5846 50.5924 34.6474 50.6761 34.636 50.7675C34.6227 50.8589 34.5388 50.9218 34.4474 50.9103Z" fill="#6DAFDC"/>
<path d="M37.1284 49.8708L38.8216 50.1051C38.9131 50.1184 38.9759 50.2022 38.9645 50.2936C38.9511 50.385 38.8673 50.4478 38.7759 50.4364L37.0827 50.2022C36.9912 50.1888 36.9284 50.1051 36.9398 50.0137C36.9531 49.9223 37.037 49.8594 37.1284 49.8708Z" fill="#6DAFDC"/>
<path d="M34.0356 49.4442L35.9365 49.707C36.0279 49.7203 36.0907 49.8041 36.0793 49.8955C36.066 49.9869 35.9822 50.0497 35.8908 50.0383L33.9899 49.7755C33.8985 49.7622 33.8356 49.6784 33.847 49.587C33.8604 49.4956 33.9442 49.4328 34.0356 49.4442Z" fill="#6DAFDC"/>
<path d="M28.2587 48.6471L32.8452 49.2793C32.9366 49.2926 32.9995 49.3764 32.988 49.4678C32.9747 49.5592 32.8909 49.622 32.7995 49.6106L28.213 48.9784C28.1216 48.9651 28.0588 48.8813 28.0702 48.7899C28.0835 48.6985 28.1673 48.6357 28.2587 48.6471Z" fill="#6DAFDC"/>
<path d="M24.1943 48.0868L27.1065 48.4886C27.198 48.5019 27.2608 48.5857 27.2494 48.6771C27.2361 48.7685 27.1522 48.8313 27.0608 48.8199L24.1486 48.4181C24.0572 48.4048 23.9943 48.321 24.0057 48.2296C24.0191 48.1382 24.1029 48.0754 24.1943 48.0868Z" fill="#6DAFDC"/>
<path d="M28.926 46.773L24.85 46.2113C24.6272 46.1808 24.4729 45.9751 24.5033 45.7524C24.5338 45.5296 24.7395 45.3753 24.9624 45.4058L29.0384 45.9675C29.2612 45.998 29.4155 46.2036 29.385 46.4264C29.3545 46.6492 29.1488 46.8034 28.926 46.773Z" fill="#6D95B8"/>
<path d="M32.627 47.3046L30.0424 46.9486C29.8195 46.9181 29.6653 46.7125 29.6957 46.4897C29.7262 46.2669 29.9319 46.1127 30.1548 46.1431L32.7394 46.4992C32.9622 46.5297 33.1165 46.7353 33.086 46.9581C33.0556 47.1809 32.8499 47.3351 32.627 47.3046Z" fill="#6D95B8"/>
<path d="M27.6203 55.0025L23.3214 54.4103C23.23 54.397 23.1672 54.3132 23.1786 54.2218C23.1919 54.1304 23.2757 54.0676 23.3671 54.079L27.666 54.6712C27.7574 54.6845 27.8203 54.7683 27.8088 54.8597C27.7955 54.9511 27.7117 55.0139 27.6203 55.0025Z" fill="#6DAFDC"/>
<path d="M30.0887 55.3431L28.6374 55.1432C28.5459 55.1299 28.4831 55.0461 28.4945 54.9547C28.5078 54.8633 28.5916 54.8005 28.6831 54.8119L30.1344 55.0118C30.2258 55.0251 30.2887 55.1089 30.2773 55.2003C30.2639 55.2917 30.1801 55.3546 30.0887 55.3431Z" fill="#6DAFDC"/>
<path d="M34.7016 55.9792L31.1056 55.4841C31.0142 55.4708 30.9513 55.387 30.9628 55.2956C30.9761 55.2042 31.0599 55.1414 31.1513 55.1528L34.7473 55.6479C34.8388 55.6612 34.9016 55.745 34.8902 55.8364C34.8769 55.9278 34.7931 55.9906 34.7016 55.9792Z" fill="#6DAFDC"/>
<path d="M37.9471 56.427L35.8825 56.1414C35.791 56.128 35.7282 56.0443 35.7396 55.9529C35.753 55.8615 35.8368 55.7986 35.9282 55.8101L37.9928 56.0957C38.0843 56.109 38.1471 56.1928 38.1357 56.2842C38.1224 56.3756 38.0386 56.4384 37.9471 56.427Z" fill="#6DAFDC"/>
<path d="M26.9695 56.9828L23.0402 56.4401C22.9488 56.4268 22.8859 56.343 22.8973 56.2516C22.9107 56.1602 22.9945 56.0973 23.0859 56.1088L27.0152 56.6514C27.1067 56.6648 27.1695 56.7485 27.1581 56.8399C27.1447 56.9313 27.0609 56.9942 26.9695 56.9828Z" fill="#6DAFDC"/>
<path d="M29.2413 57.2969L27.9328 57.116C27.8413 57.1027 27.7785 57.0189 27.7899 56.9275C27.8032 56.8361 27.8871 56.7732 27.9785 56.7847L29.287 56.9656C29.3784 56.9789 29.4413 57.0627 29.4298 57.1541C29.4165 57.2455 29.3327 57.3083 29.2413 57.2969Z" fill="#6DAFDC"/>
<path d="M33.485 57.8813L30.2033 57.4281C30.1118 57.4148 30.049 57.331 30.0604 57.2396C30.0738 57.1482 30.1576 57.0854 30.249 57.0968L33.5307 57.55C33.6222 57.5633 33.685 57.6471 33.6736 57.7385C33.6602 57.8299 33.5764 57.8927 33.485 57.8813Z" fill="#6DAFDC"/>
<path d="M36.1655 56.8419L37.8587 57.0761C37.9502 57.0895 38.013 57.1732 38.0016 57.2646C37.9883 57.356 37.9045 57.4189 37.813 57.4074L36.1198 57.1732C36.0284 57.1599 35.9655 57.0761 35.9769 56.9847C35.9903 56.8933 36.0741 56.8305 36.1655 56.8419Z" fill="#6DAFDC"/>
<path d="M33.0732 56.4156L34.9741 56.6784C35.0655 56.6917 35.1283 56.7755 35.1169 56.8669C35.1036 56.9583 35.0198 57.0212 34.9284 57.0097L33.0275 56.747C32.9361 56.7336 32.8732 56.6499 32.8846 56.5585C32.898 56.4671 32.9818 56.4042 33.0732 56.4156Z" fill="#6DAFDC"/>
<path d="M27.2963 55.6197L31.8828 56.2519C31.9742 56.2652 32.0371 56.349 32.0256 56.4404C32.0123 56.5318 31.9285 56.5947 31.8371 56.5832L27.2506 55.9511C27.1592 55.9377 27.0964 55.854 27.1078 55.7626C27.1211 55.6712 27.2049 55.6083 27.2963 55.6197Z" fill="#6DAFDC"/>
<path d="M23.2319 55.0579L26.1441 55.4596C26.2356 55.473 26.2984 55.5567 26.287 55.6481C26.2737 55.7395 26.1898 55.8024 26.0984 55.7909L23.1862 55.3892C23.0948 55.3758 23.0319 55.2921 23.0433 55.2007C23.0567 55.1093 23.1405 55.0464 23.2319 55.0579Z" fill="#6DAFDC"/>
<path d="M27.8112 53.7438L23.7353 53.1821C23.5124 53.1516 23.3581 52.946 23.3886 52.7232C23.4191 52.5004 23.6248 52.3462 23.8476 52.3766L27.9236 52.9384C28.1465 52.9688 28.3007 53.1745 28.2703 53.3972C28.2398 53.62 28.0341 53.7743 27.8112 53.7438Z" fill="#6D95B8"/>
<path d="M31.6622 54.275L29.0775 53.9189C28.8547 53.8884 28.7004 53.6828 28.7309 53.46C28.7614 53.2372 28.9671 53.083 29.1899 53.1135L31.7746 53.4695C31.9974 53.5 32.1517 53.7056 32.1212 53.9284C32.0907 54.1512 31.885 54.3054 31.6622 54.275Z" fill="#6D95B8"/>
<path d="M20.1585 33.3715L16.2482 32.8327C16.1568 32.8193 16.0939 32.7355 16.1053 32.6441C16.1187 32.5528 16.2025 32.4899 16.2939 32.5013L20.2042 33.0402C20.2956 33.0535 20.3585 33.1373 20.347 33.2287C20.3337 33.3201 20.2499 33.3829 20.1585 33.3715Z" fill="white"/>
<path d="M19.9173 35.363L16.007 34.8241C15.9156 34.8108 15.8527 34.727 15.8641 34.6356C15.8775 34.5442 15.9613 34.4814 16.0527 34.4928L19.963 35.0317C20.0544 35.045 20.1173 35.1288 20.1058 35.2202C20.0925 35.3116 20.0087 35.3744 19.9173 35.363Z" fill="white"/>
<path d="M18.1699 34.1214L16.109 33.8377C16.0176 33.8243 15.9548 33.7406 15.9662 33.6492C15.9795 33.5578 16.0633 33.4949 16.1547 33.5063L18.2156 33.7901C18.307 33.8034 18.3699 33.8872 18.3584 33.9786C18.3451 34.07 18.2613 34.1328 18.1699 34.1214Z" fill="white"/>
<path d="M21.2163 34.5407L19.1554 34.257C19.064 34.2436 19.0011 34.1599 19.0126 34.0685C19.0259 33.9771 19.1097 33.9142 19.2011 33.9257L21.262 34.2094C21.3534 34.2227 21.4163 34.3065 21.4048 34.3979C21.3915 34.4893 21.3077 34.5521 21.2163 34.5407Z" fill="white"/>
<path d="M19.7758 36.3686L15.8693 35.8297C15.7779 35.8164 15.715 35.7326 15.7264 35.6412C15.7398 35.5498 15.8236 35.487 15.915 35.4984L19.8215 36.0373C19.9129 36.0506 19.9758 36.1344 19.9643 36.2258C19.951 36.3172 19.8672 36.38 19.7758 36.3686Z" fill="white"/>
<path d="M19.1284 31.6716L16.7323 31.3403C16.5095 31.3098 16.3552 31.1042 16.3857 30.8814C16.4161 30.6586 16.6219 30.5044 16.8447 30.5348L19.2408 30.8662C19.4636 30.8966 19.6179 31.1023 19.5874 31.3251C19.5569 31.5478 19.3512 31.7021 19.1284 31.6716Z" fill="white"/>
<path d="M19.1907 40.3803L15.2804 39.8414C15.189 39.8281 15.1261 39.7443 15.1376 39.6529C15.1509 39.5615 15.2347 39.4987 15.3261 39.5101L19.2364 40.049C19.3278 40.0623 19.3907 40.1461 19.3793 40.2375C19.3659 40.3289 19.2821 40.3917 19.1907 40.3803Z" fill="white"/>
<path d="M18.949 42.3724L15.0387 41.8335C14.9473 41.8202 14.8844 41.7364 14.8959 41.645C14.9092 41.5536 14.993 41.4908 15.0844 41.5022L18.9947 42.0411C19.0861 42.0544 19.149 42.1382 19.1376 42.2296C19.1242 42.321 19.0404 42.3838 18.949 42.3724Z" fill="white"/>
<path d="M17.2021 41.128L15.1413 40.8443C15.0498 40.8309 14.987 40.7471 14.9984 40.6557C15.0117 40.5643 15.0955 40.5015 15.187 40.5129L17.2478 40.7967C17.3392 40.81 17.4021 40.8938 17.3907 40.9852C17.3773 41.0766 17.2935 41.1394 17.2021 41.128Z" fill="white"/>
<path d="M20.248 41.5496L18.1872 41.2659C18.0957 41.2526 18.0329 41.1688 18.0443 41.0774C18.0576 40.986 18.1414 40.9231 18.2329 40.9346L20.2937 41.2183C20.3851 41.2316 20.448 41.3154 20.4366 41.4068C20.4232 41.4982 20.3394 41.561 20.248 41.5496Z" fill="white"/>
<path d="M18.808 43.3758L14.9015 42.8369C14.8101 42.8236 14.7472 42.7398 14.7587 42.6484C14.772 42.557 14.8558 42.4942 14.9472 42.5056L18.8537 43.0445C18.9451 43.0578 19.008 43.1416 18.9966 43.233C18.9832 43.3244 18.8994 43.3872 18.808 43.3758Z" fill="white"/>
<path d="M18.1601 38.6805L15.7641 38.3492C15.5412 38.3187 15.3869 38.1131 15.4174 37.8903C15.4479 37.6675 15.6536 37.5133 15.8764 37.5438L18.2725 37.8751C18.4954 37.9055 18.6496 38.1112 18.6192 38.334C18.5887 38.5567 18.383 38.711 18.1601 38.6805Z" fill="white"/>
<path d="M18.2229 47.3898L14.3126 46.851C14.2212 46.8376 14.1584 46.7539 14.1698 46.6625C14.1831 46.5711 14.2669 46.5082 14.3584 46.5197L18.2686 47.0585C18.3601 47.0718 18.4229 47.1556 18.4115 47.247C18.3982 47.3384 18.3144 47.4013 18.2229 47.3898Z" fill="white"/>
<path d="M17.9807 49.3817L14.0705 48.8428C13.979 48.8295 13.9162 48.7457 13.9276 48.6543C13.9409 48.5629 14.0247 48.5 14.1162 48.5115L18.0265 49.0503C18.1179 49.0637 18.1807 49.1474 18.1693 49.2388C18.156 49.3302 18.0722 49.3931 17.9807 49.3817Z" fill="white"/>
<path d="M16.2343 48.1385L14.1735 47.8548C14.0821 47.8414 14.0192 47.7576 14.0306 47.6662C14.044 47.5748 14.1278 47.512 14.2192 47.5234L16.2801 47.8071C16.3715 47.8205 16.4343 47.9043 16.4229 47.9957C16.4096 48.0871 16.3258 48.1499 16.2343 48.1385Z" fill="white"/>
<path d="M19.2798 48.5589L17.2189 48.2752C17.1275 48.2618 17.0646 48.1781 17.076 48.0867C17.0894 47.9953 17.1732 47.9324 17.2646 47.9438L19.3255 48.2276C19.4169 48.2409 19.4797 48.3247 19.4683 48.4161C19.455 48.5075 19.3712 48.5703 19.2798 48.5589Z" fill="white"/>
<path d="M17.1924 45.6881L14.7963 45.3568C14.5734 45.3263 14.4192 45.1207 14.4496 44.8979C14.4801 44.6751 14.6858 44.5209 14.9087 44.5513L17.3047 44.8826C17.5276 44.9131 17.6819 45.1187 17.6514 45.3415C17.6209 45.5643 17.4152 45.7185 17.1924 45.6881Z" fill="white"/>
<path d="M17.3528 53.6909L13.4425 53.152C13.3511 53.1387 13.2883 53.0549 13.2997 52.9635C13.313 52.8721 13.3968 52.8093 13.4882 52.8207L17.3985 53.3595C17.49 53.3729 17.5528 53.4567 17.5414 53.5481C17.528 53.6394 17.4442 53.7023 17.3528 53.6909Z" fill="white"/>
<path d="M17.1116 55.6839L13.2013 55.145C13.1099 55.1317 13.047 55.0479 13.0585 54.9565C13.0718 54.8651 13.1556 54.8023 13.247 54.8137L17.1573 55.3526C17.2487 55.3659 17.3116 55.4497 17.3002 55.5411C17.2868 55.6325 17.203 55.6953 17.1116 55.6839Z" fill="white"/>
<path d="M15.3642 54.4413L13.3034 54.1576C13.2119 54.1443 13.1491 54.0605 13.1605 53.9691C13.1739 53.8777 13.2577 53.8149 13.3491 53.8263L15.4099 54.11C15.5014 54.1233 15.5642 54.2071 15.5528 54.2985C15.5395 54.3899 15.4556 54.4527 15.3642 54.4413Z" fill="white"/>
<path d="M18.4106 54.8617L16.3498 54.578C16.2583 54.5647 16.1955 54.4809 16.2069 54.3895C16.2202 54.2981 16.304 54.2353 16.3955 54.2467L18.4563 54.5304C18.5477 54.5437 18.6106 54.6275 18.5992 54.7189C18.5858 54.8103 18.502 54.8732 18.4106 54.8617Z" fill="white"/>
<path d="M16.9701 56.6879L13.0636 56.1491C12.9722 56.1357 12.9093 56.052 12.9208 55.9606C12.9341 55.8692 13.0179 55.8063 13.1093 55.8177L17.0158 56.3566C17.1072 56.3699 17.1701 56.4537 17.1587 56.5451C17.1453 56.6365 17.0615 56.6994 16.9701 56.6879Z" fill="white"/>
<path d="M16.3227 51.9908L13.9267 51.6595C13.7038 51.629 13.5495 51.4234 13.58 51.2006C13.6105 50.9778 13.8162 50.8236 14.039 50.8541L16.4351 51.1854C16.658 51.2158 16.8122 51.4215 16.7818 51.6443C16.7513 51.8671 16.5456 52.0213 16.3227 51.9908Z" fill="white"/>
<g style="mix-blend-mode:multiply">
<path d="M17.7426 20.7938L16.7393 28.0596L22.1902 28.8118L23.1935 21.5461L17.7426 20.7938Z" fill="#CCE8FB"/>
</g>
<path d="M19.3897 24.6363L19.2139 25.9095L20.4082 26.0744L20.584 24.8012L19.3897 24.6363Z" fill="#EFC3A1"/>
<path d="M21.2758 23.7119C21.4206 23.0721 21.4453 22.5751 21.072 22.4533C21.1215 22.2038 20.832 21.8954 20.0759 21.9296C19.2645 21.9677 18.9197 22.5161 19.0112 23.3977C18.8474 23.371 18.735 23.5329 18.7769 23.7195C18.8074 23.8566 18.8702 23.9632 18.9331 24.0337C18.9597 24.0641 19.0054 24.0813 19.0569 24.0889C19.1178 24.4278 19.2169 24.7058 19.2816 24.862C19.3711 25.0771 19.6378 25.1952 19.9102 25.2314C20.1825 25.2695 20.4701 25.2295 20.6149 25.0448C20.7196 24.9115 20.893 24.6716 21.0415 24.3612C21.093 24.3688 21.1406 24.3631 21.1749 24.3402C21.2549 24.2888 21.3444 24.2031 21.411 24.0794C21.5006 23.9118 21.4377 23.7252 21.272 23.7062L21.2758 23.7119Z" fill="#F7D1AF"/>
<path d="M20.5232 25.2195L19.8204 25.9107L19.3309 25.0538C19.0223 25.1262 18.388 25.9602 18.209 26.1125C18.0185 26.2744 17.6147 27.8205 17.6147 27.8205L19.4947 28.0795L19.5442 28.0871L21.4241 28.3461C21.4241 28.3461 21.4546 26.7485 21.3155 26.541C21.1841 26.3448 20.7994 25.3699 20.5232 25.2176V25.2195Z" fill="white"/>
<path d="M21.2313 22.3981C21.2618 22.1258 21.0503 21.5831 20.2389 21.7526C19.5476 21.8973 19.039 22.1315 18.9971 22.6913C18.9533 23.2873 18.9742 23.3997 18.9742 23.3997L19.0714 23.6624C19.0714 23.6624 19.2028 22.6399 19.639 22.6475C20.0732 22.6533 20.9284 22.8399 21.1227 22.7237C21.1113 22.9712 21.1932 23.1598 21.197 23.3692C21.2008 23.5958 21.1856 23.9119 21.1856 23.9119C21.1856 23.9119 21.2808 23.8586 21.336 23.7348C21.3913 23.611 21.8484 22.6057 21.2294 22.4019L21.2313 22.3981Z" fill="#716F53"/>
<path d="M19.9303 26.1625L19.8198 25.9111L19.6465 26.1225L19.7093 26.2386L19.3779 27.741L19.5303 28.0019L19.7493 27.7924L19.837 26.2558L19.9303 26.1625Z" fill="#8DB6D1"/>
<path d="M17.8968 25.416C17.6645 25.5702 17.1235 27.7561 17.1235 27.7561L19.5196 28.0874L19.5844 27.6114L19.2015 25.1151C18.8149 25.3074 18.1159 25.2713 17.8949 25.4179L17.8968 25.416Z" fill="#5F6062"/>
<path d="M19.0129 26.0523L18.7767 26.02L18.7158 25.344C18.6186 25.82 18.7424 26.2408 18.8529 26.6407C19.0262 27.2748 19.2567 27.9641 19.2567 27.9641L18.8396 26.1875L19.011 26.0504L19.0129 26.0523Z" fill="#565759"/>
<path d="M20.6305 25.3099L19.5867 27.6101L19.522 28.0861L21.918 28.4175C21.918 28.4175 21.9904 26.1687 21.8076 25.9554C21.6362 25.7536 20.9524 25.6013 20.6324 25.3099H20.6305Z" fill="#5F6062"/>
<path d="M20.7946 26.2976L20.5584 26.2653L20.688 26.4424L19.8042 28.0399C19.8042 28.0399 20.2137 27.4401 20.5527 26.8765C20.7661 26.5204 21.0003 26.1491 21.0365 25.6636L20.7946 26.2976Z" fill="#565759"/>
<g style="mix-blend-mode:multiply" opacity="0.2">
<path d="M43.1471 57.8298C43.1471 57.8298 39.2216 53.9911 37.814 53.6236C36.4046 53.258 34.7018 53.6502 35.5932 54.5414C37.4026 56.3522 37.7188 57.2871 38.1645 58.2258C38.9473 59.8729 42.3071 63.0699 42.1986 63.8601L43.149 57.8298H43.1471Z" fill="#BFBFBB"/>
</g>
</svg>
