<svg xmlns="http://www.w3.org/2000/svg" width="44" height="44" fill="none"><rect width="44" height="44" fill="#F3F6F9" rx="22"/><path fill="#1772BD" d="M13.772 15.696a1.848 1.848 0 1 0 0-3.696 1.848 1.848 0 0 0 0 3.696ZM11.924 28.633h1.848v-5.544h.924v5.544h1.848v-8.852l2.116 2.116 1.303-1.303-3.973-3.965h-3.142A1.854 1.854 0 0 0 11 18.479v4.62h.924v5.535Z"/><path fill="#1772BD" d="M28.557 18.468h-3.696v3.697h-3.696v3.696h-2.773v3.696H11v1.848h9.24V27.71h2.773v-3.696h3.696v-3.697h3.696V16.62h2.772v-1.848h-4.62v3.696Z"/><path fill="#1772BD" d="m24.418 31.313 6.533-6.533 1.303 1.302v-3.917h-3.918l1.303 1.303-6.534 6.542 1.313 1.303Z"/></svg>