<svg xmlns="http://www.w3.org/2000/svg" width="44" height="44" fill="none"><rect width="44" height="44" fill="#F3F6F9" rx="22"/><path fill="#1772BD" d="M26.7 20.24a6.475 6.475 0 0 0-6.469 6.469 6.476 6.476 0 0 0 6.469 6.468 6.475 6.475 0 0 0 6.468-6.468A6.475 6.475 0 0 0 26.7 20.24Zm0 11.09c-2.55 0-4.62-2.07-4.62-4.621 0-2.55 2.07-4.62 4.62-4.62 2.55 0 4.62 2.07 4.62 4.62 0 2.55-2.07 4.62-4.62 4.62Z"/><path fill="#1772BD" d="M27.623 23.013h-1.848v4.075l2.117 2.125 1.312-1.312-1.58-1.571v-3.317ZM14.687 15.158a4.165 4.165 0 0 0 4.158 4.159 4.165 4.165 0 0 0 4.158-4.159A4.165 4.165 0 0 0 18.845 11a4.165 4.165 0 0 0-4.158 4.158Zm6.468 0a2.311 2.311 0 1 1-4.622-.001 2.311 2.311 0 0 1 4.622.001ZM12.839 25.785v-.924a2.78 2.78 0 0 1 2.772-2.772h5.332a7.307 7.307 0 0 1 2.042-1.756 4.83 4.83 0 0 0-.896-.092H15.62c-2.55 0-4.62 2.07-4.62 4.62v2.772h8.381a7.623 7.623 0 0 1-.064-.924c0-.314.027-.62.064-.924H12.84Z"/></svg>