<svg xmlns="http://www.w3.org/2000/svg" width="44" height="45" fill="none"><rect width="44" height="44" y=".5" fill="#F3F6F9" rx="22"/><path fill="#1772BD" d="M17.469 16.111c0 2.255 3.243 6.284 3.9 7.069l.71.86.712-.86c.647-.785 3.89-4.814 3.89-7.069a4.618 4.618 0 0 0-4.61-4.611c-2.532 0-4.602 2.07-4.602 4.611Zm7.364 0c0 .989-1.441 3.262-2.762 4.99-1.313-1.728-2.763-4.001-2.763-4.99a2.764 2.764 0 0 1 2.762-2.763 2.764 2.764 0 0 1 2.763 2.763Z"/><path fill="#1772BD" d="M22.06 17.044a.924.924 0 1 0 0-1.848.924.924 0 0 0 0 1.848Z"/><path fill="#1772BD" d="M31.33 14.272h-3.697v1.848h3.696v8.317H12.85V16.12h3.695v-1.848h-3.696A1.854 1.854 0 0 0 11 16.12v12.013c0 1.017.832 1.848 1.848 1.848h6.469v1.848h-.925v1.848h7.393V31.83h-.924v-1.848h6.468a1.854 1.854 0 0 0 1.848-1.848V16.12a1.854 1.854 0 0 0-1.848-1.848ZM23.012 31.83h-1.848v-1.848h1.848v1.848Zm-10.165-3.696v-1.848H31.33v1.848H12.85Z"/></svg>