<svg xmlns="http://www.w3.org/2000/svg" width="44" height="44" fill="none"><rect width="44" height="44" fill="#F3F6F9" rx="22"/><path fill="#1772BD" d="M31.33 15.772h-.925v-.924h-1.848v.924h-1.848V13h-8.317v2.772H15.62v-.924h-1.848v.924h-.924A1.853 1.853 0 0 0 11 17.62v12.013c0 1.016.832 1.848 1.848 1.848H31.33a1.854 1.854 0 0 0 1.848-1.848V17.62a1.854 1.854 0 0 0-1.848-1.848Zm-11.09-.924h4.62v.924h-4.62v-.924Zm-7.392 14.785v-5.544h7.393V22.24h-7.393v-4.62H31.33v4.62h-7.392v1.848h7.392v5.544H12.85Z"/><path fill="#1772BD" d="M23.013 22.24h-1.848v1.849h1.848V22.24Z"/></svg>