<svg xmlns="http://www.w3.org/2000/svg" width="44" height="44" fill="none"><rect width="44" height="44" fill="#F3F6F9" rx="22"/><path fill="#197BCD" d="M30.725 23.091c0-1.8-1.473-3.273-3.273-3.273a3.282 3.282 0 0 0-3.272 3.273c0 1.8 1.472 3.273 3.272 3.273 1.8 0 3.273-1.473 3.273-3.273Zm-4.364 0c0-.6.491-1.09 1.091-1.09s1.091.49 1.091 1.09c0 .6-.49 1.091-1.09 1.091-.6 0-1.091-.49-1.091-1.09ZM24.182 30.727c0-.6.49-1.09 1.09-1.09h4.364c.6 0 1.091.49 1.091 1.09V34h2.182v-3.273c0-1.8-1.473-3.272-3.273-3.272h-4.363A3.282 3.282 0 0 0 22 30.727V34h2.182v-3.273Z"/><path fill="#197BCD" d="M17.636 10v3.273h-2.181v-1.091h-2.182v1.09h-1.091c-1.2 0-2.182.983-2.182 2.183v13.09c0 1.2.982 2.182 2.182 2.182h8.727v-2.181h-8.727V15.455h19.636v10.909H34v-10.91c0-1.2-.982-2.181-2.182-2.181h-1.09v-1.091h-2.182v1.09h-2.182V10h-8.728Zm2.182 2.182h4.364v1.09h-4.364v-1.09Z"/><path fill="#197BCD" d="M15.46 20.91h-2.183v5.454h2.182V20.91ZM18.729 23.091h-2.182v3.273h2.182v-3.273ZM21.998 17.636h-2.182v8.728h2.182v-8.728Z"/></svg>