<svg xmlns="http://www.w3.org/2000/svg" width="44" height="44" fill="none"><rect width="44" height="44" fill="#F3F6F9" rx="22"/><path fill="#197BCD" d="M19.392 12C15.317 12 12 15.317 12 19.392c0 4.076 3.317 7.393 7.392 7.393 4.076 0 7.393-3.317 7.393-7.393 0-4.075-3.317-7.392-7.393-7.392Zm0 12.937a5.549 5.549 0 0 1-5.544-5.545 5.549 5.549 0 0 1 5.544-5.544 5.549 5.549 0 0 1 5.545 5.544 5.549 5.549 0 0 1-5.545 5.545Z"/><path fill="#197BCD" d="M20.317 15.696h-1.848v4.075l2.116 2.125 1.312-1.312-1.58-1.57v-3.318ZM25.86 30.102l-1.191-1.201-1.313 1.312 2.505 2.495 5.276-5.267-1.312-1.312-3.964 3.973Z"/></svg>