<svg xmlns="http://www.w3.org/2000/svg" width="20" height="23" fill="none"><path fill="#60acec" d="M6.157 14.972h-3.82v1.143h3.82v-1.143z"/><path fill="#fff" fill-rule="evenodd" d="M0 0h14.657v8.677h-.999V.999H.999v17.773h9.718v.999H0V0zm1.837 1.839h7.338v7.338H1.837V1.839zm.999.999v5.34h5.34v-5.34h-5.34zm5.844 9.116H2.336v-.999H8.68v.999zm0 1.959H2.336v-.999H8.68v.999z"/><path fill="#60acec" d="M3.649 7.365h3.716V3.649c-.002 0-1.138 2.641-3.716 3.716z"/><g fill="#fff" fill-rule="evenodd"><path d="M12.839 10.166a3.47 3.47 0 0 0-1.876 4.53 3.47 3.47 0 0 0 4.53 1.876 3.47 3.47 0 0 0 1.876-4.53 3.47 3.47 0 0 0-4.53-1.876zm-2.799 4.912a4.466 4.466 0 1 1 8.251-3.418 4.466 4.466 0 0 1-8.251 3.418z"/><path d="M13.658 10.783a.5.5 0 0 1 .499-.499 3.09 3.09 0 0 1 3.089 3.089.5.5 0 0 1-.499.499.5.5 0 0 1-.499-.499c0-1.152-.937-2.09-2.09-2.09a.5.5 0 0 1-.499-.499zm-.814 10.538v-3.194h.999v3.194a.315.315 0 1 0 .63 0v-3.194h.999v3.194a1.314 1.314 0 1 1-2.628 0z"/></g></svg>