<svg xmlns="http://www.w3.org/2000/svg" xmlns:xlink="http://www.w3.org/1999/xlink" width="200" height="75" fill="none" xmlns:v="https://vecta.io/nano"><g clip-path="url(#E)"><path d="M190.382 41H92.297l-1.068.002-.896.011c-.654.006-1.308.056-1.954.149a7.05 7.05 0 0 0-1.853.533c-.583.258-1.116.599-1.579 1.003s-.852.867-1.147 1.377-.502 1.054-.61 1.617a9.67 9.67 0 0 0-.174 1.702l-.014.783v19.649l.015.783a9.67 9.67 0 0 0 .175 1.702c.107.564.312 1.11.608 1.62s.683.97 1.148 1.37c.461.406.994.744 1.578 1.002s1.208.439 1.853.535 1.299.143 1.954.151l.896.01 1.068.002h98.085l1.057-.002.898-.008a14.79 14.79 0 0 0 1.95-.151c.648-.097 1.274-.278 1.861-.535a6.08 6.08 0 0 0 1.576-1.002c.464-.402.853-.865 1.152-1.372a5.12 5.12 0 0 0 .604-1.62 10.05 10.05 0 0 0 .181-1.702l.004-.783.008-.93V49.106l-.008-.928-.004-.782a10.06 10.06 0 0 0-.181-1.702 5.13 5.13 0 0 0-.604-1.617c-.602-1.022-1.556-1.855-2.728-2.38-.586-.257-1.213-.437-1.861-.533s-1.296-.143-1.95-.15l-.898-.011-1.057-.003z" fill="#a6a6a6"/><path d="M91.235 74.257l-.881-.009a14.13 14.13 0 0 1-1.823-.139 6.34 6.34 0 0 1-1.615-.466c-.504-.222-.964-.514-1.362-.864a4.61 4.61 0 0 1-.995-1.188 4.44 4.44 0 0 1-.53-1.409c-.1-.527-.154-1.059-.162-1.594l-.014-.776V48.178l.014-.761a9.17 9.17 0 0 1 .161-1.591c.093-.492.272-.968.53-1.413a4.65 4.65 0 0 1 .99-1.188c.4-.35.862-.644 1.367-.869s1.051-.38 1.612-.462a14.04 14.04 0 0 1 1.829-.139l.88-.01h100.2l.89.011a13.8 13.8 0 0 1 1.811.138 6.38 6.38 0 0 1 1.629.466c1.012.454 1.836 1.174 2.355 2.057.254.441.43.914.522 1.401a9.73 9.73 0 0 1 .17 1.604l.003.757.008.928v17.79l-.008.913-.004.79c-.011.528-.066 1.054-.166 1.575a4.45 4.45 0 0 1-.526 1.419 4.74 4.74 0 0 1-.991 1.178c-.398.352-.859.645-1.365.869-.512.226-1.06.384-1.626.468-.603.086-1.212.132-1.823.139l-.874.01-1.057.002-99.149-.002z" fill="#000"/><path d="M107.15 58.255c.021-1.442.888-2.773 2.297-3.528-.441-.548-1.021-.999-1.697-1.318a5.51 5.51 0 0 0-2.194-.516c-1.638-.15-3.225.855-4.059.855-.851 0-2.136-.84-3.518-.814-1.82.051-3.476.932-4.361 2.319-1.886 2.846-.478 7.028 1.327 9.33.904 1.126 1.96 2.384 3.342 2.34 1.353-.049 1.857-.752 3.49-.752 1.617 0 2.091.752 3.501.724 1.451-.022 2.365-1.132 3.237-2.269.65-.802 1.149-1.689 1.482-2.628-1.724-.635-2.845-2.108-2.847-3.74v-.001zm-2.664-6.876c.791-.828 1.181-1.892 1.087-2.966-1.209.11-2.326.614-3.128 1.411-.792.785-1.193 1.813-1.115 2.856a4.5 4.5 0 0 0 1.749-.334c.547-.225 1.028-.556 1.407-.967h0zm19.758 12.691h-4.614l-1.109 2.853h-1.955l4.372-10.555h2.031l4.37 10.555h-1.987l-1.108-2.853zm-4.137-1.318h3.659l-1.804-4.629h-.05l-1.805 4.629zm16.674.323c0 2.391-1.468 3.927-3.684 3.927-1.145.052-2.223-.47-2.777-1.345h-.041v3.811h-1.814V59.226h1.755v1.28h.032c.284-.427.695-.779 1.19-1.018a3.51 3.51 0 0 1 1.621-.342c2.241 0 3.718 1.544 3.718 3.929h0zm-1.862 0c0-1.558-.924-2.582-2.334-2.582-1.384 0-2.315 1.045-2.315 2.582 0 1.55.932 2.589 2.316 2.589 1.409 0 2.334-1.017 2.334-2.589h-.001zm11.578 0c0 2.391-1.468 3.927-3.684 3.927-1.144.052-2.223-.47-2.777-1.345h-.041v3.811h-1.812V59.226h1.753v1.28h.033a2.98 2.98 0 0 1 1.191-1.018 3.51 3.51 0 0 1 1.621-.342c2.24 0 3.717 1.544 3.717 3.929h-.001zm-1.862 0c0-1.558-.924-2.582-2.333-2.582-1.385 0-2.316 1.045-2.316 2.582 0 1.55.932 2.589 2.316 2.589 1.409 0 2.332-1.017 2.332-2.589h.001zm8.283.906c.135 1.047 1.301 1.734 2.896 1.734 1.527 0 2.626-.687 2.626-1.631 0-.819-.663-1.309-2.233-1.646l-1.568-.33c-2.223-.468-3.256-1.374-3.256-2.846 0-1.821 1.82-3.072 4.406-3.072 2.559 0 4.313 1.251 4.371 3.072h-1.829c-.109-1.053-1.107-1.689-2.568-1.689s-2.458.644-2.458 1.579c0 .746.638 1.186 2.199 1.521l1.334.286c2.484.512 3.515 1.382 3.515 2.926 0 1.974-1.803 3.211-4.672 3.211-2.686 0-4.499-1.207-4.616-3.117h1.853zm11.345-6.576v1.821h1.679v1.251h-1.679v4.242c0 .66.336.967 1.075.967l.595-.037v1.243c-.331.054-.669.079-1.006.073-1.787 0-2.484-.585-2.484-2.078v-4.411h-1.284v-1.251h1.284v-1.82h1.82zm2.651 5.669c0-2.421 1.636-3.943 4.187-3.943 2.559 0 4.187 1.522 4.187 3.943 0 2.428-1.62 3.942-4.187 3.942s-4.187-1.515-4.187-3.942zm6.527 0c0-1.661-.873-2.642-2.34-2.642s-2.34.988-2.34 2.642c0 1.668.871 2.64 2.34 2.64s2.34-.972 2.34-2.64zm3.341-3.849h1.729v1.31h.042c.117-.409.392-.77.778-1.023s.862-.383 1.345-.367c.209-.001.417.019.621.058v1.477a2.87 2.87 0 0 0-.814-.095c-.263-.009-.525.031-.769.119s-.463.22-.642.388-.315.368-.398.587-.109.449-.08.678v4.565h-1.811l-.001-7.696zm12.868 5.436c-.244 1.397-1.804 2.356-3.801 2.356-2.568 0-4.163-1.499-4.163-3.905 0-2.414 1.603-3.98 4.086-3.98 2.443 0 3.978 1.462 3.978 3.796v.542h-6.234v.095c-.058.573.169 1.14.623 1.557s1.093.644 1.752.622c.428.035.857-.051 1.225-.246s.652-.488.812-.836h1.722zm-6.125-2.297h4.412c.034-.515-.182-1.018-.592-1.389s-.981-.575-1.572-.564a2.53 2.53 0 0 0-.861.146c-.273.098-.521.241-.73.423s-.374.397-.487.635-.171.492-.17.75h0zM119.88 48.421a2.92 2.92 0 0 1 1.116.147c.355.12.675.308.937.549a2.2 2.2 0 0 1 .577.845c.119.316.156.65.108.98 0 1.62-1.005 2.552-2.738 2.552h-2.102V48.42l2.102.001zm-1.197 4.355h1.097c.55.028 1.085-.16 1.456-.515s.542-.835.462-1.31a1.4 1.4 0 0 0-.067-.696c-.081-.225-.218-.432-.401-.605s-.408-.309-.659-.398a2.08 2.08 0 0 0-.791-.115h-1.096l-.001 3.638zm4.955-1.199c-.036-.336.037-.673.209-.975s.438-.555.767-.733.708-.271 1.095-.271.765.094 1.094.271.594.431.767.733.245.639.209.975a1.61 1.61 0 0 1-.203.981c-.171.304-.437.56-.767.739a2.31 2.31 0 0 1-1.1.274c-.389 0-.77-.095-1.1-.274s-.596-.435-.767-.739-.242-.644-.204-.981h0zm3.25 0c0-.83-.428-1.315-1.178-1.315s-1.176.486-1.176 1.315c0 .836.423 1.318 1.176 1.318s1.178-.485 1.178-1.318zm6.395 1.916h-.899l-.907-2.819h-.068l-.904 2.82h-.891l-1.211-3.827h.88l.786 2.921h.065l.902-2.921h.831l.903 2.921h.068l.783-2.921h.867l-1.205 3.827zm2.224-3.827h.833v.608h.064c.11-.218.295-.402.53-.524a1.47 1.47 0 0 1 .781-.158c.213-.014.427.015.627.083s.378.175.524.311a1.21 1.21 0 0 1 .318.478 1.09 1.09 0 0 1 .05.551v2.477h-.867v-2.288c0-.615-.306-.921-.948-.921-.145-.006-.289.016-.424.063s-.255.12-.355.212-.175.202-.221.322-.063.247-.047.373v2.24h-.866l.001-3.828zm5.109-1.494h.865v5.321h-.865v-5.321zm2.07 3.406a1.62 1.62 0 0 1 .208-.977c.172-.302.438-.557.767-.735a2.31 2.31 0 0 1 1.096-.272c.387 0 .766.094 1.096.272a1.93 1.93 0 0 1 .766.735c.173.302.244.641.208.977.039.337-.032.677-.203.981s-.438.56-.768.739a2.31 2.31 0 0 1-1.1.274 2.31 2.31 0 0 1-1.099-.275c-.33-.179-.596-.435-.768-.739s-.242-.644-.203-.981h0zm3.25 0c0-.83-.429-1.315-1.178-1.315s-1.177.486-1.177 1.315c0 .836.423 1.318 1.177 1.318s1.178-.485 1.178-1.318h0zm1.802.833c0-.688.589-1.086 1.634-1.142l1.19-.059v-.331c0-.404-.307-.632-.899-.632-.485 0-.819.155-.916.425h-.838c.087-.657.797-1.08 1.794-1.08 1.099 0 1.72.478 1.72 1.287v2.616h-.833v-.538h-.068c-.284.393-.788.623-1.319.601a1.51 1.51 0 0 1-.547-.05 1.39 1.39 0 0 1-.477-.239 1.19 1.19 0 0 1-.324-.387c-.075-.147-.115-.307-.115-.469h-.002zm2.823-.326v-.321l-1.072.059c-.605.036-.878.215-.878.552 0 .345.342.544.813.544.279.024.557-.05.772-.208s.346-.384.365-.627h0zm2.002-.507c0-1.209.713-1.975 1.823-1.975.559-.022 1.084.239 1.345.672h.065v-2.102h.866v5.321h-.829v-.604h-.069c-.281.429-.813.686-1.38.667-1.116 0-1.821-.766-1.821-1.979v.001zm.895 0c0 .812.438 1.3 1.173 1.3s1.182-.496 1.182-1.297-.457-1.3-1.182-1.3-1.173.493-1.173 1.297h0zm6.789 0a1.62 1.62 0 0 1 .208-.977c.172-.302.438-.557.767-.735s.709-.272 1.096-.272.766.094 1.096.272a1.93 1.93 0 0 1 .766.735c.173.302.244.641.208.977.039.337-.032.677-.203.981s-.438.56-.768.739a2.31 2.31 0 0 1-1.099.274c-.389 0-.77-.095-1.1-.275s-.596-.435-.768-.739-.242-.644-.203-.981h0zm3.25 0c0-.83-.427-1.315-1.178-1.315s-1.177.486-1.177 1.315c0 .836.424 1.318 1.177 1.318s1.178-.485 1.178-1.318zm2.054-1.911h.834v.608h.064c.11-.218.295-.402.53-.524a1.47 1.47 0 0 1 .781-.158c.213-.014.427.014.627.083a1.45 1.45 0 0 1 .524.311c.146.137.255.3.319.478a1.09 1.09 0 0 1 .05.551v2.477h-.867v-2.288c0-.615-.306-.921-.947-.921-.145-.006-.29.016-.425.063a1.02 1.02 0 0 0-.355.212.87.87 0 0 0-.222.322.78.78 0 0 0-.047.373v2.24h-.867l.001-3.828zm8.623-.953v.97h.952v.637h-.952v1.968c0 .401.19.577.622.577.11-.001.22-.007.33-.018v.629c-.156.024-.314.037-.472.039-.963 0-1.346-.296-1.346-1.034v-2.161h-.697v-.636h.697v-.97l.866-.001zm2.136-.542h.858v2.109h.068a1.25 1.25 0 0 1 .546-.527c.239-.123.517-.178.794-.158.43-.02.848.127 1.14.404s.429.651.371 1.023v2.471h-.867v-2.285c0-.612-.326-.921-.939-.921-.149-.011-.299.008-.439.053a1.05 1.05 0 0 0-.372.209c-.106.092-.186.204-.237.326a.79.79 0 0 0-.058.383v2.236h-.865v-5.322zm8.829 4.288c-.117.35-.372.652-.72.855s-.765.292-1.181.253c-.289.007-.577-.042-.843-.142s-.503-.249-.696-.437a1.7 1.7 0 0 1-.422-.652 1.53 1.53 0 0 1-.068-.746c-.078-.507.1-1.018.488-1.402s.949-.601 1.536-.597c1.222 0 1.958.728 1.958 1.929v.264h-3.1v.042c-.028.284.084.565.307.774s.536.326.863.322c.207.021.416-.011.602-.094s.339-.211.441-.37h.835zm-3.048-1.234h2.218a.81.81 0 0 0-.059-.379.91.91 0 0 0-.229-.326c-.102-.093-.225-.167-.362-.217s-.283-.073-.431-.07a1.27 1.27 0 0 0-.437.073c-.139.049-.265.122-.371.215a1 1 0 0 0-.246.323.89.89 0 0 0-.083.381z" fill="#fff"/></g><g clip-path="url(#F)"><path d="M195.666 34H87.334C84.907 34 83 32.13 83 29.75V4.25C83 1.87 84.907 0 87.334 0h108.333C198.093 0 200 1.87 200 4.25v25.5c0 2.295-1.907 4.25-4.334 4.25z" fill="#000"/><path d="M195.666.68c.963.005 1.884.382 2.566 1.051a3.57 3.57 0 0 1 1.075 2.519v25.5a3.57 3.57 0 0 1-1.075 2.519c-.682.668-1.603 1.046-2.566 1.051H87.334a3.69 3.69 0 0 1-2.565-1.051c-.681-.668-1.068-1.573-1.075-2.519V4.25a3.57 3.57 0 0 1 1.075-2.519A3.69 3.69 0 0 1 87.334.68h108.332zm0-.68H87.334C84.907 0 83 1.87 83 4.25v25.5c0 2.38 1.907 4.25 4.334 4.25h108.333c2.426 0 4.334-1.87 4.334-4.25V4.25c0-2.295-1.907-4.25-4.334-4.25h-.001z" fill="#a6a6a6"/><g fill="#fff"><path d="M124.081 8.67c0 .68-.174 1.275-.607 1.7-.52.51-1.127.765-1.907.765a2.57 2.57 0 0 1-1.906-.765c-.256-.241-.457-.532-.592-.854a2.46 2.46 0 0 1-.188-1.016 2.46 2.46 0 0 1 .188-1.016c.135-.322.336-.613.592-.854a2.57 2.57 0 0 1 1.906-.765 2.34 2.34 0 0 1 1.04.255c.346.17.607.34.78.595l-.434.425c-.346-.425-.779-.595-1.386-.595-.52 0-1.04.17-1.387.595-.433.34-.607.85-.607 1.445s.174 1.105.607 1.445.867.595 1.387.595c.607 0 1.039-.17 1.473-.595a1.42 1.42 0 0 0 .323-.466c.074-.175.112-.364.11-.554h-1.906v-.595h2.513l.001.255zm3.986-2.125h-2.34V8.16h2.167v.595h-2.167v1.615h2.34v.68h-3.033v-5.1h3.033v.595zm2.86 4.505h-.693V6.545h-1.473V5.95h3.64v.595h-1.473l-.001 4.505zm3.987 0v-5.1h.693v5.1h-.693zm3.64 0h-.693V6.545h-1.473V5.95h3.553v.595h-1.473v4.505h.086zm8.233-.68c-.519.51-1.126.765-1.906.765s-1.387-.255-1.907-.765c-.255-.241-.457-.532-.591-.854a2.46 2.46 0 0 1-.189-1.016 2.46 2.46 0 0 1 .189-1.016c.134-.322.336-.613.591-.854.52-.51 1.127-.765 1.907-.765s1.387.255 1.906.765c.256.241.457.532.592.854a2.46 2.46 0 0 1 .188 1.016 2.46 2.46 0 0 1-.188 1.016c-.135.322-.336.613-.592.854h0zm-3.293-.425c.347.34.867.595 1.387.595s1.04-.17 1.387-.595c.346-.34.606-.85.606-1.445s-.173-1.105-.606-1.445c-.347-.34-.867-.595-1.387-.595s-1.04.17-1.387.595c-.346.34-.607.85-.607 1.445s.174 1.105.607 1.445zm5.027 1.105v-5.1h.779l2.514 3.995V5.95h.693v5.1h-.693l-2.687-4.165v4.165h-.606z" stroke="#fff" stroke-width=".5"/><path d="M142.02 18.53c-2.08 0-3.727 1.53-3.727 3.655 0 2.04 1.647 3.655 3.727 3.655s3.727-1.53 3.727-3.655c0-2.21-1.647-3.655-3.727-3.655zm0 5.78c-1.127 0-2.08-.935-2.08-2.21s.953-2.21 2.08-2.21 2.08.85 2.08 2.21c0 1.275-.953 2.21-2.08 2.21zm-8.06-5.78c-2.08 0-3.726 1.53-3.726 3.655 0 2.04 1.646 3.655 3.726 3.655s3.727-1.53 3.727-3.655c0-2.21-1.647-3.655-3.727-3.655zm0 5.78c-1.126 0-2.08-.935-2.08-2.21s.954-2.21 2.08-2.21 2.08.85 2.08 2.21c0 1.275-.953 2.21-2.08 2.21zm-9.62-4.675v1.53h3.727c-.086.85-.433 1.53-.867 1.955-.52.51-1.386 1.105-2.86 1.105-2.34 0-4.073-1.785-4.073-4.08s1.82-4.08 4.073-4.08c1.214 0 2.167.51 2.86 1.105l1.127-1.105c-.953-.85-2.166-1.53-3.9-1.53-3.12 0-5.807 2.55-5.807 5.61s2.687 5.61 5.807 5.61c1.733 0 2.947-.51 3.987-1.615 1.039-1.02 1.386-2.465 1.386-3.57 0-.34 0-.68-.086-.935h-5.374zm39.347 1.19c-.346-.85-1.213-2.295-3.12-2.295s-3.467 1.445-3.467 3.655c0 2.04 1.561 3.655 3.641 3.655 1.646 0 2.686-1.02 3.033-1.615l-1.213-.85c-.434.595-.953 1.02-1.82 1.02s-1.387-.34-1.82-1.105l4.94-2.04-.174-.425zm-5.026 1.19c0-1.36 1.126-2.125 1.906-2.125.607 0 1.213.34 1.387.765l-3.293 1.36zm-4.074 3.485h1.647V14.875h-1.647V25.5zm-2.6-6.205c-.433-.425-1.127-.85-1.994-.85-1.82 0-3.553 1.615-3.553 3.655s1.647 3.57 3.553 3.57c.867 0 1.561-.425 1.907-.85h.086v.51c0 1.36-.779 2.125-1.993 2.125-.953 0-1.647-.68-1.82-1.275l-1.387.595c.433.935 1.473 2.125 3.293 2.125 1.907 0 3.467-1.105 3.467-3.74V18.7h-1.56l.001.595zm-1.907 5.015c-1.126 0-2.08-.935-2.08-2.21s.954-2.21 2.08-2.21 1.994.935 1.994 2.21-.867 2.21-1.994 2.21zm21.147-9.435h-3.9V25.5h1.646v-3.995h2.254c1.82 0 3.553-1.275 3.553-3.315s-1.733-3.315-3.553-3.315zm.086 5.1h-2.34V16.32h2.34c1.214 0 1.907 1.02 1.907 1.785-.087.935-.78 1.87-1.907 1.87zm9.967-1.53c-1.213 0-2.426.51-2.86 1.615l1.474.595c.346-.595.866-.765 1.473-.765.867 0 1.646.51 1.733 1.36v.085c-.26-.17-.953-.425-1.647-.425-1.56 0-3.12.85-3.12 2.38 0 1.445 1.301 2.38 2.687 2.38 1.127 0 1.646-.51 2.08-1.02h.086v.85h1.56v-4.08c-.173-1.87-1.646-2.975-3.466-2.975h0zm-.173 5.865c-.52 0-1.3-.255-1.3-.935 0-.85.953-1.105 1.733-1.105.693 0 1.039.17 1.473.34-.174 1.02-1.04 1.7-1.907 1.7h.001zm9.1-5.61l-1.82 4.59h-.087l-1.906-4.59h-1.733l2.859 6.46-1.646 3.57h1.646l4.421-10.03h-1.734zm-14.56 6.8h1.647V14.875h-1.647V25.5z"/></g><path d="M92.014 6.375c-.26.255-.433.68-.433 1.19V26.35c0 .51.174.935.433 1.19l.086.085 10.747-10.54v-.17L92.014 6.375z" fill="url(#A)"/><path d="M106.4 20.655l-3.553-3.485v-.255l3.553-3.485.086.085 4.247 2.38c1.213.68 1.213 1.785 0 2.465l-4.333 2.295z" fill="url(#B)"/><path d="M106.487 20.57l-3.64-3.57-10.833 10.625c.433.425 1.04.425 1.82.085l12.653-7.14z" fill="url(#C)"/><path d="M106.486 13.43L93.833 6.375c-.78-.425-1.387-.34-1.82.085L102.846 17l3.64-3.57z" fill="url(#D)"/><g fill="#000"><path opacity=".2" d="M106.4 20.485l-12.567 6.97c-.693.425-1.3.34-1.733 0l-.086.085.086.085c.433.34 1.04.425 1.733 0l12.567-7.14z"/><path opacity=".12" d="M92.013 27.455c-.26-.255-.346-.68-.346-1.19v.085c0 .51.174.935.433 1.19v-.085h-.087zm18.72-9.35l-4.333 2.38.086.085 4.247-2.38c.607-.34.867-.765.867-1.19 0 .425-.347.765-.867 1.105h0z"/></g><path opacity=".25" d="M93.834 6.46l16.9 9.435c.52.34.867.68.867 1.105 0-.425-.26-.85-.867-1.19l-16.9-9.435c-1.213-.68-2.166-.085-2.166 1.275v.085c0-1.36.953-1.955 2.166-1.275z" fill="#fff"/></g><g clip-path="url(#G)"><path d="M63.815.919h-53c-6.075 0-11 4.925-11 11v53c0 6.075 4.925 11 11 11h53c6.075 0 11-4.925 11-11v-53c0-6.075-4.925-11-11-11z" fill="#fff"/><g fill="#000"><path d="M65.625 3.125a6.27 6.27 0 0 1 6.25 6.25v56.25a6.27 6.27 0 0 1-6.25 6.25H9.375a6.27 6.27 0 0 1-6.25-6.25V9.375a6.27 6.27 0 0 1 6.25-6.25h56.25zm0-3.125H9.375C4.188 0 0 4.188 0 9.375v56.25C0 70.813 4.188 75 9.375 75h56.25C70.813 75 75 70.813 75 65.625V9.375C75 4.188 70.813 0 65.625 0z"/><use xlink:href="#H"/><path d="M32.39 7.5h-2.131v2.131h2.131V7.5z"/><path d="M34.458 7.5h-2.131v2.131h2.131V7.5zm6.207 0h-2.131v2.131h2.131V7.5z"/><path d="M42.735 7.5h-2.131v2.131h2.131V7.5z"/><path d="M44.804 7.5h-2.131v2.131h2.131V7.5z"/><path d="M46.872 7.5h-2.131v2.131h2.131V7.5z"/><path d="M48.942 7.5h-2.131v2.131h2.131V7.5zM32.39 9.569h-2.131V11.7h2.131V9.569z"/><path d="M34.458 9.569h-2.131V11.7h2.131V9.569zm10.346 0h-2.131V11.7h2.131V9.569zm6.206 0h-2.131V11.7h2.131V9.569z"/><use xlink:href="#I"/><path d="M32.39 11.638h-2.131v2.131h2.131v-2.131z"/><path d="M34.458 11.638h-2.131v2.131h2.131v-2.131zm4.139 0h-2.131v2.131h2.131v-2.131zm4.138 0h-2.131v2.131h2.131v-2.131zm8.275 0h-2.131v2.131h2.131v-2.131zm-24.827 2.069h-2.131v2.131h2.131v-2.131z"/><path d="M42.735 13.707h-2.131v2.131h2.131v-2.131z"/><path d="M44.804 13.707h-2.131v2.131h2.131v-2.131zm-18.621 2.068h-2.131v2.131h2.131v-2.131zm8.275 0h-2.131v2.131h2.131v-2.131z"/><path d="M36.528 15.775h-2.131v2.131h2.131v-2.131z"/><path d="M38.597 15.775h-2.131v2.131h2.131v-2.131z"/><path d="M40.665 15.775h-2.131v2.131h2.131v-2.131zm6.207 0h-2.131v2.131h2.131v-2.131z"/><path d="M48.942 15.775h-2.131v2.131h2.131v-2.131z"/><path d="M51.01 15.775h-2.131v2.131h2.131v-2.131zm-24.827 2.07h-2.131v2.131h2.131v-2.131zm10.345 0h-2.131v2.131h2.131v-2.131z"/><path d="M38.597 17.845h-2.131v2.131h2.131v-2.131z"/><path d="M40.665 17.845h-2.131v2.131h2.131v-2.131z"/><path d="M42.735 17.845h-2.131v2.131h2.131v-2.131zm-16.552 2.069h-2.131v2.131h2.131v-2.131z"/><use xlink:href="#J"/><path d="M34.458 19.914h-2.131v2.131h2.131v-2.131zm4.139 0h-2.131v2.131h2.131v-2.131zm4.138 0h-2.131v2.131h2.131v-2.131zm4.137 0h-2.131v2.131h2.131v-2.131zm4.138 0h-2.131v2.131h2.131v-2.131zm-24.827 2.068h-2.131v2.131h2.131v-2.131z"/><path d="M28.252 21.982h-2.131v2.131h2.131v-2.131zm4.138 0h-2.131v2.131h2.131v-2.131zm4.138 0h-2.131v2.131h2.131v-2.131zm4.137 0h-2.131v2.131h2.131v-2.131zm6.207 0h-2.131v2.131h2.131v-2.131zm4.138 0h-2.131v2.131h2.131v-2.131z"/><use xlink:href="#K"/><path d="M13.769 24.052h-2.131v2.131h2.131v-2.131z"/><path d="M15.838 24.052h-2.131v2.131h2.131v-2.131z"/><path d="M17.906 24.052h-2.131v2.131h2.131v-2.131z"/><path d="M19.976 24.052h-2.131v2.131h2.131v-2.131z"/><path d="M22.045 24.052h-2.131v2.131h2.131v-2.131zm8.276 0H28.19v2.131h2.131v-2.131z"/><path d="M32.39 24.052h-2.131v2.131h2.131v-2.131zm6.207 0h-2.131v2.131h2.131v-2.131z"/><path d="M40.665 24.052h-2.131v2.131h2.131v-2.131zm4.139 0h-2.131v2.131h2.131v-2.131zm6.206 0h-2.131v2.131h2.131v-2.131zm4.139 0h-2.131v2.131h2.131v-2.131z"/><path d="M57.217 24.052h-2.131v2.131h2.131v-2.131z"/><path d="M59.286 24.052h-2.131v2.131h2.131v-2.131z"/><path d="M61.356 24.052h-2.131v2.131h2.131v-2.131z"/><path d="M63.424 24.052h-2.131v2.131h2.131v-2.131zM9.631 26.121H7.5v2.131h2.131v-2.131zm8.275 0h-2.131v2.131h2.131v-2.131z"/><path d="M19.976 26.121h-2.131v2.131h2.131v-2.131zm4.138 0h-2.131v2.131h2.131v-2.131zm4.138 0h-2.131v2.131h2.131v-2.131z"/><path d="M30.321 26.121H28.19v2.131h2.131v-2.131zm10.344 0h-2.131v2.131h2.131v-2.131z"/><path d="M42.735 26.121h-2.131v2.131h2.131v-2.131z"/><path d="M44.804 26.121h-2.131v2.131h2.131v-2.131z"/><path d="M46.872 26.121h-2.131v2.131h2.131v-2.131z"/><path d="M48.942 26.121h-2.131v2.131h2.131v-2.131z"/><path d="M51.01 26.121h-2.131v2.131h2.131v-2.131z"/><path d="M53.079 26.121h-2.131v2.131h2.131v-2.131z"/><path d="M55.149 26.121h-2.131v2.131h2.131v-2.131z"/><path d="M57.217 26.121h-2.131v2.131h2.131v-2.131z"/><path d="M59.286 26.121h-2.131v2.131h2.131v-2.131zm8.276 0h-2.131v2.131h2.131v-2.131z"/><use xlink:href="#L"/><path d="M19.976 28.19h-2.131v2.131h2.131V28.19z"/><path d="M22.045 28.19h-2.131v2.131h2.131V28.19zm4.138 0h-2.131v2.131h2.131V28.19z"/><path d="M28.252 28.19h-2.131v2.131h2.131V28.19zm16.552 0h-2.131v2.131h2.131V28.19zm6.206 0h-2.131v2.131h2.131V28.19zm6.207 0h-2.131v2.131h2.131V28.19zM11.7 30.259H9.569v2.131H11.7v-2.131z"/><path d="M13.769 30.259h-2.131v2.131h2.131v-2.131zm4.137 0h-2.131v2.131h2.131v-2.131zm6.208 0h-2.131v2.131h2.131v-2.131zm4.138 0h-2.131v2.131h2.131v-2.131zm4.138 0h-2.131v2.131h2.131v-2.131z"/><path d="M34.458 30.259h-2.131v2.131h2.131v-2.131zm4.139 0h-2.131v2.131h2.131v-2.131zm4.138 0h-2.131v2.131h2.131v-2.131zm12.414 0h-2.131v2.131h2.131v-2.131zm4.137 0h-2.131v2.131h2.131v-2.131z"/><path d="M61.356 30.259h-2.131v2.131h2.131v-2.131zm4.137 0h-2.131v2.131h2.131v-2.131zm-51.724 2.068h-2.131v2.131h2.131v-2.131zm4.137 0h-2.131v2.131h2.131v-2.131z"/><path d="M19.976 32.327h-2.131v2.131h2.131v-2.131z"/><path d="M22.045 32.327h-2.131v2.131h2.131v-2.131z"/><path d="M24.114 32.327h-2.131v2.131h2.131v-2.131z"/><path d="M26.183 32.327h-2.131v2.131h2.131v-2.131z"/><path d="M28.252 32.327h-2.131v2.131h2.131v-2.131zm4.138 0h-2.131v2.131h2.131v-2.131z"/><path d="M34.458 32.327h-2.131v2.131h2.131v-2.131zm8.277 0h-2.131v2.131h2.131v-2.131z"/><path d="M44.804 32.327h-2.131v2.131h2.131v-2.131zm4.138 0h-2.131v2.131h2.131v-2.131zm8.275 0h-2.131v2.131h2.131v-2.131zm4.139 0h-2.131v2.131h2.131v-2.131z"/><path d="M63.424 32.327h-2.131v2.131h2.131v-2.131zm-49.655 2.07h-2.131v2.131h2.131v-2.131z"/><path d="M15.838 34.397h-2.131v2.131h2.131v-2.131zm4.138 0h-2.131v2.131h2.131v-2.131zm6.207 0h-2.131v2.131h2.131v-2.131zm10.345 0h-2.131v2.131h2.131v-2.131z"/><path d="M38.597 34.397h-2.131v2.131h2.131v-2.131z"/><path d="M40.665 34.397h-2.131v2.131h2.131v-2.131zm8.277 0h-2.131v2.131h2.131v-2.131z"/><path d="M51.01 34.397h-2.131v2.131h2.131v-2.131z"/><path d="M53.079 34.397h-2.131v2.131h2.131v-2.131z"/><path d="M55.149 34.397h-2.131v2.131h2.131v-2.131z"/><path d="M57.217 34.397h-2.131v2.131h2.131v-2.131z"/><path d="M59.286 34.397h-2.131v2.131h2.131v-2.131zm8.276 0h-2.131v2.131h2.131v-2.131zM9.631 36.466H7.5v2.131h2.131v-2.131zm4.138 0h-2.131v2.131h2.131v-2.131z"/><path d="M15.838 36.466h-2.131v2.131h2.131v-2.131z"/><path d="M17.906 36.466h-2.131v2.131h2.131v-2.131z"/><path d="M19.976 36.466h-2.131v2.131h2.131v-2.131z"/><path d="M22.045 36.466h-2.131v2.131h2.131v-2.131z"/><path d="M24.114 36.466h-2.131v2.131h2.131v-2.131z"/><path d="M26.183 36.466h-2.131v2.131h2.131v-2.131zm6.207 0h-2.131v2.131h2.131v-2.131zm4.138 0h-2.131v2.131h2.131v-2.131z"/><path d="M38.597 36.466h-2.131v2.131h2.131v-2.131z"/><path d="M40.665 36.466h-2.131v2.131h2.131v-2.131z"/><path d="M42.735 36.466h-2.131v2.131h2.131v-2.131z"/><path d="M44.804 36.466h-2.131v2.131h2.131v-2.131zm6.206 0h-2.131v2.131h2.131v-2.131zm4.139 0h-2.131v2.131h2.131v-2.131zm6.207 0h-2.131v2.131h2.131v-2.131z"/><path d="M63.424 36.466h-2.131v2.131h2.131v-2.131zM9.631 38.534H7.5v2.131h2.131v-2.131zm4.138 0h-2.131v2.131h2.131v-2.131z"/><path d="M15.838 38.534h-2.131v2.131h2.131v-2.131zm8.276 0h-2.131v2.131h2.131v-2.131zm6.207 0H28.19v2.131h2.131v-2.131z"/><path d="M32.39 38.534h-2.131v2.131h2.131v-2.131z"/><path d="M34.458 38.534h-2.131v2.131h2.131v-2.131z"/><path d="M36.528 38.534h-2.131v2.131h2.131v-2.131zm4.137 0h-2.131v2.131h2.131v-2.131zm8.277 0h-2.131v2.131h2.131v-2.131zm6.207 0h-2.131v2.131h2.131v-2.131zm4.137 0h-2.131v2.131h2.131v-2.131zm6.207 0h-2.131v2.131h2.131v-2.131zm-55.862 2.07H7.5v2.131h2.131v-2.131zm4.138 0h-2.131v2.131h2.131v-2.131zm4.137 0h-2.131v2.131h2.131v-2.131zm4.139 0h-2.131v2.131h2.131v-2.131z"/><path d="M38.597 40.604h-2.131v2.131h2.131v-2.131z"/><path d="M40.665 40.604h-2.131v2.131h2.131v-2.131zm4.139 0h-2.131v2.131h2.131v-2.131zm6.206 0h-2.131v2.131h2.131v-2.131z"/><path d="M53.079 40.604h-2.131v2.131h2.131v-2.131zm8.277 0h-2.131v2.131h2.131v-2.131z"/><path d="M63.424 40.604h-2.131v2.131h2.131v-2.131zM9.631 42.673H7.5v2.131h2.131v-2.131zm4.138 0h-2.131v2.131h2.131v-2.131zm4.137 0h-2.131v2.131h2.131v-2.131zm8.277 0h-2.131v2.131h2.131v-2.131z"/><path d="M28.252 42.673h-2.131v2.131h2.131v-2.131zm12.413 0h-2.131v2.131h2.131v-2.131z"/><path d="M42.735 42.673h-2.131v2.131h2.131v-2.131z"/><path d="M44.804 42.673h-2.131v2.131h2.131v-2.131z"/><path d="M46.872 42.673h-2.131v2.131h2.131v-2.131z"/><path d="M48.942 42.673h-2.131v2.131h2.131v-2.131z"/><path d="M51.01 42.673h-2.131v2.131h2.131v-2.131z"/><path d="M53.079 42.673h-2.131v2.131h2.131v-2.131z"/><path d="M55.149 42.673h-2.131v2.131h2.131v-2.131z"/><path d="M57.217 42.673h-2.131v2.131h2.131v-2.131z"/><path d="M59.286 42.673h-2.131v2.131h2.131v-2.131zm4.138 0h-2.131v2.131h2.131v-2.131zm4.138 0h-2.131v2.131h2.131v-2.131zM9.631 44.741H7.5v2.131h2.131v-2.131zm4.138 0h-2.131v2.131h2.131v-2.131zm4.137 0h-2.131v2.131h2.131v-2.131zm4.139 0h-2.131v2.131h2.131v-2.131z"/><path d="M24.114 44.741h-2.131v2.131h2.131v-2.131zm6.207 0H28.19v2.131h2.131v-2.131zm14.483 0h-2.131v2.131h2.131v-2.131zm6.206 0h-2.131v2.131h2.131v-2.131zm4.139 0h-2.131v2.131h2.131v-2.131z"/><path d="M57.217 44.741h-2.131v2.131h2.131v-2.131zm6.207 0h-2.131v2.131h2.131v-2.131zm-53.793 2.07H7.5v2.131h2.131v-2.131zm4.138 0h-2.131v2.131h2.131v-2.131z"/><path d="M15.838 46.811h-2.131v2.131h2.131v-2.131z"/><path d="M17.906 46.811h-2.131v2.131h2.131v-2.131z"/><path d="M19.976 46.811h-2.131v2.131h2.131v-2.131zm4.138 0h-2.131v2.131h2.131v-2.131zm4.138 0h-2.131v2.131h2.131v-2.131z"/><path d="M30.321 46.811H28.19v2.131h2.131v-2.131z"/><path d="M32.39 46.811h-2.131v2.131h2.131v-2.131z"/><path d="M34.458 46.811h-2.131v2.131h2.131v-2.131zm4.139 0h-2.131v2.131h2.131v-2.131zm4.138 0h-2.131v2.131h2.131v-2.131zm4.137 0h-2.131v2.131h2.131v-2.131z"/><path d="M48.942 46.811h-2.131v2.131h2.131v-2.131z"/><path d="M51.01 46.811h-2.131v2.131h2.131v-2.131z"/><path d="M53.079 46.811h-2.131v2.131h2.131v-2.131z"/><path d="M55.149 46.811h-2.131v2.131h2.131v-2.131z"/><path d="M57.217 46.811h-2.131v2.131h2.131v-2.131zm8.276 0h-2.131v2.131h2.131v-2.131zM9.631 48.879H7.5v2.131h2.131v-2.131zm4.138 0h-2.131v2.131h2.131v-2.131z"/><path d="M15.838 48.879h-2.131v2.131h2.131v-2.131zm4.138 0h-2.131v2.131h2.131v-2.131z"/><path d="M22.045 48.879h-2.131v2.131h2.131v-2.131zm4.138 0h-2.131v2.131h2.131v-2.131z"/><path d="M28.252 48.879h-2.131v2.131h2.131v-2.131zm16.552 0h-2.131v2.131h2.131v-2.131zm4.138 0h-2.131v2.131h2.131v-2.131z"/><path d="M51.01 48.879h-2.131v2.131h2.131v-2.131z"/><path d="M53.079 48.879h-2.131v2.131h2.131v-2.131z"/><path d="M55.149 48.879h-2.131v2.131h2.131v-2.131z"/><path d="M57.217 48.879h-2.131v2.131h2.131v-2.131z"/><path d="M59.286 48.879h-2.131v2.131h2.131v-2.131zm4.138 0h-2.131v2.131h2.131v-2.131z"/><path d="M65.493 48.879h-2.131v2.131h2.131v-2.131z"/><path d="M67.562 48.879h-2.131v2.131h2.131v-2.131zm-41.379 2.069h-2.131v2.131h2.131v-2.131zm4.138 0H28.19v2.131h2.131v-2.131z"/><path d="M32.39 50.948h-2.131v2.131h2.131v-2.131z"/><path d="M34.458 50.948h-2.131v2.131h2.131v-2.131z"/><path d="M36.528 50.948h-2.131v2.131h2.131v-2.131z"/><path d="M38.597 50.948h-2.131v2.131h2.131v-2.131z"/><path d="M40.665 50.948h-2.131v2.131h2.131v-2.131zm4.139 0h-2.131v2.131h2.131v-2.131z"/><path d="M46.872 50.948h-2.131v2.131h2.131v-2.131zm4.138 0h-2.131v2.131h2.131v-2.131zm8.276 0h-2.131v2.131h2.131v-2.131z"/><path d="M61.356 50.948h-2.131v2.131h2.131v-2.131z"/><path d="M63.424 50.948h-2.131v2.131h2.131v-2.131z"/><path d="M65.493 50.948h-2.131v2.131h2.131v-2.131z"/><path d="M67.562 50.948h-2.131v2.131h2.131v-2.131zm-35.172 2.07h-2.131v2.131h2.131v-2.131zm4.138 0h-2.131v2.131h2.131v-2.131z"/><path d="M38.597 53.018h-2.131v2.131h2.131v-2.131z"/><path d="M40.665 53.018h-2.131v2.131h2.131v-2.131zm8.277 0h-2.131v2.131h2.131v-2.131z"/><path d="M51.01 53.018h-2.131v2.131h2.131v-2.131zm4.139 0h-2.131v2.131h2.131v-2.131zm4.137 0h-2.131v2.131h2.131v-2.131z"/><path d="M61.356 53.018h-2.131v2.131h2.131v-2.131z"/><path d="M63.424 53.018h-2.131v2.131h2.131v-2.131zm-37.241 2.068h-2.131v2.131h2.131v-2.131z"/><path d="M28.252 55.086h-2.131v2.131h2.131v-2.131zm8.276 0h-2.131v2.131h2.131v-2.131zm4.137 0h-2.131v2.131h2.131v-2.131z"/><path d="M42.735 55.086h-2.131v2.131h2.131v-2.131zm4.137 0h-2.131v2.131h2.131v-2.131zm4.138 0h-2.131v2.131h2.131v-2.131zm8.276 0h-2.131v2.131h2.131v-2.131zm8.276 0h-2.131v2.131h2.131v-2.131zm-41.379 2.069h-2.131v2.131h2.131v-2.131z"/><path d="M28.252 57.155h-2.131v2.131h2.131v-2.131z"/><path d="M30.321 57.155H28.19v2.131h2.131v-2.131zm8.276 0h-2.131v2.131h2.131v-2.131z"/><path d="M40.665 57.155h-2.131v2.131h2.131v-2.131zm4.139 0h-2.131v2.131h2.131v-2.131zm6.206 0h-2.131v2.131h2.131v-2.131z"/><path d="M53.079 57.155h-2.131v2.131h2.131v-2.131z"/><path d="M55.149 57.155h-2.131v2.131h2.131v-2.131z"/><path d="M57.217 57.155h-2.131v2.131h2.131v-2.131z"/><path d="M59.286 57.155h-2.131v2.131h2.131v-2.131zm4.138 0h-2.131v2.131h2.131v-2.131zm4.138 0h-2.131v2.131h2.131v-2.131zm-41.379 2.07h-2.131v2.131h2.131v-2.131z"/><path d="M28.252 59.225h-2.131v2.131h2.131v-2.131z"/><path d="M30.321 59.225H28.19v2.131h2.131v-2.131z"/><path d="M32.39 59.225h-2.131v2.131h2.131v-2.131z"/><path d="M34.458 59.225h-2.131v2.131h2.131v-2.131zm8.277 0h-2.131v2.131h2.131v-2.131z"/><path d="M44.804 59.225h-2.131v2.131h2.131v-2.131z"/><path d="M46.872 59.225h-2.131v2.131h2.131v-2.131zm4.138 0h-2.131v2.131h2.131v-2.131zm10.346 0h-2.131v2.131h2.131v-2.131z"/><path d="M63.424 59.225h-2.131v2.131h2.131v-2.131zm-37.241 2.068h-2.131v2.131h2.131v-2.131z"/><path d="M28.252 61.293h-2.131v2.131h2.131v-2.131z"/><path d="M30.321 61.293H28.19v2.131h2.131v-2.131zm4.137 0h-2.131v2.131h2.131v-2.131z"/><path d="M36.528 61.293h-2.131v2.131h2.131v-2.131zm4.137 0h-2.131v2.131h2.131v-2.131z"/><path d="M42.735 61.293h-2.131v2.131h2.131v-2.131z"/><path d="M44.804 61.293h-2.131v2.131h2.131v-2.131zm4.138 0h-2.131v2.131h2.131v-2.131z"/><path d="M51.01 61.293h-2.131v2.131h2.131v-2.131zm4.139 0h-2.131v2.131h2.131v-2.131z"/><path d="M57.217 61.293h-2.131v2.131h2.131v-2.131z"/><path d="M59.286 61.293h-2.131v2.131h2.131v-2.131z"/><path d="M61.356 61.293h-2.131v2.131h2.131v-2.131z"/><path d="M63.424 61.293h-2.131v2.131h2.131v-2.131z"/><path d="M65.493 61.293h-2.131v2.131h2.131v-2.131zm-37.241 2.069h-2.131v2.131h2.131v-2.131z"/><path d="M30.321 63.362H28.19v2.131h2.131v-2.131zm4.137 0h-2.131v2.131h2.131v-2.131zm6.207 0h-2.131v2.131h2.131v-2.131zm10.345 0h-2.131v2.131h2.131v-2.131zm10.346 0h-2.131v2.131h2.131v-2.131zm4.137 0h-2.131v2.131h2.131v-2.131zm-39.31 2.069h-2.131v2.131h2.131v-2.131z"/><path d="M32.39 65.431h-2.131v2.131h2.131v-2.131z"/><path d="M34.458 65.431h-2.131v2.131h2.131v-2.131zm6.207 0h-2.131v2.131h2.131v-2.131zm4.139 0h-2.131v2.131h2.131v-2.131zm4.138 0h-2.131v2.131h2.131v-2.131zm4.137 0h-2.131v2.131h2.131v-2.131z"/><path d="M55.149 65.431h-2.131v2.131h2.131v-2.131zm8.275 0h-2.131v2.131h2.131v-2.131zM7.5 7.5v14.483h14.483V7.5H7.5zm12.414 12.414H9.569V9.569h10.345v10.345zM53.018 7.5v14.483H67.5V7.5H53.018zm12.414 12.414H55.087V9.569h10.345v10.345zM7.5 53.018V67.5h14.483V53.018H7.5zm12.414 12.414H9.569V55.087h10.345v10.345zm-2.069-53.794h-6.207v6.207h6.207v-6.207zm45.517 0h-6.207v6.207h6.207v-6.207zM17.845 57.155h-6.207v6.207h6.207v-6.207z"/></g></g><defs><linearGradient id="A" x1="101.893" y1="14.405" x2="87.143" y2="15.505" gradientUnits="userSpaceOnUse"><stop stop-color="#00a0ff"/><stop offset=".007" stop-color="#00a1ff"/><stop offset=".26" stop-color="#00beff"/><stop offset=".512" stop-color="#00d2ff"/><stop offset=".76" stop-color="#00dfff"/><stop offset="1" stop-color="#00e3ff"/></linearGradient><linearGradient id="B" x1="112.323" y1="17.001" x2="91.353" y2="17.001" gradientUnits="userSpaceOnUse"><stop stop-color="#ffe000"/><stop offset=".409" stop-color="#ffbd00"/><stop offset=".775" stop-color="orange"/><stop offset="1" stop-color="#ff9c00"/></linearGradient><linearGradient id="C" x1="102.387" y1="18.952" x2="95.114" y2="39.853" gradientUnits="userSpaceOnUse"><stop stop-color="#ff3a44"/><stop offset="1" stop-color="#c31162"/></linearGradient><linearGradient id="D" x1="93.392" y1=".15" x2="96.577" y2="9.475" gradientUnits="userSpaceOnUse"><stop stop-color="#32a071"/><stop offset=".069" stop-color="#2da771"/><stop offset=".476" stop-color="#15cf74"/><stop offset=".801" stop-color="#06e775"/><stop offset="1" stop-color="#00f076"/></linearGradient><clipPath id="E"><path fill="#fff" transform="translate(83 41)" d="M0 0h117v34H0z"/></clipPath><clipPath id="F"><path fill="#fff" transform="translate(83)" d="M0 0h117v34H0z"/></clipPath><clipPath id="G"><path fill="#fff" d="M0 0h75v75H0z"/></clipPath><path id="H" d="M28.252 7.5h-2.131v2.131h2.131V7.5z"/><path id="I" d="M26.183 11.638h-2.131v2.131h2.131v-2.131z"/><path id="J" d="M30.321 19.914H28.19v2.131h2.131v-2.131z"/><path id="K" d="M9.631 24.052H7.5v2.131h2.131v-2.131z"/><path id="L" d="M17.906 28.19h-2.131v2.131h2.131V28.19z"/></defs></svg>