<svg width="14" height="11" viewBox="0 0 14 11" fill="none" xmlns="http://www.w3.org/2000/svg">
<path d="M12.5 0H1.5C1.23478 0 0.98043 0.105357 0.792893 0.292893C0.605357 0.48043 0.5 0.734784 0.5 1V10C0.5 10.2652 0.605357 10.5196 0.792893 10.7071C0.98043 10.8946 1.23478 11 1.5 11H12.5C12.7652 11 13.0196 10.8946 13.2071 10.7071C13.3946 10.5196 13.5 10.2652 13.5 10V1C13.5 0.734784 13.3946 0.48043 13.2071 0.292893C13.0196 0.105357 12.7652 0 12.5 0ZM7 7.5C6.20435 7.5 5.44129 7.18393 4.87868 6.62132C4.31607 6.05871 4 5.29565 4 4.5C4 4.36739 4.05268 4.24021 4.14645 4.14645C4.24021 4.05268 4.36739 4 4.5 4C4.63261 4 4.75979 4.05268 4.85355 4.14645C4.94732 4.24021 5 4.36739 5 4.5C5 5.03043 5.21071 5.53914 5.58579 5.91421C5.96086 6.28929 6.46957 6.5 7 6.5C7.53043 6.5 8.03914 6.28929 8.41421 5.91421C8.78929 5.53914 9 5.03043 9 4.5C9 4.36739 9.05268 4.24021 9.14645 4.14645C9.24021 4.05268 9.36739 4 9.5 4C9.63261 4 9.75979 4.05268 9.85355 4.14645C9.94732 4.24021 10 4.36739 10 4.5C10 5.29565 9.68393 6.05871 9.12132 6.62132C8.55871 7.18393 7.79565 7.5 7 7.5ZM1.5 2V1H12.5V2H1.5Z" fill="#7DDBF9"/>
</svg>
