<svg width="16" height="17" viewBox="0 0 16 17" fill="none" xmlns="http://www.w3.org/2000/svg">
<g clip-path="url(#clip0_65_3702)">
<path d="M8.86269 0.500001C9.09789 0.500001 9.30829 0.646401 9.38749 0.865601L9.95229 2.4312C10.1547 2.4816 10.3283 2.532 10.4755 2.5848C10.6363 2.6424 10.8435 2.7296 11.0995 2.8488L12.4147 2.1528C12.522 2.09593 12.6449 2.0754 12.765 2.09429C12.885 2.11319 12.9956 2.17049 13.0803 2.2576L14.2371 3.4536C14.3907 3.6128 14.4339 3.8456 14.3475 4.0488L13.7307 5.4944C13.8331 5.6824 13.9147 5.8432 13.9771 5.9776C14.0443 6.124 14.1275 6.3256 14.2267 6.5856L15.6643 7.2016C15.8803 7.2936 16.0139 7.5096 15.9995 7.7408L15.8939 9.4008C15.8867 9.50865 15.848 9.612 15.7825 9.69804C15.7171 9.78407 15.6279 9.84902 15.5259 9.8848L14.1643 10.3688C14.1251 10.5568 14.0843 10.7176 14.0411 10.8536C13.9714 11.0636 13.8919 11.2703 13.8027 11.4728L14.4867 12.9848C14.535 13.091 14.548 13.2099 14.5238 13.3241C14.4996 13.4383 14.4395 13.5417 14.3523 13.6192L13.0515 14.7808C12.9658 14.857 12.8589 14.9052 12.7451 14.9189C12.6313 14.9326 12.516 14.9112 12.4147 14.8576L11.0739 14.1472C10.8641 14.2583 10.6477 14.3563 10.4259 14.4408L9.84029 14.66L9.32029 16.1C9.28176 16.2055 9.21225 16.2968 9.12088 16.362C9.02951 16.4273 8.92055 16.4634 8.80829 16.4656L7.28829 16.5C7.17306 16.503 7.05973 16.4703 6.96388 16.4062C6.86804 16.3422 6.7944 16.25 6.75309 16.1424L6.14029 14.5208C5.93121 14.4493 5.7242 14.372 5.51949 14.2888C5.35207 14.2163 5.18717 14.1382 5.02509 14.0544L3.50509 14.704C3.40494 14.7467 3.29452 14.7594 3.18729 14.7405C3.08005 14.7216 2.98062 14.672 2.90109 14.5976L1.77629 13.5424C1.69255 13.4642 1.63552 13.3616 1.61327 13.2492C1.59101 13.1368 1.60467 13.0202 1.65229 12.916L2.30589 11.492C2.21897 11.3233 2.13838 11.1515 2.06429 10.9768C1.97781 10.763 1.89778 10.5466 1.82429 10.328L0.392294 9.892C0.275895 9.85682 0.174369 9.78419 0.103486 9.68538C0.0326021 9.58658 -0.00367304 9.46714 0.000293975 9.3456L0.056294 7.8088C0.06028 7.70853 0.0916033 7.61126 0.146876 7.5275C0.202149 7.44375 0.279269 7.3767 0.369894 7.3336L1.87229 6.612C1.94189 6.3568 2.00269 6.1584 2.05629 6.0136C2.13177 5.8202 2.21558 5.63015 2.30749 5.444L1.65629 4.068C1.60687 3.96351 1.59187 3.84603 1.61343 3.73247C1.63499 3.61891 1.69201 3.51511 1.77629 3.436L2.89949 2.3752C2.97823 2.30094 3.07675 2.25101 3.1832 2.23143C3.28964 2.21184 3.39948 2.22343 3.49949 2.2648L5.01789 2.892C5.18589 2.78 5.33789 2.6896 5.47549 2.6168C5.63949 2.5296 5.85869 2.4384 6.13469 2.34L6.66269 0.867201C6.70173 0.759416 6.77308 0.666307 6.86701 0.600586C6.96094 0.534866 7.07286 0.499739 7.18749 0.500001H8.86269ZM8.01949 6.1152C6.68589 6.1152 5.60509 7.1832 5.60509 8.5016C5.60509 9.82 6.68589 10.8888 8.01949 10.8888C9.35229 10.8888 10.4331 9.82 10.4331 8.5016C10.4331 7.1832 9.35309 6.1152 8.01949 6.1152Z" fill="#75B7ED"/>
</g>
<defs>
<clipPath id="clip0_65_3702">
<rect width="16" height="16" fill="white" transform="translate(0 0.5)"/>
</clipPath>
</defs>
</svg>
