<svg width="16" height="17" viewBox="0 0 16 17" fill="none" xmlns="http://www.w3.org/2000/svg">
<path d="M8 3.83301C7.38116 3.83301 6.78767 4.07884 6.35008 4.51643C5.9125 4.95401 5.66667 5.5475 5.66667 6.16634C5.66667 6.78518 5.9125 7.37867 6.35008 7.81626C6.78767 8.25384 7.38116 8.49967 8 8.49967C8.61884 8.49967 9.21233 8.25384 9.64992 7.81626C10.0875 7.37867 10.3333 6.78518 10.3333 6.16634C10.3333 5.5475 10.0875 4.95401 9.64992 4.51643C9.21233 4.07884 8.61884 3.83301 8 3.83301ZM8 5.16634C8.26522 5.16634 8.51957 5.2717 8.70711 5.45923C8.89464 5.64677 9 5.90112 9 6.16634C9 6.43156 8.89464 6.68591 8.70711 6.87345C8.51957 7.06098 8.26522 7.16634 8 7.16634C7.73478 7.16634 7.48043 7.06098 7.29289 6.87345C7.10536 6.68591 7 6.43156 7 6.16634C7 5.90112 7.10536 5.64677 7.29289 5.45923C7.48043 5.2717 7.73478 5.16634 8 5.16634ZM3.66667 5.83301C3.22464 5.83301 2.80072 6.0086 2.48816 6.32116C2.17559 6.63372 2 7.05765 2 7.49967C2 8.12634 2.35333 8.66634 2.86 8.95301C3.1 9.08634 3.37333 9.16634 3.66667 9.16634C3.96 9.16634 4.23333 9.08634 4.47333 8.95301C4.72 8.81301 4.92667 8.61301 5.08 8.37301C4.59432 7.74005 4.33178 6.96416 4.33333 6.16634V5.97967C4.13333 5.88634 3.90667 5.83301 3.66667 5.83301ZM12.3333 5.83301C12.0933 5.83301 11.8667 5.88634 11.6667 5.97967V6.16634C11.6667 6.96634 11.4067 7.73967 10.92 8.37301C11 8.49967 11.0867 8.59967 11.1867 8.69967C11.4941 8.99774 11.9051 9.16502 12.3333 9.16634C12.6267 9.16634 12.9 9.08634 13.14 8.95301C13.6467 8.66634 14 8.12634 14 7.49967C14 7.05765 13.8244 6.63372 13.5118 6.32116C13.1993 6.0086 12.7754 5.83301 12.3333 5.83301ZM8 9.83301C6.44 9.83301 3.33333 10.613 3.33333 12.1663V13.1663H12.6667V12.1663C12.6667 10.613 9.56 9.83301 8 9.83301ZM3.14 10.1997C1.85333 10.353 0 11.0063 0 12.1663V13.1663H2V11.8797C2 11.2063 2.46 10.6463 3.14 10.1997ZM12.86 10.1997C13.54 10.6463 14 11.2063 14 11.8797V13.1663H16V12.1663C16 11.0063 14.1467 10.353 12.86 10.1997ZM8 11.1663C9.02 11.1663 10.16 11.4997 10.82 11.833H5.18C5.84 11.4997 6.98 11.1663 8 11.1663Z" fill="#FFC000"/>
</svg>
