<svg xmlns="http://www.w3.org/2000/svg" width="134" height="40" fill="#1772bd" xmlns:v="https://vecta.io/nano"><path fill-rule="evenodd" d="M47.55 20.246l-.525-.449c-1.334-1.143-2.611-2.229-4.185-3.184 1.305-2.344 2.072-5.615.482-8.09-.965-1.491-2.454-2.344-4.114-2.344-1.504 0-2.923.724-3.902 1.997-1.915 2.489-1.149 5.962.27 8.509l-1.22.781c-1.532-2.417-3.689-4.501-6.427-6.194.823-1.867 2.142-5.89 0-8.972C26.892.839 25.417 0 23.87 0s-3.022.839-4.044 2.301c-2.142 3.082-.823 7.106 0 8.972-2.724 1.693-4.881 3.777-6.427 6.194l-1.22-.781c1.419-2.547 2.199-6.035.27-8.509-.979-1.274-2.398-1.997-3.902-1.997-1.66 0-3.164.854-4.115 2.344-1.603 2.475-.823 5.745.468 8.09-1.632.984-2.852 2.055-4.256 3.285l-.525.463a.36.36 0 0 0-.071.449c.057.101.17.174.298.174.043 0 .085-.015.128-.029l1.348-.564 6.172-2.286c.099-.029.184-.101.227-.203a.33.33 0 0 0-.014-.304l-.383-.767c-.596-1.172-1.915-4.095-1.433-5.933.27-1.056 1.149-1.766 2.185-1.766.298 0 .596.058.88.174.865.347 1.362 1.129 1.362 2.127 0 1.997-1.234 4.559-1.759 5.557l-.355.666c-.043.087-.057.188-.028.275s.099.159.184.203l.667.304c.88.405 1.688.955 2.54 1.578-1.305 3.097-1.688 6.585-1.121 10.087.539 3.314 1.873 6.469 3.845 9.103l.497.666c.057.087.156.13.255.13h.014c.099 0 .184-.043.255-.116l.553-.622c2.27-2.547 3.689-5.847 3.902-9.074.27-4.023-1.249-7.728-4.384-10.738 1.49-2.706 3.76-4.891 6.541-6.324l.61-.318c.17-.087.241-.289.156-.463l-.312-.622c-1.263-2.561-2.341-5.456-.851-7.627.497-.709 1.149-1.114 1.844-1.114s1.348.391 1.845 1.114c1.49 2.171.397 5.065-.851 7.627l-.312.622c-.085.174-.014.376.156.463l.61.318c2.795 1.433 5.051 3.618 6.541 6.324-3.136 3.01-4.654 6.715-4.384 10.738.213 3.227 1.632 6.527 3.902 9.074l.553.622c.071.072.156.116.255.116h.014c.099 0 .199-.058.255-.13l.497-.666c1.986-2.648 3.32-5.789 3.845-9.103.568-3.502.17-6.99-1.121-10.087.865-.622 1.66-1.172 2.54-1.578l.667-.304c.085-.043.156-.116.184-.203s.028-.188-.028-.275l-.355-.666c-.525-1.013-1.759-3.56-1.759-5.557 0-.998.497-1.766 1.362-2.127.284-.116.582-.174.88-.174 1.022 0 1.901.709 2.185 1.766.482 1.852-.837 4.761-1.433 5.933l-.383.767c-.043.087-.057.203-.014.304s.128.174.227.203c1.745.492 3.306 1.114 4.952 1.766l2.511.97c.043.014.071.014.113.014.114 0 .241-.058.298-.174a.34.34 0 0 0-.071-.434zM31.986 35.861c-2.611-4.674-2.114-9.913 1.305-13.951 1.475 4.559 1.007 9.58-1.305 13.951zM14.45 21.91c3.433 4.023 3.916 9.276 1.305 13.951-2.313-4.37-2.781-9.392-1.305-13.951z"/><path d="M60.212 20.398c-.202 1.048-.766 1.572-1.592 1.572-.887 0-1.31-.584-1.088-1.793h-3.426c-.564 3.184 1.169 4.877 4.071 4.877 2.801 0 4.937-1.612 5.481-4.655l1.693-9.632h-3.446l-1.693 9.632zm17.555-2.156c0-2.841-2.035-4.736-4.978-4.736-3.99 0-6.952 2.962-6.952 6.852 0 2.841 1.995 4.715 4.937 4.715 3.95 0 6.993-2.902 6.993-6.831zm-8.383 1.814c0-1.794 1.108-3.587 2.902-3.587 1.048 0 1.915.685 1.915 2.096 0 1.753-1.169 3.547-2.942 3.547-1.068 0-1.874-.685-1.874-2.055zm14.221-4.796l.947-5.26h-3.446l-2.64 14.912h3.446l.282-1.572c.463.987 1.511 1.733 3.164 1.733 2.761 0 5.34-2.257 5.965-5.804s-1.149-5.763-3.93-5.763c-1.612 0-2.962.746-3.788 1.753zm4.232 4.01c-.322 1.794-1.673 2.801-2.982 2.801-1.29 0-2.277-.987-1.955-2.781s1.652-2.781 2.962-2.781c1.29 0 2.277.967 1.975 2.761zm14.02 2.317c0-3.466-5.582-3.023-5.582-4.675 0-.564.564-.907 1.33-.907 1.008 0 1.572.524 1.511 1.33h3.124c.181-2.176-1.592-3.829-4.555-3.829-2.821 0-4.675 1.471-4.675 3.466 0 3.668 5.562 3.083 5.562 4.695 0 .605-.685.927-1.491.927-1.008 0-1.612-.524-1.552-1.37h-3.325c-.363 2.277 1.713 3.849 4.615 3.849 2.882 0 5.038-1.27 5.038-3.486zm2.249-3.708c-.745 4.212 1.935 7.154 5.884 7.154 3.769 0 6.993-2.761 8.001-6.005l.322-1.793h-7.718l-.322 1.793h5.259c-.745 2.378-2.64 3.93-5.179 3.93-2.781 0-4.433-1.995-3.889-5.078s2.902-5.058 5.683-5.058c1.672 0 2.881.705 3.385 2.116h2.761c-.584-2.741-2.862-4.212-5.784-4.212-3.949 0-7.657 2.962-8.403 7.154zM134 16.61c0-3.446-2.358-5.884-5.985-5.884-4.776 0-8.323 3.567-8.323 8.423 0 3.466 2.378 5.904 5.965 5.904 4.816 0 8.343-3.567 8.343-8.444zm-11.93 2.398c0-3.365 2.237-6.187 5.622-6.187 2.479 0 3.93 1.511 3.93 3.95 0 3.345-2.257 6.207-5.642 6.207-2.459 0-3.91-1.531-3.91-3.97zM57.171 34.933c-.117.617-.521 1.148-1.276 1.148-.776 0-.999-.542-.883-1.223h-.968c-.234 1.297.457 2.084 1.691 2.084 1.223 0 2.18-.776 2.403-2.01l.968-5.476h-.978l-.957 5.476zm8.637-1.552c0-1.478-1.021-2.435-2.499-2.435-2.02 0-3.509 1.606-3.509 3.594 0 1.457.989 2.424 2.467 2.424 2.01 0 3.541-1.584 3.541-3.583zM60.8 34.497c0-1.446.946-2.733 2.371-2.733.883 0 1.637.542 1.637 1.669 0 1.425-1.01 2.712-2.424 2.712-.872 0-1.584-.553-1.584-1.648zm7.514-2.371L68.867 29h-.968l-1.393 7.869h.968l.191-1.074c.255.638.914 1.17 1.978 1.17 1.563 0 2.977-1.223 3.296-3.031.319-1.818-.659-2.988-2.244-2.988a3.01 3.01 0 0 0-2.382 1.18zm3.636 1.808c-.244 1.372-1.287 2.18-2.36 2.18-1.053 0-1.84-.797-1.595-2.169.245-1.35 1.308-2.158 2.361-2.158 1.074 0 1.84.776 1.595 2.148zm6.134 1.35c0-1.829-2.935-1.446-2.935-2.701 0-.532.5-.861 1.191-.861.755 0 1.244.415 1.17 1.053h.925c.138-1.095-.766-1.829-2.031-1.829-1.297 0-2.222.67-2.222 1.669 0 1.903 2.945 1.51 2.945 2.701 0 .564-.564.872-1.329.872-.808 0-1.233-.436-1.18-1.031h-.946c-.128 1.106.808 1.808 2.073 1.808 1.34 0 2.339-.638 2.339-1.68zm10.434-1.903c0-1.478-1.021-2.435-2.499-2.435-2.02 0-3.509 1.606-3.509 3.594 0 1.457.989 2.424 2.467 2.424 2.01 0 3.541-1.584 3.541-3.583zm-5.008 1.117c0-1.446.946-2.733 2.371-2.733.883 0 1.638.542 1.638 1.669 0 1.425-1.01 2.712-2.424 2.712-.872 0-1.584-.553-1.584-1.648zm9.97 2.371h.957l.606-3.435c.298-1.669-.596-2.499-1.935-2.499-.787 0-1.553.33-2.042.946l.149-.84h-.968l-1.031 5.827h.968l.574-3.243v.021c.223-1.255 1.01-1.871 1.999-1.871.978 0 1.51.606 1.308 1.797l-.585 3.296zm6.194-1.595c-.202 1.17.308 1.595 1.34 1.595h.872l.149-.819h-.713c-.595 0-.776-.202-.67-.776l.606-3.435h1.521l.138-.797h-1.51l.255-1.467h-.978l-.255 1.467h-.755l-.138.797h.744l-.606 3.435zm3.384 1.595h.968l.574-3.243v.021c.223-1.255 1.01-1.871 1.999-1.871.978 0 1.51.606 1.308 1.797l-.585 3.296h.957l.606-3.435c.298-1.669-.585-2.499-1.882-2.499-.819 0-1.606.34-2.095.946l.511-2.882h-.968l-1.393 7.869zm10.183-5.104c.999 0 1.733.627 1.52 1.818h-3.689c.297-1.17 1.212-1.818 2.169-1.818zm2.137 3.307h-1.042c-.319.627-.946 1.074-1.818 1.074-1.01 0-1.723-.67-1.574-1.861h4.657c.064-.202.107-.372.139-.574.276-1.574-.628-2.765-2.318-2.765s-3.084 1.159-3.414 2.999c-.329 1.85.702 3.02 2.361 3.02 1.446 0 2.52-.829 3.009-1.893zm4.54-1.914c-.393 2.222.968 3.775 3.052 3.775 2.01 0 3.732-1.478 4.221-3.318l.139-.744h-3.988l-.138.766h2.956c-.404 1.489-1.574 2.424-3.041 2.424-1.563 0-2.52-1.127-2.212-2.903.319-1.786 1.68-2.914 3.243-2.914 1.042 0 1.765.5 2.021 1.361h1.159c-.309-1.425-1.457-2.233-3.031-2.233-2.084 0-3.987 1.563-4.381 3.785zm14.082.223c0-1.478-1.021-2.435-2.499-2.435-2.02 0-3.509 1.606-3.509 3.594 0 1.457.989 2.424 2.467 2.424 2.01 0 3.541-1.584 3.541-3.583zm-5.008 1.117c0-1.446.946-2.733 2.371-2.733.883 0 1.637.542 1.637 1.669 0 1.425-1.01 2.712-2.424 2.712-.872 0-1.584-.553-1.584-1.648z"/></svg>