<svg xmlns="http://www.w3.org/2000/svg" width="60" height="60" fill="none" xmlns:v="https://vecta.io/nano"><path fill="#fff" d="M0 0h60v60H0z"/><path d="M28.277 28.713v-2.844H18.271v2.844h10.007z" fill="#1772bd"/><g stroke="#344154" stroke-width="2" stroke-miterlimit="10"><path d="M46.796 3.882H13.164c-1.007 0-1.825.817-1.825 1.825v47.887c0 1.007.817 1.825 1.825 1.825h33.633c1.007 0 1.825-.817 1.825-1.825V5.707c0-1.011-.817-1.825-1.825-1.825z"/><path d="M43.386 9.112H16.569v5.903h26.817V9.112zm0 15.052H16.569v25.673h26.817V24.164z"/><path d="M23.298 30.5v19.341m6.68-25.677v25.855m6.679-25.678v25.855"/><path d="M43.386 30.41H16.569m26.817 6.684H16.569m26.817 6.679H16.569"/></g><path d="M32.693 10.817s-.508 1.519-2.832 2.498h11.823v-2.498h-8.991z" fill="#ffc524"/></svg>