<svg xmlns="http://www.w3.org/2000/svg" width="60" height="60" fill="none" xmlns:v="https://vecta.io/nano"><path fill="#fff" d="M0 0h60v60H0z"/><g stroke="#344154" stroke-width="2" stroke-miterlimit="10"><path d="M34.206 42.151H23.874l-.07-2.427.008-.442h.322a2.51 2.51 0 0 0 2.506-2.506c0-1.375-1.102-2.485-2.473-2.506.314-2.382.813-4.739 1.461-7.051l1.569-4.785 1.028-2.403c.471-.983.879-2.006 1.127-3.071.462-2.01.194-4.132-.735-5.969A9.18 9.18 0 0 0 20.497 6c-3.398 0-6.584 1.957-8.12 4.991-.929 1.837-1.197 3.959-.735 5.969.248 1.065.656 2.085 1.127 3.071l1.028 2.403 1.569 4.785c.648 2.308 1.148 4.669 1.461 7.051-1.371.017-2.473 1.131-2.473 2.506a2.51 2.51 0 0 0 2.506 2.506h.322l.008.442-.07 2.427H6.787c-2.345 0-4.244 1.899-4.244 4.244v4.884h35.903v-4.884c.004-2.345-1.895-4.244-4.24-4.244z"/><path d="M5.52 54.603h29.954M20.496 9.038a6.03 6.03 0 0 0-6.027 6.027" stroke-linecap="round"/><path d="M48.734 35.481c4.807-2.572 6.617-8.554 4.045-13.361s-8.554-6.617-13.361-4.045-6.617 8.554-4.045 13.361 8.554 6.617 13.361 4.045z"/><path d="M40.263 30.588l7.612-7.612m-3.521 8.76l4.669-4.665m-5.243-5.243l-4.665 4.669" stroke-linecap="round"/></g></svg>