<svg width="60" height="60" viewBox="0 0 60 60" fill="none" xmlns="http://www.w3.org/2000/svg">
<rect width="60" height="60" fill="white"/>
<path d="M27.6109 49.2383H24.7702H19.5817C19.1974 49.2383 18.859 49.4849 18.7421 49.8527L17.2131 55.5243C17.1045 55.8629 17.3551 56.2056 17.7102 56.2056H24.7744H26.0151" stroke="#344154" stroke-width="2" stroke-miterlimit="10" stroke-linecap="round" stroke-linejoin="round"/>
<path d="M45.4746 49.2383H48.3153H53.5079C53.8923 49.2383 54.2306 49.4849 54.3476 49.8527L55.8766 55.5243C55.9852 55.8629 55.7345 56.2056 55.3795 56.2056H48.3153H47.0746" stroke="#344154" stroke-width="2" stroke-miterlimit="10" stroke-linecap="round" stroke-linejoin="round"/>
<path d="M42.955 48.169C42.8047 47.7051 42.3744 47.3916 41.8898 47.3916H37.7833H31.2163C30.7317 47.3916 30.3014 47.7051 30.151 48.169L28.221 55.3453C28.0832 55.7717 28.4006 56.2105 28.8476 56.2105H37.7833H44.2584C44.7054 56.2105 45.0229 55.7717 44.8851 55.3453L42.955 48.169Z" stroke="#344154" stroke-width="2" stroke-miterlimit="10" stroke-linecap="round" stroke-linejoin="round"/>
<path d="M31.2578 53.6986L32.2813 49.8994H40.8285L41.8478 53.6986H31.2578Z" fill="#FFC524"/>
<path d="M42.2907 42.6604L41.025 37.9584C40.9205 37.6366 40.6197 37.415 40.2814 37.415H37.4156H32.8287C32.4903 37.415 32.1896 37.6324 32.0851 37.9584L30.8193 42.6604" stroke="#344154" stroke-width="2" stroke-miterlimit="10" stroke-linecap="round" stroke-linejoin="round"/>
<path d="M22.2012 49.2388L23.8638 43.2411C23.9766 42.8942 24.2941 42.6602 24.6575 42.6602H29.5577H32.624C32.9875 42.6602 33.3091 42.8942 33.4178 43.2411L34.5164 47.3914" stroke="#344154" stroke-width="2" stroke-miterlimit="10" stroke-linecap="round" stroke-linejoin="round"/>
<path d="M50.8171 49.2388L49.1545 43.2411C49.0417 42.8942 48.7242 42.6602 48.3607 42.6602H43.4605H40.3943C40.0308 42.6602 39.7091 42.8942 39.6005 43.2411L38.5186 47.3914" stroke="#344154" stroke-width="2" stroke-miterlimit="10" stroke-linecap="round" stroke-linejoin="round"/>
<path d="M30.8195 35.254H9.20508V8.20801H46.6355V35.254H42.2909" stroke="#344154" stroke-width="2" stroke-miterlimit="10" stroke-linecap="round" stroke-linejoin="round"/>
<path d="M22.4019 40.4573H5.85063C4.83132 40.4573 4 39.6298 4 38.6058V4.85152C4 3.83171 4.82714 3 5.85063 3H49.9859C51.0052 3 51.8365 3.82753 51.8365 4.85152V38.6058C51.8365 39.6256 51.0094 40.4573 49.9859 40.4573" stroke="#344154" stroke-width="2" stroke-miterlimit="10" stroke-linecap="round" stroke-linejoin="round"/>
<path d="M17.9945 42.6436V44.4449H9.20508V42.6436" stroke="#344154" stroke-width="2" stroke-miterlimit="10" stroke-linecap="round" stroke-linejoin="round"/>
<path d="M31.1123 17.8789H32.7541" stroke="#344154" stroke-width="2" stroke-miterlimit="10" stroke-linecap="round" stroke-linejoin="round"/>
<path d="M35.4609 17.8789H37.1027" stroke="#344154" stroke-width="2" stroke-miterlimit="10" stroke-linecap="round" stroke-linejoin="round"/>
<path d="M39.8096 17.8789H41.4513" stroke="#344154" stroke-width="2" stroke-miterlimit="10" stroke-linecap="round" stroke-linejoin="round"/>
<path d="M31.1123 21.7285H32.7541" stroke="#344154" stroke-width="2" stroke-miterlimit="10" stroke-linecap="round" stroke-linejoin="round"/>
<path d="M35.4609 21.7285H37.1027" stroke="#344154" stroke-width="2" stroke-miterlimit="10" stroke-linecap="round" stroke-linejoin="round"/>
<path d="M39.8096 21.7285H41.4513" stroke="#344154" stroke-width="2" stroke-miterlimit="10" stroke-linecap="round" stroke-linejoin="round"/>
<path d="M31.1123 25.5781H32.7541" stroke="#344154" stroke-width="2" stroke-miterlimit="10" stroke-linecap="round" stroke-linejoin="round"/>
<path d="M35.4609 25.5781H37.1027" stroke="#344154" stroke-width="2" stroke-miterlimit="10" stroke-linecap="round" stroke-linejoin="round"/>
<path d="M39.8096 25.5781H41.4513" stroke="#344154" stroke-width="2" stroke-miterlimit="10" stroke-linecap="round" stroke-linejoin="round"/>
<path d="M22.5929 27.9763C26.0474 26.5611 27.7012 22.6121 26.2868 19.1558C24.8723 15.6996 20.9253 14.045 17.4708 15.4601C14.0163 16.8753 12.3624 20.8243 13.7769 24.2805C15.1913 27.7367 19.1384 29.3914 22.5929 27.9763Z" stroke="#344154" stroke-width="2" stroke-miterlimit="10" stroke-linecap="round" stroke-linejoin="round"/>
<path d="M20.0498 14.9658V19.6386" stroke="#344154" stroke-width="2" stroke-miterlimit="10" stroke-linecap="round" stroke-linejoin="round"/>
<path d="M22.1429 21.7287C22.1429 22.8823 21.2071 23.8227 20.05 23.8227C18.897 23.8227 17.957 22.8865 17.957 21.7287C17.957 20.571 18.8928 19.6348 20.05 19.6348C21.2071 19.6389 22.1429 20.5752 22.1429 21.7287Z" stroke="#344154" stroke-width="2" stroke-miterlimit="10" stroke-linecap="round" stroke-linejoin="round"/>
</svg>
