<svg width="60" height="60" viewBox="0 0 60 60" fill="none" xmlns="http://www.w3.org/2000/svg">
<rect width="60" height="60" fill="white"/>
<path d="M30.0347 4L19 25.8094L23.9786 35.1144H30.0347H36.0908L41.0695 25.8094L30.0347 4Z" stroke="#344154" stroke-width="2" stroke-miterlimit="10" stroke-linecap="round" stroke-linejoin="round"/>
<path d="M32.7709 23.7575C32.7709 22.2466 31.5448 21.0205 30.0339 21.0205C28.523 21.0205 27.2969 22.2466 27.2969 23.7575C27.2969 25.2684 28.523 26.4945 30.0339 26.4945C31.5448 26.4945 32.7709 25.2684 32.7709 23.7575Z" stroke="#344154" stroke-width="2" stroke-miterlimit="10" stroke-linecap="round" stroke-linejoin="round"/>
<path d="M30.0342 21.0206V4" stroke="#344154" stroke-width="2" stroke-miterlimit="10" stroke-linecap="round" stroke-linejoin="round"/>
<path d="M36.1772 35.1143H23.8916V44.4729H36.1772V35.1143Z" stroke="#344154" stroke-width="2" stroke-miterlimit="10" stroke-linecap="round" stroke-linejoin="round"/>
<path d="M35.7608 44.4727C37.9323 46.6441 39.1501 49.5876 39.1501 52.659V56.7459H29.618H30.035H20.5029V52.659C20.5029 49.5876 21.7207 46.6441 23.8922 44.4727" stroke="#344154" stroke-width="2" stroke-miterlimit="10" stroke-linecap="round" stroke-linejoin="round"/>
<path d="M24.2431 56.7543C24.2431 56.7543 23.7849 50.8344 25.0481 48.374" stroke="#344154" stroke-width="2" stroke-miterlimit="10" stroke-linecap="round" stroke-linejoin="round"/>
</svg>
