<svg width="322" height="96" viewBox="0 0 322 96" fill="none" xmlns="http://www.w3.org/2000/svg">
<path fill-rule="evenodd" clip-rule="evenodd" d="M114.12 48.5905L112.86 47.5137C109.66 44.7699 106.595 42.165 102.815 39.8726C105.948 34.246 107.787 26.3965 103.973 20.4573C101.658 16.8799 98.0822 14.8307 94.0982 14.8307C90.4888 14.8307 87.0837 16.5673 84.7341 19.6237C80.1372 25.5977 81.976 33.9334 85.3811 40.0463C84.3596 40.6715 83.3721 41.2967 82.4527 41.9219C78.7752 36.1216 73.5994 31.1201 67.0275 27.0564C69.0025 22.576 72.1692 12.9204 67.0275 5.52243C64.5418 2.01447 61.0004 0 57.2888 0C53.5773 0 50.0359 2.01447 47.5842 5.52243C42.4425 12.9204 45.6093 22.576 47.5842 27.0564C41.0464 31.1201 35.8706 36.1216 32.159 41.9219C31.2056 41.2619 30.2521 40.6368 29.2306 40.0463C32.6357 33.9334 34.5085 25.563 29.8776 19.6237C27.528 16.5673 24.1229 14.8307 20.5135 14.8307C16.5295 14.8307 12.9201 16.8799 10.6386 20.4573C6.79083 26.3965 8.66365 34.246 11.7623 39.8726C7.84642 42.2344 4.91801 44.8046 1.54694 47.7569L0.287041 48.8683C-0.0194207 49.1462 -0.0875223 49.5977 0.116785 49.945C0.25299 50.1881 0.5254 50.3618 0.831862 50.3618C0.934015 50.3618 1.03617 50.3271 1.13832 50.2923C2.22796 49.8408 3.3176 49.3893 4.37319 48.9378C9.24252 46.8886 13.8394 44.9783 19.1855 43.4501C19.4238 43.3806 19.6282 43.2069 19.7303 42.9638C19.8325 42.7207 19.8325 42.4776 19.6963 42.2344L18.7769 40.3936C17.3467 37.5803 14.18 30.5644 15.3377 26.1534C15.9847 23.6179 18.0958 21.9161 20.5816 21.9161C21.2967 21.9161 22.0117 22.055 22.6928 22.3329C24.7699 23.1664 25.9617 25.042 25.9617 27.4385C25.9617 32.2315 22.9992 38.3792 21.7393 40.7757L20.888 42.3734C20.7859 42.5818 20.7518 42.8249 20.8199 43.0333C20.888 43.2417 21.0583 43.4153 21.2626 43.5195L22.863 44.2489C24.9742 45.2214 26.9151 46.5412 28.9582 48.0347C25.8255 55.4674 24.9061 63.8379 26.2681 72.2431C27.5621 80.1968 30.7629 87.7685 35.496 94.0897L36.6878 95.6874C36.824 95.8958 37.0624 96 37.3008 96H37.3348C37.5732 96 37.7775 95.8958 37.9477 95.7221L39.2757 94.2287C44.7239 88.1158 48.1291 80.1968 48.6398 72.4515C49.2868 62.796 45.6433 53.9045 38.118 46.6802C41.6934 40.1852 47.1416 34.9407 53.8156 31.5022L55.2798 30.7381C55.6884 30.5297 55.8587 30.0434 55.6544 29.6266L54.9053 28.1331C51.8747 21.9855 49.2868 15.0391 52.8622 9.82923C54.054 8.12735 55.6203 7.15485 57.2888 7.15485C58.9573 7.15485 60.5237 8.09262 61.7155 9.82923C65.2909 15.0391 62.6689 21.9855 59.6724 28.1331L58.9233 29.6266C58.719 30.0434 58.8892 30.5297 59.2979 30.7381L60.7621 31.5022C67.4702 34.9407 72.8843 40.1852 76.4597 46.6802C68.9344 53.9045 65.2909 62.796 65.9379 72.4515C66.4486 80.1968 69.8537 88.1158 75.3019 94.2287L76.63 95.7221C76.8002 95.8958 77.0045 96 77.2429 96H77.2769C77.5153 96 77.7536 95.8611 77.8898 95.6874L79.0816 94.0897C83.8488 87.7337 87.0496 80.1968 88.3095 72.2431C89.6716 63.8379 88.7181 55.4674 85.6195 48.0347C87.6966 46.5412 89.6035 45.2214 91.7147 44.2489L93.3151 43.5195C93.5194 43.4153 93.6896 43.2417 93.7577 43.0333C93.8258 42.8249 93.8258 42.5818 93.6896 42.3734L92.8383 40.7757C91.5785 38.3444 88.616 32.2315 88.616 27.4385C88.616 25.042 89.8078 23.2012 91.8849 22.3329C92.5659 22.055 93.281 21.9161 93.9961 21.9161C96.4478 21.9161 98.559 23.6179 99.24 26.1534C100.398 30.5991 97.2309 37.5803 95.8008 40.3936L94.8814 42.2344C94.7793 42.4428 94.7452 42.7207 94.8474 42.9638C94.9495 43.2069 95.1538 43.3806 95.3922 43.4501C99.5805 44.631 103.326 46.1245 107.276 47.6874C109.217 48.4515 111.226 49.2504 113.303 50.0145C113.405 50.0492 113.473 50.0492 113.576 50.0492C113.848 50.0492 114.154 49.9103 114.291 49.6324C114.495 49.2851 114.427 48.8683 114.12 48.5905ZM76.7662 86.0666C70.5007 74.8481 71.6925 62.275 79.8989 52.5847C83.4402 63.5253 82.3165 75.5774 76.7662 86.0666ZM34.6788 52.5847C42.9192 62.2402 44.077 74.8481 37.8115 86.0666C32.2612 75.5774 31.1375 63.5253 34.6788 52.5847Z" fill="#1772BD"/>
<path d="M144.509 48.9559C144.025 51.4709 142.671 52.7284 140.688 52.7284C138.56 52.7284 137.544 51.3258 138.076 48.4239H129.855C128.5 56.0655 132.66 60.1281 139.624 60.1281C146.347 60.1281 151.473 56.2589 152.779 48.9559L156.842 25.8378H148.572L144.509 48.9559Z" fill="#1772BD"/>
<path d="M186.64 43.781C186.64 36.9616 181.755 32.4154 174.694 32.4154C165.118 32.4154 158.009 39.5249 158.009 48.8592C158.009 55.6786 162.797 60.1764 169.858 60.1764C179.337 60.1764 186.64 53.212 186.64 43.781ZM166.521 48.1338C166.521 43.8293 169.181 39.5249 173.485 39.5249C176 39.5249 178.08 41.1693 178.08 44.5548C178.08 48.7625 175.275 53.0669 171.019 53.0669C168.455 53.0669 166.521 51.4225 166.521 48.1338Z" fill="#1772BD"/>
<path d="M200.652 36.6231L202.925 24H194.655L188.319 59.7895H196.59L197.267 56.0171C198.379 58.387 200.894 60.1764 204.86 60.1764C211.486 60.1764 217.676 54.7597 219.176 46.2475C220.675 37.7354 216.419 32.4154 209.745 32.4154C205.876 32.4154 202.635 34.2049 200.652 36.6231ZM210.809 46.2475C210.035 50.552 206.795 52.9702 203.651 52.9702C200.556 52.9702 198.186 50.6003 198.96 46.2959C199.733 41.9915 202.925 39.6216 206.069 39.6216C209.164 39.6216 211.534 41.9431 210.809 46.2475Z" fill="#1772BD"/>
<path d="M244.456 51.8094C244.456 43.4908 231.059 44.5548 231.059 40.5889C231.059 39.2347 232.414 38.4125 234.251 38.4125C236.67 38.4125 238.024 39.67 237.879 41.6046H245.375C245.81 36.3812 241.554 32.4154 234.445 32.4154C227.674 32.4154 223.224 35.946 223.224 40.734C223.224 49.5363 236.573 48.1338 236.573 52.0029C236.573 53.4538 234.929 54.2276 232.994 54.2276C230.576 54.2276 229.125 52.9702 229.27 50.9389H221.29C220.419 56.404 225.401 60.1764 232.365 60.1764C239.281 60.1764 244.456 57.1295 244.456 51.8094Z" fill="#1772BD"/>
<path d="M249.855 42.9104C248.065 53.0185 254.498 60.0797 263.977 60.0797C273.021 60.0797 280.759 53.4538 283.178 45.6672L283.951 41.3628H265.428L264.654 45.6672H277.277C275.488 51.3742 270.941 55.0982 264.847 55.0982C258.173 55.0982 254.207 50.3101 255.513 42.9104C256.819 35.5107 262.478 30.771 269.152 30.771C273.166 30.771 276.068 32.4637 277.277 35.8492H283.903C282.5 29.2717 277.035 25.7411 270.022 25.7411C260.543 25.7411 251.644 32.8507 249.855 42.9104Z" fill="#1772BD"/>
<path d="M321.6 39.8635C321.6 31.5932 315.941 25.7411 307.236 25.7411C295.773 25.7411 287.261 34.3016 287.261 45.9574C287.261 54.276 292.968 60.1281 301.577 60.1281C313.136 60.1281 321.6 51.5676 321.6 39.8635ZM292.968 45.6188C292.968 37.542 298.337 30.771 306.462 30.771C312.411 30.771 315.893 34.3983 315.893 40.2504C315.893 48.2788 310.476 55.1466 302.351 55.1466C296.45 55.1466 292.968 51.4709 292.968 45.6188Z" fill="#1772BD"/>
<path d="M132.761 88V73.4545H137.676C138.813 73.4545 139.745 73.6487 140.475 74.0369C141.204 74.4205 141.743 74.9484 142.094 75.6207C142.444 76.2931 142.619 77.0578 142.619 77.9148C142.619 78.7718 142.444 79.5317 142.094 80.1946C141.743 80.8575 141.206 81.3783 140.482 81.7571C139.757 82.1312 138.832 82.3182 137.705 82.3182H133.727V80.7273H137.648C138.424 80.7273 139.049 80.6136 139.523 80.3864C140.001 80.1591 140.347 79.8371 140.56 79.4205C140.778 78.9991 140.886 78.4972 140.886 77.9148C140.886 77.3324 140.778 76.8234 140.56 76.3878C140.342 75.9522 139.994 75.616 139.516 75.3793C139.038 75.1378 138.405 75.017 137.619 75.017H134.523V88H132.761ZM139.608 81.4659L143.188 88H141.142L137.619 81.4659H139.608Z" fill="#1772BD"/>
<path d="M149.784 88.2273C148.733 88.2273 147.826 87.9953 147.064 87.5312C146.306 87.0625 145.721 86.4091 145.309 85.571C144.902 84.7282 144.699 83.7481 144.699 82.6307C144.699 81.5133 144.902 80.5284 145.309 79.6761C145.721 78.8191 146.294 78.1515 147.028 77.6733C147.767 77.1903 148.629 76.9489 149.613 76.9489C150.182 76.9489 150.743 77.0436 151.297 77.233C151.851 77.4223 152.355 77.7301 152.809 78.1562C153.264 78.5777 153.626 79.1364 153.896 79.8324C154.166 80.5284 154.301 81.3854 154.301 82.4034V83.1136H145.892V81.6648H152.596C152.596 81.0492 152.473 80.5 152.227 80.017C151.986 79.5341 151.64 79.1529 151.19 78.8736C150.745 78.5942 150.219 78.4545 149.613 78.4545C148.946 78.4545 148.368 78.6203 147.88 78.9517C147.397 79.2784 147.026 79.7045 146.765 80.2301C146.505 80.7557 146.375 81.3191 146.375 81.9205V82.8864C146.375 83.7102 146.517 84.4086 146.801 84.9815C147.09 85.5497 147.49 85.983 148.001 86.2812C148.513 86.5748 149.107 86.7216 149.784 86.7216C150.224 86.7216 150.622 86.66 150.977 86.5369C151.337 86.4091 151.647 86.2197 151.907 85.9688C152.168 85.7131 152.369 85.3958 152.511 85.017L154.13 85.4716C153.96 86.0208 153.674 86.5038 153.271 86.9205C152.869 87.3324 152.371 87.6544 151.78 87.8864C151.188 88.1136 150.522 88.2273 149.784 88.2273Z" fill="#1772BD"/>
<path d="M160.061 88.2557C159.37 88.2557 158.742 88.1255 158.179 87.8651C157.615 87.5999 157.168 87.2187 156.836 86.7216C156.505 86.2197 156.339 85.6136 156.339 84.9034C156.339 84.2784 156.462 83.7718 156.709 83.3835C156.955 82.9905 157.284 82.6828 157.696 82.4602C158.108 82.2377 158.562 82.072 159.059 81.9631C159.561 81.8494 160.066 81.7595 160.572 81.6932C161.235 81.608 161.772 81.544 162.184 81.5014C162.601 81.4541 162.904 81.3759 163.094 81.267C163.288 81.1581 163.385 80.9687 163.385 80.6989V80.642C163.385 79.9413 163.193 79.3968 162.809 79.0085C162.431 78.6203 161.855 78.4261 161.084 78.4261C160.283 78.4261 159.656 78.6013 159.201 78.9517C158.747 79.3021 158.427 79.6761 158.243 80.0739L156.652 79.5057C156.936 78.8428 157.315 78.3267 157.788 77.9574C158.266 77.5833 158.787 77.3229 159.351 77.1761C159.919 77.0246 160.478 76.9489 161.027 76.9489C161.377 76.9489 161.78 76.9915 162.234 77.0767C162.693 77.1572 163.136 77.3253 163.562 77.581C163.993 77.8366 164.351 78.2225 164.635 78.7386C164.919 79.2547 165.061 79.946 165.061 80.8125V88H163.385V86.5227H163.299C163.186 86.7595 162.996 87.0128 162.731 87.2827C162.466 87.5526 162.113 87.7822 161.673 87.9716C161.233 88.161 160.695 88.2557 160.061 88.2557ZM160.317 86.75C160.979 86.75 161.538 86.6198 161.993 86.3594C162.452 86.099 162.798 85.7628 163.03 85.3509C163.266 84.9389 163.385 84.5057 163.385 84.0511V82.517C163.314 82.6023 163.157 82.6804 162.916 82.7514C162.679 82.8177 162.405 82.8769 162.092 82.929C161.784 82.9763 161.484 83.0189 161.19 83.0568C160.901 83.09 160.667 83.1184 160.487 83.142C160.051 83.1989 159.644 83.2912 159.265 83.419C158.891 83.5421 158.588 83.7292 158.356 83.9801C158.129 84.2263 158.015 84.5625 158.015 84.9886C158.015 85.571 158.231 86.0114 158.662 86.3097C159.097 86.6032 159.649 86.75 160.317 86.75Z" fill="#1772BD"/>
<path d="M169.796 73.4545V88H168.12V73.4545H169.796Z" fill="#1772BD"/>
<path d="M179.116 80.983V82.5455H172.753V80.983H179.116Z" fill="#1772BD"/>
<path d="M186.81 77.0909V78.5114H181.156V77.0909H186.81ZM182.804 74.4773H184.48V84.875C184.48 85.3485 184.549 85.7036 184.686 85.9403C184.828 86.1723 185.008 86.3286 185.226 86.4091C185.449 86.4848 185.683 86.5227 185.929 86.5227C186.114 86.5227 186.265 86.5133 186.384 86.4943C186.502 86.4706 186.597 86.4517 186.668 86.4375L187.009 87.9432C186.895 87.9858 186.736 88.0284 186.533 88.071C186.329 88.1184 186.071 88.142 185.759 88.142C185.285 88.142 184.821 88.0402 184.367 87.8366C183.917 87.633 183.543 87.3229 183.244 86.9062C182.951 86.4896 182.804 85.964 182.804 85.3295V74.4773Z" fill="#1772BD"/>
<path d="M189.331 88V77.0909H191.007V88H189.331ZM190.183 75.2727C189.857 75.2727 189.575 75.1615 189.338 74.9389C189.106 74.7164 188.99 74.4489 188.99 74.1364C188.99 73.8239 189.106 73.5563 189.338 73.3338C189.575 73.1113 189.857 73 190.183 73C190.51 73 190.789 73.1113 191.021 73.3338C191.258 73.5563 191.377 73.8239 191.377 74.1364C191.377 74.4489 191.258 74.7164 191.021 74.9389C190.789 75.1615 190.51 75.2727 190.183 75.2727Z" fill="#1772BD"/>
<path d="M194.077 88V77.0909H195.696V78.7955H195.839C196.066 78.2131 196.433 77.7609 196.939 77.4389C197.446 77.1122 198.054 76.9489 198.765 76.9489C199.484 76.9489 200.083 77.1122 200.562 77.4389C201.045 77.7609 201.421 78.2131 201.691 78.7955H201.804C202.084 78.232 202.503 77.7846 203.062 77.4531C203.62 77.117 204.29 76.9489 205.071 76.9489C206.047 76.9489 206.845 77.2543 207.465 77.8651C208.085 78.4711 208.395 79.4157 208.395 80.6989V88H206.719V80.6989C206.719 79.8939 206.499 79.3187 206.059 78.973C205.618 78.6274 205.1 78.4545 204.503 78.4545C203.736 78.4545 203.142 78.6866 202.721 79.1506C202.299 79.6098 202.089 80.1922 202.089 80.8977V88H200.384V80.5284C200.384 79.9081 200.183 79.4086 199.78 79.0298C199.378 78.6463 198.859 78.4545 198.225 78.4545C197.789 78.4545 197.382 78.5705 197.003 78.8026C196.629 79.0346 196.326 79.3565 196.094 79.7685C195.867 80.1757 195.753 80.6468 195.753 81.1818V88H194.077Z" fill="#1772BD"/>
<path d="M216.034 88.2273C214.983 88.2273 214.076 87.9953 213.314 87.5312C212.556 87.0625 211.971 86.4091 211.559 85.571C211.152 84.7282 210.949 83.7481 210.949 82.6307C210.949 81.5133 211.152 80.5284 211.559 79.6761C211.971 78.8191 212.544 78.1515 213.278 77.6733C214.017 77.1903 214.879 76.9489 215.863 76.9489C216.432 76.9489 216.993 77.0436 217.547 77.233C218.101 77.4223 218.605 77.7301 219.059 78.1562C219.514 78.5777 219.876 79.1364 220.146 79.8324C220.416 80.5284 220.551 81.3854 220.551 82.4034V83.1136H212.142V81.6648H218.846C218.846 81.0492 218.723 80.5 218.477 80.017C218.236 79.5341 217.89 79.1529 217.44 78.8736C216.995 78.5942 216.469 78.4545 215.863 78.4545C215.196 78.4545 214.618 78.6203 214.13 78.9517C213.647 79.2784 213.276 79.7045 213.015 80.2301C212.755 80.7557 212.625 81.3191 212.625 81.9205V82.8864C212.625 83.7102 212.767 84.4086 213.051 84.9815C213.34 85.5497 213.74 85.983 214.251 86.2812C214.763 86.5748 215.357 86.7216 216.034 86.7216C216.474 86.7216 216.872 86.66 217.227 86.5369C217.587 86.4091 217.897 86.2197 218.157 85.9688C218.418 85.7131 218.619 85.3958 218.761 85.017L220.38 85.4716C220.21 86.0208 219.924 86.5038 219.521 86.9205C219.119 87.3324 218.621 87.6544 218.03 87.8864C217.438 88.1136 216.772 88.2273 216.034 88.2273Z" fill="#1772BD"/>
<path d="M228.953 88V73.4545H233.868C235.004 73.4545 235.937 73.6487 236.666 74.0369C237.395 74.4205 237.935 74.9484 238.285 75.6207C238.636 76.2931 238.811 77.0578 238.811 77.9148C238.811 78.7718 238.636 79.5317 238.285 80.1946C237.935 80.8575 237.397 81.3783 236.673 81.7571C235.949 82.1312 235.023 82.3182 233.896 82.3182H229.919V80.7273H233.839C234.616 80.7273 235.241 80.6136 235.714 80.3864C236.192 80.1591 236.538 79.8371 236.751 79.4205C236.969 78.9991 237.078 78.4972 237.078 77.9148C237.078 77.3324 236.969 76.8234 236.751 76.3878C236.533 75.9522 236.185 75.616 235.707 75.3793C235.229 75.1378 234.597 75.017 233.811 75.017H230.714V88H228.953ZM235.799 81.4659L239.379 88H237.334L233.811 81.4659H235.799Z" fill="#1772BD"/>
<path d="M245.975 88.2273C244.924 88.2273 244.017 87.9953 243.255 87.5312C242.498 87.0625 241.913 86.4091 241.501 85.571C241.094 84.7282 240.89 83.7481 240.89 82.6307C240.89 81.5133 241.094 80.5284 241.501 79.6761C241.913 78.8191 242.486 78.1515 243.22 77.6733C243.958 77.1903 244.82 76.9489 245.805 76.9489C246.373 76.9489 246.934 77.0436 247.488 77.233C248.042 77.4223 248.546 77.7301 249.001 78.1562C249.455 78.5777 249.818 79.1364 250.087 79.8324C250.357 80.5284 250.492 81.3854 250.492 82.4034V83.1136H242.083V81.6648H248.788C248.788 81.0492 248.665 80.5 248.418 80.017C248.177 79.5341 247.831 79.1529 247.382 78.8736C246.936 78.5942 246.411 78.4545 245.805 78.4545C245.137 78.4545 244.56 78.6203 244.072 78.9517C243.589 79.2784 243.217 79.7045 242.957 80.2301C242.696 80.7557 242.566 81.3191 242.566 81.9205V82.8864C242.566 83.7102 242.708 84.4086 242.992 84.9815C243.281 85.5497 243.681 85.983 244.193 86.2812C244.704 86.5748 245.298 86.7216 245.975 86.7216C246.416 86.7216 246.813 86.66 247.168 86.5369C247.528 86.4091 247.838 86.2197 248.099 85.9688C248.359 85.7131 248.56 85.3958 248.703 85.017L250.322 85.4716C250.151 86.0208 249.865 86.5038 249.462 86.9205C249.06 87.3324 248.563 87.6544 247.971 87.8864C247.379 88.1136 246.714 88.2273 245.975 88.2273Z" fill="#1772BD"/>
<path d="M257.474 88.2273C256.451 88.2273 255.57 87.9858 254.832 87.5028C254.093 87.0199 253.525 86.3546 253.127 85.5071C252.73 84.6596 252.531 83.6913 252.531 82.6023C252.531 81.4943 252.734 80.5166 253.141 79.669C253.553 78.8168 254.126 78.1515 254.86 77.6733C255.599 77.1903 256.461 76.9489 257.445 76.9489C258.212 76.9489 258.904 77.0909 259.519 77.375C260.135 77.6591 260.639 78.0568 261.032 78.5682C261.425 79.0795 261.669 79.6761 261.764 80.358H260.087C259.96 79.8608 259.676 79.4205 259.235 79.0369C258.8 78.6487 258.212 78.4545 257.474 78.4545C256.82 78.4545 256.248 78.625 255.755 78.9659C255.267 79.3021 254.886 79.7779 254.612 80.3935C254.342 81.0043 254.207 81.7216 254.207 82.5455C254.207 83.3883 254.339 84.1222 254.605 84.7472C254.874 85.3722 255.253 85.8575 255.741 86.2031C256.233 86.5488 256.811 86.7216 257.474 86.7216C257.909 86.7216 258.305 86.6458 258.66 86.4943C259.015 86.3428 259.316 86.125 259.562 85.8409C259.808 85.5568 259.983 85.2159 260.087 84.8182H261.764C261.669 85.4621 261.435 86.0421 261.06 86.5582C260.691 87.0696 260.201 87.4768 259.59 87.7798C258.984 88.0781 258.279 88.2273 257.474 88.2273Z" fill="#1772BD"/>
<path d="M264.214 88V77.0909H265.833V78.7386H265.947C266.146 78.1989 266.506 77.7609 267.026 77.4247C267.547 77.0885 268.134 76.9205 268.788 76.9205C268.911 76.9205 269.065 76.9228 269.249 76.9276C269.434 76.9323 269.574 76.9394 269.668 76.9489V78.6534C269.612 78.6392 269.481 78.6179 269.278 78.5895C269.079 78.5563 268.868 78.5398 268.646 78.5398C268.115 78.5398 267.642 78.651 267.225 78.8736C266.813 79.0914 266.487 79.3944 266.245 79.7827C266.008 80.1662 265.89 80.6042 265.89 81.0966V88H264.214Z" fill="#1772BD"/>
<path d="M278.53 83.5398V77.0909H280.206V88H278.53V86.1534H278.417C278.161 86.7074 277.763 87.1785 277.223 87.5668C276.684 87.9503 276.002 88.142 275.178 88.142C274.496 88.142 273.89 87.9929 273.36 87.6946C272.83 87.3916 272.413 86.937 272.11 86.331C271.807 85.7202 271.655 84.9508 271.655 84.0227V77.0909H273.331V83.9091C273.331 84.7045 273.554 85.339 273.999 85.8125C274.449 86.286 275.022 86.5227 275.718 86.5227C276.134 86.5227 276.558 86.4162 276.989 86.2031C277.425 85.9901 277.789 85.6634 278.083 85.223C278.381 84.7827 278.53 84.2216 278.53 83.5398Z" fill="#1772BD"/>
<path d="M283.276 88V77.0909H284.953V88H283.276ZM284.129 75.2727C283.802 75.2727 283.52 75.1615 283.283 74.9389C283.051 74.7164 282.935 74.4489 282.935 74.1364C282.935 73.8239 283.051 73.5563 283.283 73.3338C283.52 73.1113 283.802 73 284.129 73C284.455 73 284.735 73.1113 284.967 73.3338C285.203 73.5563 285.322 73.8239 285.322 74.1364C285.322 74.4489 285.203 74.7164 284.967 74.9389C284.735 75.1615 284.455 75.2727 284.129 75.2727Z" fill="#1772BD"/>
<path d="M292.767 77.0909V78.5114H287.113V77.0909H292.767ZM288.761 74.4773H290.437V84.875C290.437 85.3485 290.506 85.7036 290.643 85.9403C290.785 86.1723 290.965 86.3286 291.183 86.4091C291.406 86.4848 291.64 86.5227 291.886 86.5227C292.071 86.5227 292.222 86.5133 292.341 86.4943C292.459 86.4706 292.554 86.4517 292.625 86.4375L292.966 87.9432C292.852 87.9858 292.693 88.0284 292.49 88.071C292.286 88.1184 292.028 88.142 291.716 88.142C291.242 88.142 290.778 88.0402 290.324 87.8366C289.874 87.633 289.5 87.3229 289.201 86.9062C288.908 86.4896 288.761 85.964 288.761 85.3295V74.4773Z" fill="#1772BD"/>
<path d="M295.288 88V77.0909H296.964V88H295.288ZM296.14 75.2727C295.814 75.2727 295.532 75.1615 295.295 74.9389C295.063 74.7164 294.947 74.4489 294.947 74.1364C294.947 73.8239 295.063 73.5563 295.295 73.3338C295.532 73.1113 295.814 73 296.14 73C296.467 73 296.746 73.1113 296.978 73.3338C297.215 73.5563 297.334 73.8239 297.334 74.1364C297.334 74.4489 297.215 74.7164 296.978 74.9389C296.746 75.1615 296.467 75.2727 296.14 75.2727Z" fill="#1772BD"/>
<path d="M301.71 81.4375V88H300.034V77.0909H301.654V78.7955H301.796C302.051 78.2415 302.439 77.7964 302.96 77.4602C303.481 77.1193 304.154 76.9489 304.977 76.9489C305.716 76.9489 306.362 77.1004 306.916 77.4034C307.47 77.7017 307.901 78.1562 308.209 78.767C308.517 79.3731 308.671 80.1402 308.671 81.0682V88H306.994V81.1818C306.994 80.3248 306.772 79.6572 306.327 79.179C305.882 78.696 305.271 78.4545 304.494 78.4545C303.959 78.4545 303.481 78.5705 303.06 78.8026C302.643 79.0346 302.314 79.3731 302.073 79.8182C301.831 80.2633 301.71 80.803 301.71 81.4375Z" fill="#1772BD"/>
<path d="M316.137 92.3182C315.327 92.3182 314.631 92.214 314.049 92.0057C313.466 91.8021 312.981 91.5322 312.593 91.196C312.209 90.8646 311.904 90.5095 311.677 90.1307L313.012 89.1932C313.163 89.392 313.355 89.6193 313.587 89.875C313.819 90.1354 314.136 90.3603 314.539 90.5497C314.946 90.7438 315.479 90.8409 316.137 90.8409C317.018 90.8409 317.744 90.6278 318.317 90.2017C318.89 89.7756 319.177 89.108 319.177 88.1989V85.983H319.035C318.911 86.1818 318.736 86.428 318.509 86.7216C318.286 87.0104 317.964 87.2685 317.543 87.4957C317.126 87.7183 316.563 87.8295 315.853 87.8295C314.972 87.8295 314.181 87.6212 313.481 87.2045C312.785 86.7879 312.233 86.1818 311.826 85.3864C311.423 84.5909 311.222 83.625 311.222 82.4886C311.222 81.3712 311.419 80.3982 311.812 79.5696C312.205 78.7363 312.751 78.0923 313.452 77.6378C314.153 77.1785 314.963 76.9489 315.881 76.9489C316.591 76.9489 317.155 77.0672 317.571 77.304C317.993 77.536 318.315 77.8011 318.537 78.0994C318.765 78.393 318.94 78.6345 319.063 78.8239H319.233V77.0909H320.853V88.3125C320.853 89.25 320.64 90.0123 320.214 90.5994C319.792 91.1913 319.224 91.6245 318.509 91.8991C317.799 92.1785 317.008 92.3182 316.137 92.3182ZM316.08 86.3239C316.752 86.3239 317.321 86.17 317.785 85.8622C318.249 85.5544 318.601 85.1117 318.843 84.5341C319.084 83.9564 319.205 83.2652 319.205 82.4602C319.205 81.6742 319.087 80.9806 318.85 80.3793C318.613 79.7779 318.263 79.3068 317.799 78.9659C317.335 78.625 316.762 78.4545 316.08 78.4545C315.37 78.4545 314.778 78.6345 314.304 78.9943C313.836 79.3542 313.483 79.8371 313.246 80.4432C313.014 81.0492 312.898 81.7216 312.898 82.4602C312.898 83.2178 313.017 83.8878 313.253 84.4702C313.495 85.0478 313.85 85.5024 314.319 85.8338C314.792 86.1605 315.379 86.3239 316.08 86.3239Z" fill="#1772BD"/>
</svg>
