<svg width="25" height="25" viewBox="0 0 25 25" fill="none" xmlns="http://www.w3.org/2000/svg">
<path d="M21.3595 12.1361V20.4984C21.3595 20.9427 20.9996 21.3025 20.5554 21.3025H3.11108C2.66685 21.3025 2.30701 20.9427 2.30701 20.4984V12.1361" stroke="#111111" stroke-miterlimit="10" stroke-linecap="round"/>
<path d="M10.6519 12.8976C7.74607 12.8387 4.84346 12.5664 1.96792 12.0792C1.79596 12.0505 1.66858 11.8993 1.66858 11.7241C1.66858 10.1606 1.66858 8.59858 1.66858 7.03503C1.66858 6.5908 2.02842 6.23096 2.47265 6.23096H21.1923C21.6366 6.23096 21.9964 6.5908 21.9964 7.03503V11.7241C21.9964 11.8993 21.8706 12.0489 21.6971 12.0792C18.8215 12.5664 15.9189 12.8387 13.0131 12.8976" stroke="#111111" stroke-miterlimit="10" stroke-linecap="round"/>
<path d="M12.7614 11.7272H10.9049C10.7648 11.7272 10.6517 11.8402 10.6517 11.9803V13.8385C10.6517 13.9786 10.7648 14.0916 10.9049 14.0916H12.7614C12.9015 14.0916 13.0146 13.9786 13.0146 13.8385V11.9803C13.0146 11.8402 12.9015 11.7272 12.7614 11.7272Z" stroke="#111111" stroke-miterlimit="10" stroke-linecap="round"/>
<path d="M11.4542 12.9091H12.2121" stroke="#111111" stroke-miterlimit="10" stroke-linecap="round"/>
<path d="M10.6517 15.0947H13.0146" stroke="#111111" stroke-miterlimit="10" stroke-linecap="round"/>
<path d="M16.2625 6.23088V4.55905C16.2625 4.03839 15.8406 3.61646 15.3215 3.61646H8.34286C7.82379 3.61646 7.40186 4.03839 7.40186 4.55905V6.23088" stroke="#111111" stroke-miterlimit="10" stroke-linecap="round"/>
<path d="M9.76331 4.86157H13.9031" stroke="#111111" stroke-miterlimit="10" stroke-linecap="round"/>
<path d="M3.12732 18.4062C3.12732 19.0989 3.12732 19.7915 3.12732 20.4841C8.93254 20.4841 14.7362 20.4841 20.5414 20.4841C20.5414 19.7915 20.5414 19.0989 20.5414 18.4062C14.7155 18.8648 8.95165 18.8648 3.12732 18.4062Z" fill="#FFC524"/>
</svg>
