<svg xmlns="http://www.w3.org/2000/svg" width="60" height="60" fill="none" xmlns:v="https://vecta.io/nano"><path fill="#fff" d="M0 0h60v60H0z"/><g stroke="#344154" stroke-width="2" stroke-miterlimit="10"><g stroke-linejoin="round"><path d="M26.249 41.972h6.543s-.153 1.672.173 3.315c.252 1.259 1.177 2.378 2.547 3.08.384.198.202.66-.256.66h-9.012-9.012c-.458 0-.64-.462-.256-.66 1.371-.702 2.295-1.821 2.547-3.08.33-1.643.173-3.315.173-3.315h6.551zm.438-2.696a.44.44 0 0 1-.438.438.44.44 0 0 1-.438-.438.44.44 0 0 1 .438-.438c.244 0 .438.194.438.438z"/><g stroke-linecap="round"><path d="M41.358 41.971H19.702 6.016c-1.222 0-2.213-.991-2.213-2.213v-3.175h8.682"/><path d="M41.329 36.584H3.808V30.59 13.734a2.4 2.4 0 0 1 2.398-2.399h40.081a2.4 2.4 0 0 1 2.398 2.399v11.146"/></g></g><path d="M54.548 44.202H42.832"/><path d="M54.896 49.024H42.482c-.619 0-1.123-.504-1.123-1.123V36.586 26.01c0-.619.504-1.123 1.123-1.123h6.205 6.205c.619 0 1.123.504 1.123 1.123v21.888c.008.623-.495 1.127-1.119 1.127z"/><path d="M49.082 46.632c0-.215-.173-.392-.392-.392s-.392.173-.392.392.173.392.392.392.392-.178.392-.392z"/><path d="M47.237 27.321h2.906" stroke-linecap="round" stroke-linejoin="round"/></g><path d="M28.069 26.443a1.43 1.43 0 0 0-.429-1.04c-.285-.285-.764-.545-1.424-.768-.912-.277-1.602-.644-2.064-1.102s-.698-1.073-.698-1.841c0-.747.215-1.354.644-1.82s1.02-.751 1.767-.846v-1.498h1.069v1.503c.755.099 1.342.409 1.758.929s.628 1.214.628 2.085h-1.329c0-.574-.14-1.04-.425-1.395s-.677-.537-1.181-.537c-.532 0-.933.14-1.197.417s-.4.656-.4 1.139c0 .438.136.793.413 1.065s.768.528 1.482.772c.921.297 1.606.669 2.052 1.115s.669 1.049.669 1.812c0 .776-.231 1.395-.698 1.854s-1.102.731-1.915.817v1.3h-1.065V29.11c-.776-.083-1.412-.363-1.911-.851s-.735-1.197-.718-2.138l.012-.033h1.288c0 .698.177 1.193.528 1.486s.78.442 1.288.442c.582 0 1.036-.14 1.366-.417s.491-.665.491-1.156z" fill="#1772bd"/></svg>