<?xml version="1.0" encoding="iso-8859-1"?>
<!-- Uploaded to: SVG Repo, www.svgrepo.com, Generator: SVG Repo Mixer Tools -->
<svg height="800px" width="800px" version="1.1" id="Layer_1" xmlns="http://www.w3.org/2000/svg" xmlns:xlink="http://www.w3.org/1999/xlink" 
	 viewBox="0 0 512 512" xml:space="preserve">
<path style="fill:#5A4146;" d="M282.381,352.599c0.067,7.018-4.038,13.436-10.443,16.302
	c-31.417,14.065-74.432,22.747-121.909,22.747s-90.492-8.682-121.909-22.747c-6.406-2.868-10.51-9.284-10.443-16.302
	c1.27-131.996,25.959-246.668,132.352-246.668S281.11,220.604,282.381,352.599z"/>
<path style="fill:#E6AF78;" d="M283.841,425.761l-78.77-32.821c-6.579-2.741-10.865-9.17-10.865-16.298V355.31h-88.276v21.333
	c0,7.127-4.286,13.556-10.865,16.298l-78.77,32.821C6.429,429.873,0,439.516,0,450.207v35.31c0,9.75,7.905,17.655,17.655,17.655
	h264.828c9.75,0,17.655-7.905,17.655-17.655v-35.31C300.138,439.516,293.709,429.873,283.841,425.761z"/>
<path style="fill:#D29B6E;" d="M194.207,355.31h-88.276v21.333c0,7.127-4.286,13.556-10.865,16.298l-12.302,5.127
	C176.908,422.072,194.207,355.31,194.207,355.31z"/>
<path style="fill:#C3E678;" d="M283.841,425.761l-58.212-24.255c-38.051,47.802-75.56,57.528-75.56,57.528
	s-37.508-9.726-75.56-57.528l-58.212,24.255C6.429,429.873,0,439.516,0,450.207v35.31c0,9.75,7.905,17.655,17.655,17.655h264.828
	c9.75,0,17.655-7.905,17.655-17.655v-35.31C300.138,439.516,293.709,429.873,283.841,425.761z"/>
<path style="fill:#F0C087;" d="M238.345,238.345l-7.137,78.504c-1.058,11.636-7.804,21.996-18.017,27.67l-45.974,25.542
	c-10.665,5.924-23.631,5.924-34.296,0l-45.973-25.542c-10.214-5.674-16.959-16.034-18.017-27.67l-7.137-78.504
	c0,0,97.103-8.828,141.241-35.31C203.034,203.034,211.862,229.517,238.345,238.345z"/>
<path style="fill:#464655;" d="M237.689,298.724c-0.439,1.5-11.5,36.724-78.793,36.724v17.655c81.655,0,95.285-47.707,95.828-49.741
	L237.689,298.724z"/>
<circle style="fill:#5B5D6E;" cx="158.897" cy="344.276" r="8.828"/>
<g>
	<path style="fill:#707487;" d="M247.172,256h-10.433l-4.815,52.966h15.249c4.875,0,8.828-3.953,8.828-8.828v-35.31
		C256,259.953,252.047,256,247.172,256z"/>
	<path style="fill:#707487;" d="M63.399,256H52.966c-4.875,0-8.828,3.953-8.828,8.828v35.31c0,4.875,3.953,8.828,8.828,8.828h15.247
		L63.399,256z"/>
</g>
<g>
	<path style="fill:#A5D76E;" d="M43.027,459.911L7.593,431.726C2.846,436.582,0,443.146,0,450.207v35.31
		c0,9.75,7.905,17.655,17.655,17.655h35.31V480.59C52.966,472.545,49.309,464.937,43.027,459.911z"/>
	<path style="fill:#A5D76E;" d="M300.138,485.517v-35.31c0-7.006-2.798-13.526-7.479-18.37l-35.548,28.074
		c-6.282,5.026-9.939,12.634-9.939,20.68v22.582h35.31C292.233,503.172,300.138,495.267,300.138,485.517z"/>
	<path style="fill:#A5D76E;" d="M225.629,401.506c-38.051,47.802-75.56,57.528-75.56,57.528s-37.508-9.726-75.56-57.528
		L61.78,406.81c41.523,53.035,83.147,64.562,84.9,65.026l3.388,0.897l3.388-0.897c1.753-0.465,43.379-11.99,84.9-65.026
		L225.629,401.506z"/>
</g>
<path style="fill:#E6AF78;" d="M203.034,203.034c-44.138,26.483-141.241,35.31-141.241,35.31l1.599,17.582l0,0l5.538,60.92
	c1.058,11.637,7.804,21.996,18.018,27.671l45.973,25.54c4.376,2.432,9.145,3.809,13.978,4.245l-13.801-23.003
	c-6.259-10.431-10.038-22.158-11.048-34.281l-5.053-60.63c-0.375-4.504,2.688-8.525,7.125-9.388
	c23.666-4.604,50.141-11.23,71.539-20.499c7.167,10.375,18.956,22.542,37.1,28.589l1.878,0.626l1.97,0.194l0.137,0.013l1.598-17.581
	C211.862,229.517,203.034,203.034,203.034,203.034z"/>
<path style="fill:#C3E678;" d="M485.517,8.828H308.966c-14.626,0-26.483,11.857-26.483,26.483v97.103
	c0,14.626,11.857,26.483,26.483,26.483v29.219c0,5.505,6.656,8.263,10.549,4.37l33.589-33.589h132.414
	c14.626,0,26.483-11.857,26.483-26.483V35.31C512,20.684,500.143,8.828,485.517,8.828z"/>
<g>
	<path style="fill:#FFFFFF;" d="M339.862,44.138c-17.035,0-30.897,13.863-30.897,30.897V92.69c0,17.035,13.863,30.897,30.897,30.897
		c5.302,0,10.22-1.466,14.584-3.829l1.242,1.242c1.725,1.725,3.982,2.586,6.241,2.586s4.518-0.862,6.241-2.586
		c3.448-3.448,3.448-9.035,0-12.483l-1.242-1.242c2.364-4.364,3.83-9.282,3.83-14.584V75.034
		C370.759,58.001,356.897,44.138,339.862,44.138z M350.517,90.862c-3.448-3.448-9.035-3.448-12.483,0
		c-3.448,3.448-3.448,9.035,0,12.483l2.517,2.517c-0.232,0.011-0.452,0.068-0.689,0.068c-7.302,0-13.241-5.94-13.241-13.241V75.034
		c0-7.302,5.94-13.241,13.241-13.241c7.302,0,13.241,5.94,13.241,13.241V92.69c0,0.236-0.057,0.457-0.07,0.69L350.517,90.862z"/>
	<path style="fill:#FFFFFF;" d="M417.689,35.763c-4.655-1.551-9.63,0.966-11.164,5.582l-26.483,79.448
		c-1.543,4.625,0.957,9.625,5.578,11.168c0.931,0.31,1.87,0.457,2.793,0.457c3.699,0,7.138-2.34,8.371-6.039l26.483-79.448
		C424.81,42.306,422.311,37.306,417.689,35.763z"/>
	<path style="fill:#FFFFFF;" d="M485.181,112.332l-17.655-61.793c-1.086-3.789-4.552-6.401-8.491-6.401h-8.828
		c-3.939,0-7.405,2.612-8.491,6.401l-17.655,61.793c-1.336,4.69,1.379,9.574,6.069,10.914c4.647,1.323,9.569-1.366,10.914-6.06
		l3.213-11.255h20.726l3.214,11.254c1.112,3.875,4.647,6.406,8.483,6.406c0.81,0,1.621-0.113,2.431-0.345
		C483.801,121.906,486.517,117.022,485.181,112.332z M449.301,88.276l5.32-18.625l5.32,18.625H449.301z"/>
</g>
</svg>