<?xml version="1.0" encoding="iso-8859-1"?>
<!-- Uploaded to: SVG Repo, www.svgrepo.com, Generator: SVG Repo Mixer Tools -->
<svg height="800px" width="800px" version="1.1" id="Layer_1" xmlns="http://www.w3.org/2000/svg" xmlns:xlink="http://www.w3.org/1999/xlink" 
	 viewBox="0 0 512 512" xml:space="preserve">
<path style="fill:#EAFFFF;" d="M439.242,503.916H51.2c-11.906,0-21.558-9.651-21.558-21.558V102.939
	c0-40.48,32.817-73.297,73.297-73.297h336.303c23.812,0,43.116,19.304,43.116,43.116V460.8
	C482.358,484.612,463.054,503.916,439.242,503.916z"/>
<path style="fill:#C5EAD4;" d="M227.576,132.042c0,60.611-49.135,109.746-109.746,109.746S8.084,192.653,8.084,132.042
	S57.219,22.296,117.83,22.296S227.576,71.431,227.576,132.042z"/>
<path style="fill:#AED574;" d="M374.568,503.916H29.642v-86.232h344.926V503.916z"/>
<path style="fill:#DDB900;" d="M503.916,444.632L503.916,444.632c0,32.742-26.542,59.284-59.284,59.284l0,0
	c-1.133,0-2.257-0.039-3.374-0.101c-0.664,0.061-1.334,0.101-2.016,0.101H320.674c-11.906,0-21.558-9.651-21.558-21.558v-75.453
	c0-11.906,9.651-21.558,21.558-21.558h118.568c0.68,0,1.351,0.04,2.016,0.101c1.118-0.063,2.241-0.101,3.374-0.101l0,0
	C477.374,385.347,503.916,411.889,503.916,444.632z"/>
<path style="fill:#F4F170;" d="M374.568,444.632L374.568,444.632c0,32.742-26.542,59.284-59.284,59.284l0,0
	c-32.742,0-59.284-26.542-59.284-59.284l0,0c0-32.742,26.542-59.284,59.284-59.284l0,0
	C348.026,385.347,374.568,411.889,374.568,444.632z"/>
<path style="fill:#DDB900;" d="M331.453,444.632L331.453,444.632c0,8.929-7.239,16.168-16.168,16.168l0,0
	c-8.929,0-16.168-7.239-16.168-16.168l0,0c0-8.929,7.239-16.168,16.168-16.168l0,0C324.213,428.463,331.453,435.702,331.453,444.632
	z"/>
<path style="fill:#84837A;" d="M125.914,123.958v366.484c0,4.465-3.62,8.084-8.084,8.084s-8.084-3.62-8.084-8.084V123.958
	c0-4.465,3.62-8.084,8.084-8.084S125.914,119.493,125.914,123.958z"/>
<path style="fill:#D3D5BB;" d="M117.83,115.874L117.83,115.874c-14.428,0-25.701-12.457-24.266-26.814l6.489-64.888
	c0.913-9.133,8.598-16.088,17.777-16.088s16.864,6.955,17.778,16.089l6.489,64.888C143.531,103.416,132.258,115.874,117.83,115.874z
	 M220.136,170.581l-52.95-38.064c-11.715-8.422-28.141-4.887-35.354,7.608l0,0c-7.214,12.495-2.062,28.487,11.088,34.421
	l59.439,26.824c8.366,3.776,18.232,0.597,22.821-7.351C229.77,186.072,227.59,175.939,220.136,170.581z M103.828,140.126
	c-7.214-12.495-23.639-16.029-35.354-7.608l-52.95,38.064c-7.453,5.357-9.633,15.49-5.045,23.44
	c4.59,7.949,14.456,11.127,22.821,7.351l59.438-26.824C105.89,168.613,111.041,152.621,103.828,140.126L103.828,140.126z"/>
<path style="fill:#B9BAA6;" d="M144.777,132.042c0,14.882-12.065,26.947-26.947,26.947s-26.947-12.065-26.947-26.947
	s12.065-26.947,26.947-26.947S144.777,117.16,144.777,132.042z"/>
<path style="fill:#A0A092;" d="M128.609,132.042c0,5.953-4.826,10.779-10.779,10.779s-10.779-4.826-10.779-10.779
	c0-5.953,4.826-10.779,10.779-10.779S128.609,126.089,128.609,132.042z"/>
<path style="fill:#FFFF81;" d="M412.295,8.084c50.601,0,91.621,41.02,91.621,91.621s-41.02,91.621-91.621,91.621
	s-91.621-41.02-91.621-91.621S361.694,8.084,412.295,8.084z"/>
<path style="fill:#FFF145;" d="M412.295,51.2c26.789,0,48.505,21.716,48.505,48.505s-21.716,48.505-48.505,48.505
	s-48.505-21.716-48.505-48.505S385.506,51.2,412.295,51.2z"/>
<path d="M312.599,99.705c0-23.624,8.411-46.537,23.686-64.518c2.89-3.402,7.991-3.819,11.394-0.928
	c3.403,2.891,3.818,7.993,0.927,11.396c-12.794,15.063-19.839,34.258-19.839,54.051c0,46.062,37.473,83.537,83.533,83.537
	c19.688,0,38.803-6.979,53.827-19.653c3.413-2.879,8.512-2.446,11.391,0.967c2.879,3.413,2.446,8.513-0.966,11.392
	c-17.937,15.13-40.755,23.463-64.253,23.463C357.324,199.411,312.599,154.683,312.599,99.705z M172.479,266.779
	c0,4.465,3.618,8.084,8.084,8.084h215.569c4.465,0,8.084-3.62,8.084-8.084s-3.618-8.084-8.084-8.084H180.564
	C176.098,258.695,172.479,262.314,172.479,266.779z M374.575,231.747c4.465,0,8.084-3.62,8.084-8.084
	c0-4.465-3.618-8.084-8.084-8.084h-32.336c-4.465,0-8.084,3.62-8.084,8.084c0,4.465,3.618,8.084,8.084,8.084H374.575z
	 M355.713,99.705c0-31.204,25.385-56.589,56.587-56.589s56.587,25.386,56.587,56.589s-25.387,56.589-56.588,56.589
	S355.713,130.909,355.713,99.705z M371.88,99.705c0,22.289,18.131,40.421,40.419,40.421s40.419-18.132,40.419-40.421
	s-18.131-40.421-40.419-40.421S371.88,77.417,371.88,99.705z M368.083,28.818c13.233-8.275,28.523-12.649,44.216-12.649
	c46.06,0,83.533,37.475,83.533,83.537c0,15.693-4.373,30.984-12.648,44.218c-2.367,3.786-1.217,8.774,2.57,11.14
	c1.332,0.833,2.813,1.231,4.278,1.231c2.694,0,5.328-1.347,6.862-3.8C506.776,136.688,512,118.434,512,99.705
	C512,44.727,467.275,0,412.299,0c-18.728,0-36.983,5.225-52.789,15.108c-3.786,2.367-4.936,7.356-2.569,11.14
	C359.309,30.034,364.297,31.183,368.083,28.818z M165.956,42.46c33.03,17.781,53.549,52.107,53.549,89.582
	c0,4.465,3.618,8.084,8.084,8.084c4.465,0,8.084-3.62,8.084-8.084c0-43.433-23.777-83.215-62.054-103.819
	c-3.932-2.116-8.832-0.645-10.95,3.287C160.553,35.441,162.025,40.345,165.956,42.46z M488.371,495.832h15.544
	c4.465,0,8.084,3.62,8.084,8.084S508.381,512,503.916,512H8.108c-4.465,0-8.084-3.62-8.084-8.084s3.618-8.084,8.084-8.084h13.473
	v-88.926c0-4.465,3.618-8.084,8.084-8.084s8.084,3.62,8.084,8.084v88.926h26.946v-56.589c0-4.465,3.618-8.084,8.084-8.084
	s8.084,3.62,8.084,8.084v56.589h28.903V249.598c-20.296-1.379-39.786-7.943-56.804-19.19c-3.725-2.462-4.749-7.477-2.287-11.201
	c2.463-3.725,7.48-4.748,11.2-2.287c14.365,9.493,30.778,15.116,47.891,16.466v-63.095c-3.332,5.015-8.037,9.077-13.681,11.624
	l-59.437,26.826c-12.201,5.508-26.454,0.917-33.146-10.678c-6.694-11.595-3.543-26.232,7.326-34.045l52.948-38.064
	c6.222-4.472,13.726-6.544,21.201-6.021c1.396-3.778,3.426-7.251,5.959-10.291c-4.191-6.21-6.159-13.756-5.396-21.387l6.488-64.887
	C93.361,10.046,104.461,0,117.849,0c13.386,0,24.488,10.046,25.82,23.368l6.488,64.888c0.763,7.629-1.205,15.176-5.396,21.385
	c2.533,3.04,4.564,6.513,5.96,10.291c7.474-0.516,14.98,1.55,21.2,6.021l52.948,38.064c10.869,7.815,14.02,22.451,7.326,34.045
	c-6.694,11.595-20.943,16.185-33.146,10.679l-59.435-26.826c-5.644-2.546-10.35-6.609-13.681-11.623v63.093
	c17.112-1.348,33.527-6.973,47.891-16.467c3.725-2.462,8.741-1.439,11.201,2.287c2.462,3.725,1.438,8.74-2.286,11.201
	c-17.017,11.248-36.508,17.812-56.806,19.191v246.233h24.989v-88.926c0-4.465,3.618-8.084,8.084-8.084
	c4.465,0,8.084,3.62,8.084,8.084v88.926h26.946v-56.589c0-4.465,3.618-8.084,8.084-8.084c4.465,0,8.084,3.62,8.084,8.084v56.589
	h16.167v-13.474c0-4.465,3.618-8.084,8.084-8.084c4.466,0,8.084,3.62,8.084,8.084v13.474h29.018
	c-14.455-12.366-23.629-30.731-23.629-51.2c0-37.146,30.22-67.368,67.365-67.368c1.344,0,128.308,0,129.341,0
	c37.143,0,67.363,30.222,67.363,67.368C512,465.101,502.826,483.466,488.371,495.832z M138.695,160.179
	c1.68,3.054,4.314,5.53,7.569,6.999l59.435,26.826c4.599,2.075,9.972,0.346,12.495-4.025c2.523-4.371,1.336-9.888-2.762-12.833
	l-52.948-38.064c-2.894-2.081-6.307-3.118-9.83-3.055C151.53,145.897,146.289,154.539,138.695,160.179z M97.004,160.179
	c-7.596-5.642-12.837-14.282-13.96-24.153c-0.109-0.002-0.217-0.003-0.326-0.003c-3.371,0-6.701,1.042-9.506,3.059l-52.948,38.064
	c-4.098,2.945-5.285,8.463-2.762,12.833c2.524,4.371,7.898,6.1,12.495,4.024l59.436-26.824
	C92.689,165.71,95.324,163.234,97.004,160.179z M103.898,99.909c4.277-1.864,8.995-2.898,13.951-2.898
	c4.954,0,9.673,1.034,13.95,2.898c1.801-2.98,2.626-6.494,2.27-10.044l-6.488-64.888c-0.502-5.022-4.686-8.809-9.732-8.809
	c-5.047,0-9.231,3.787-9.733,8.809l-6.488,64.887C101.273,93.415,102.097,96.93,103.898,99.909z M125.778,149.156
	c6.45-3.001,10.933-9.544,10.933-17.114c0-0.554-0.024-1.101-0.07-1.643c-0.019-0.146-0.032-0.291-0.043-0.435
	c-0.597-5.419-3.498-10.154-7.698-13.201c-0.045-0.032-0.091-0.065-0.136-0.098c-3.083-2.195-6.851-3.486-10.914-3.486
	s-7.83,1.291-10.914,3.485c-0.045,0.033-0.092,0.067-0.138,0.099c-4.208,3.053-7.111,7.799-7.7,13.229
	c-0.01,0.126-0.023,0.252-0.037,0.378c-0.049,0.551-0.073,1.108-0.073,1.671c0,7.57,4.483,14.114,10.933,17.114
	c0.108,0.046,0.213,0.095,0.319,0.144c2.328,1.032,4.904,1.604,7.61,1.604c2.707,0,5.282-0.573,7.61-1.604
	C125.565,149.251,125.671,149.202,125.778,149.156z M366.491,444.632c0-28.231-22.968-51.2-51.198-51.2
	c-28.23,0-51.198,22.969-51.198,51.2s22.968,51.2,51.198,51.2C343.524,495.832,366.491,472.863,366.491,444.632z M495.833,444.632
	c0-28.231-22.968-51.2-51.198-51.2c-0.899,0-85.604,0-85.604,0c14.455,12.366,23.629,30.731,23.629,51.2
	c0,20.467-9.173,38.83-23.624,51.197c27.942-0.338,50.571-23.175,50.571-51.197c0-4.465,3.618-8.084,8.084-8.084
	c4.465,0,8.084,3.62,8.084,8.084c0,20.467-9.173,38.83-23.624,51.197c27.942-0.338,50.571-23.175,50.571-51.197
	c0-4.465,3.618-8.084,8.084-8.084c4.465,0,8.084,3.62,8.084,8.084c0,20.467-9.173,38.83-23.624,51.197
	C473.204,495.49,495.833,472.654,495.833,444.632z M339.545,444.632c0,13.373-10.879,24.253-24.252,24.253
	s-24.252-10.879-24.252-24.253s10.879-24.253,24.252-24.253C328.665,420.379,339.545,431.258,339.545,444.632z M323.377,444.632
	c0-4.458-3.626-8.084-8.084-8.084c-4.458,0-8.084,3.626-8.084,8.084s3.626,8.084,8.084,8.084S323.377,449.09,323.377,444.632z
	 M226.372,223.663c0,4.465,3.618,8.084,8.084,8.084h75.449c4.465,0,8.084-3.62,8.084-8.084c0-4.465-3.618-8.084-8.084-8.084h-75.449
	C229.99,215.579,226.372,219.199,226.372,223.663z M503.916,258.695h-75.449c-4.465,0-8.084,3.62-8.084,8.084
	s3.618,8.084,8.084,8.084h75.449c4.465,0,8.084-3.62,8.084-8.084S508.381,258.695,503.916,258.695z M8.108,140.126
	c4.465,0,8.084-3.62,8.084-8.084c0-39.912,23.515-76.308,59.909-92.723c4.07-1.836,5.882-6.624,4.046-10.693
	s-6.623-5.882-10.692-4.045C27.277,43.603,0.024,85.784,0.024,132.042C0.024,136.507,3.643,140.126,8.108,140.126z M266.791,188.632
	h32.336c4.465,0,8.084-3.62,8.084-8.084c0-4.465-3.618-8.084-8.084-8.084h-32.336c-4.465,0-8.084,3.62-8.084,8.084
	C258.707,185.012,262.325,188.632,266.791,188.632z"/>
</svg>