<svg width="60" height="60" viewBox="0 0 60 60" fill="none" xmlns="http://www.w3.org/2000/svg">
<g clip-path="url(#clip0_852_2068)">
<rect width="60" height="60" fill="white"/>
<path d="M43.5342 52.0982C43.5342 53.4566 44.637 54.56 45.9947 54.56C47.3524 54.56 48.4553 53.4566 48.4553 52.0982C48.4553 50.7398 47.4485 50.1129 45.9947 49.6364C44.7038 49.2143 43.5342 48.533 43.5342 47.1747C43.5342 45.8163 44.637 44.7129 45.9947 44.7129C47.3524 44.7129 48.4553 45.8163 48.4553 47.1747" stroke="#344154" stroke-width="2" stroke-miterlimit="10" stroke-linecap="round" stroke-linejoin="round"/>
<path d="M45.9951 43.3467V44.7343" stroke="#344154" stroke-width="2" stroke-miterlimit="10" stroke-linecap="round" stroke-linejoin="round"/>
<path d="M45.9951 54.5605V55.9482" stroke="#344154" stroke-width="2" stroke-miterlimit="10" stroke-linecap="round" stroke-linejoin="round"/>
<path d="M45.9946 59.237C51.2895 59.237 55.5819 54.9424 55.5819 49.6449C55.5819 44.3473 51.2895 40.0527 45.9946 40.0527C40.6996 40.0527 36.4072 44.3473 36.4072 49.6449C36.4072 54.9424 40.6996 59.237 45.9946 59.237Z" stroke="#344154" stroke-width="2" stroke-miterlimit="10" stroke-linecap="round" stroke-linejoin="round"/>
<path d="M35.5298 10.0806V7.9407C35.5298 6.29813 34.1972 4.96484 32.5555 4.96484C30.9095 4.96484 29.5811 6.29813 29.5811 7.9407V10.0806" stroke="#344154" stroke-width="2" stroke-miterlimit="10" stroke-linecap="round" stroke-linejoin="round"/>
<path d="M32.5557 4.96115V0" stroke="#344154" stroke-width="2" stroke-miterlimit="10" stroke-linecap="round" stroke-linejoin="round"/>
<path d="M41.4242 38.4483V25.7424C41.4242 20.8439 37.4555 16.8691 32.5553 16.8691C27.6551 16.8691 23.6865 20.8397 23.6865 25.7424V53.9503" stroke="#344154" stroke-width="2" stroke-miterlimit="10" stroke-linecap="round" stroke-linejoin="round"/>
<path d="M39.1936 19.8656V16.6055C39.1936 12.9358 36.2193 9.95996 32.5515 9.95996C28.8836 9.95996 25.9092 12.9358 25.9092 16.6055V19.8656" stroke="#344154" stroke-width="2" stroke-miterlimit="10" stroke-linecap="round" stroke-linejoin="round"/>
<path d="M36.0645 35.4678V36.6966" stroke="#344154" stroke-width="2" stroke-miterlimit="10" stroke-linecap="round" stroke-linejoin="round"/>
<path d="M36.0645 39.4385V40.6715" stroke="#344154" stroke-width="2" stroke-miterlimit="10" stroke-linecap="round" stroke-linejoin="round"/>
<path d="M32.5557 35.4678V36.6966" stroke="#344154" stroke-width="2" stroke-miterlimit="10" stroke-linecap="round" stroke-linejoin="round"/>
<path d="M32.5557 39.4385V40.6715" stroke="#344154" stroke-width="2" stroke-miterlimit="10" stroke-linecap="round" stroke-linejoin="round"/>
<path d="M32.5557 43.4092V44.6422" stroke="#344154" stroke-width="2" stroke-miterlimit="10" stroke-linecap="round" stroke-linejoin="round"/>
<path d="M29.042 35.4678V36.6966" stroke="#344154" stroke-width="2" stroke-miterlimit="10" stroke-linecap="round" stroke-linejoin="round"/>
<path d="M29.042 39.4385V40.6715" stroke="#344154" stroke-width="2" stroke-miterlimit="10" stroke-linecap="round" stroke-linejoin="round"/>
<path d="M29.042 43.4092V44.6422" stroke="#344154" stroke-width="2" stroke-miterlimit="10" stroke-linecap="round" stroke-linejoin="round"/>
<path d="M36.0645 31.4971V32.7259" stroke="#344154" stroke-width="2" stroke-miterlimit="10" stroke-linecap="round" stroke-linejoin="round"/>
<path d="M32.5557 31.4971V32.7259" stroke="#344154" stroke-width="2" stroke-miterlimit="10" stroke-linecap="round" stroke-linejoin="round"/>
<path d="M29.042 31.4971V32.7259" stroke="#344154" stroke-width="2" stroke-miterlimit="10" stroke-linecap="round" stroke-linejoin="round"/>
<path d="M45.1762 27.0088H41.4248" stroke="#344154" stroke-width="2" stroke-miterlimit="10" stroke-linecap="round" stroke-linejoin="round"/>
<path d="M56.873 43.4094V27.0088" stroke="#344154" stroke-width="2" stroke-miterlimit="10" stroke-linecap="round" stroke-linejoin="round"/>
<path d="M3 26.6152V53.9496" stroke="#344154" stroke-width="2" stroke-miterlimit="10" stroke-linecap="round" stroke-linejoin="round"/>
<path d="M19.8477 53.9496V26.6152" stroke="#344154" stroke-width="2" stroke-miterlimit="10" stroke-linecap="round" stroke-linejoin="round"/>
<path d="M17.5834 24.8186V20.0664H5.25977V24.8186" stroke="#344154" stroke-width="2" stroke-miterlimit="10" stroke-linecap="round" stroke-linejoin="round"/>
<path d="M15.5412 20.066V16.4255C15.5412 15.6523 14.9145 15.0254 14.1417 15.0254H8.71092C7.93809 15.0254 7.31152 15.6523 7.31152 16.4255V20.066" stroke="#344154" stroke-width="2" stroke-miterlimit="10" stroke-linecap="round" stroke-linejoin="round"/>
<path d="M3 33.8755V26.2979C3 25.4787 3.66424 24.8184 4.47885 24.8184H7.83758V33.0396" stroke="#344154" stroke-width="2" stroke-miterlimit="10" stroke-linecap="round" stroke-linejoin="round"/>
<path d="M15.0107 33.0396V24.8184H18.3695C19.1883 24.8184 19.8483 25.4829 19.8483 26.2979V33.8713" stroke="#344154" stroke-width="2" stroke-miterlimit="10" stroke-linecap="round" stroke-linejoin="round"/>
<path d="M32.5557 19.377C29.0466 19.377 26.1934 22.2316 26.1934 25.7424V27.0089H38.918V25.7424C38.9138 22.2316 36.0606 19.377 32.5557 19.377Z" fill="#1772BD"/>
<path d="M7.22754 36.3828H10.1017" stroke="#344154" stroke-width="2" stroke-miterlimit="10" stroke-linecap="round" stroke-linejoin="round"/>
<path d="M7.22754 39.3428H10.1017" stroke="#344154" stroke-width="2" stroke-miterlimit="10" stroke-linecap="round" stroke-linejoin="round"/>
<path d="M7.22754 42.3018H10.1017" stroke="#344154" stroke-width="2" stroke-miterlimit="10" stroke-linecap="round" stroke-linejoin="round"/>
<path d="M7.22754 45.2646H10.1017" stroke="#344154" stroke-width="2" stroke-miterlimit="10" stroke-linecap="round" stroke-linejoin="round"/>
<path d="M48.6016 27.3096H53.4475" stroke="#344154" stroke-width="2" stroke-miterlimit="10" stroke-linecap="round" stroke-linejoin="round"/>
<path d="M48.6016 30.8457H53.4475" stroke="#344154" stroke-width="2" stroke-miterlimit="10" stroke-linecap="round" stroke-linejoin="round"/>
<path d="M48.6016 34.3857H53.4475" stroke="#344154" stroke-width="2" stroke-miterlimit="10" stroke-linecap="round" stroke-linejoin="round"/>
<path d="M15.6202 36.3828H12.7461" stroke="#344154" stroke-width="2" stroke-miterlimit="10" stroke-linecap="round" stroke-linejoin="round"/>
<path d="M15.6202 39.3428H12.7461" stroke="#344154" stroke-width="2" stroke-miterlimit="10" stroke-linecap="round" stroke-linejoin="round"/>
<path d="M15.6202 42.3018H12.7461" stroke="#344154" stroke-width="2" stroke-miterlimit="10" stroke-linecap="round" stroke-linejoin="round"/>
<path d="M15.6202 45.2646H12.7461" stroke="#344154" stroke-width="2" stroke-miterlimit="10" stroke-linecap="round" stroke-linejoin="round"/>
<path d="M56.8728 27.0086C56.8728 23.7778 54.2535 21.1572 51.0243 21.1572C47.7951 21.1572 45.1758 23.7778 45.1758 27.0086" stroke="#344154" stroke-width="2" stroke-miterlimit="10" stroke-linecap="round" stroke-linejoin="round"/>
<path d="M51.0244 21.1571V18.1729" stroke="#344154" stroke-width="2" stroke-miterlimit="10" stroke-linecap="round" stroke-linejoin="round"/>
<path d="M45.1758 27.0088V37.5455" stroke="#344154" stroke-width="2" stroke-miterlimit="10" stroke-linecap="round" stroke-linejoin="round"/>
<path d="M11.4219 15.0209V8.77246" stroke="#344154" stroke-width="2" stroke-miterlimit="10" stroke-linecap="round" stroke-linejoin="round"/>
</g>
<defs>
<clipPath id="clip0_852_2068">
<rect width="60" height="60" fill="white"/>
</clipPath>
</defs>
</svg>
