<svg width="60" height="60" viewBox="0 0 60 60" fill="none" xmlns="http://www.w3.org/2000/svg">
<rect width="60" height="60" fill="white"/>
<path d="M50.083 30.0098H56.2299V36.3259V49.6807H21.8955V43.5338" stroke="#344154" stroke-width="2" stroke-miterlimit="10" stroke-linecap="round" stroke-linejoin="round"/>
<path d="M43.8579 37.3089V23.8633H50.0832V43.5343H15.7529V37.3089H43.8579Z" fill="#FFC524"/>
<path d="M43.8579 23.8633H50.0832V43.5343H15.7529V37.3089" stroke="#344154" stroke-width="2" stroke-miterlimit="10" stroke-linecap="round" stroke-linejoin="round"/>
<path d="M37.3296 17.6084H43.9389V37.2794H9.60449V30.6742" stroke="#344154" stroke-width="2" stroke-miterlimit="10" stroke-linecap="round" stroke-linejoin="round"/>
<path d="M37.3303 30.671V11H3V30.671H37.3303ZM20.1651 13.5966C24.1654 13.5966 27.4061 16.8373 27.4061 20.8376C27.4061 24.8378 24.1654 28.0784 20.1651 28.0784C16.1649 28.0784 12.9242 24.8378 12.9242 20.8376C12.9242 16.8373 16.1649 13.5966 20.1651 13.5966Z" fill="#FFC524"/>
<path d="M31.4355 21.324C31.4355 21.0969 31.6213 20.9111 31.8484 20.9111C32.0754 20.9111 32.2612 21.0969 32.2612 21.324C32.2612 21.551 32.0754 21.7368 31.8484 21.7368C31.6213 21.7368 31.4355 21.551 31.4355 21.324Z" stroke="#344154" stroke-width="2" stroke-miterlimit="10" stroke-linecap="round" stroke-linejoin="round"/>
<path d="M8.06934 21.324C8.06934 21.0969 8.25511 20.9111 8.48216 20.9111C8.70921 20.9111 8.89498 21.0969 8.89498 21.324C8.89498 21.551 8.70921 21.7368 8.48216 21.7368C8.25511 21.7368 8.06934 21.551 8.06934 21.324Z" stroke="#344154" stroke-width="2" stroke-miterlimit="10" stroke-linecap="round" stroke-linejoin="round"/>
<path d="M20.9129 16.3412C21.1854 16.3577 21.429 16.4155 21.6271 16.465C21.8294 16.5187 22.0234 16.5724 22.2216 16.6632L22.2133 17.7654C21.8707 17.6375 21.7262 17.592 21.3753 17.5136C20.9831 17.4228 20.7106 17.398 20.4423 17.398C19.9758 17.398 19.6043 17.526 19.3194 17.7778C19.0387 18.0337 18.8942 18.3558 18.8942 18.7479C18.8942 18.9956 18.9355 19.2144 19.0181 19.4043C19.1006 19.5942 19.2121 19.7511 19.3525 19.8667C19.4928 19.9823 19.8148 20.1598 20.3143 20.3951L21.0161 20.7212C21.6106 20.9978 22.0275 21.3281 22.267 21.712C22.5023 22.0918 22.622 22.5541 22.622 23.0908C22.622 23.644 22.4486 24.1229 22.1019 24.5357C21.7551 24.9444 21.4001 25.1178 20.9129 25.2664L20.9047 26.2654H19.7653L19.7694 25.3283C19.2286 25.3159 18.8034 25.1426 18.4897 24.9609V23.8504C18.6507 23.966 18.8901 24.0775 19.2162 24.1848C19.5424 24.2921 19.8437 24.3458 20.1244 24.3458C20.529 24.3458 20.851 24.2302 21.0822 23.999C21.3134 23.7679 21.429 23.4706 21.429 23.1115C21.429 22.8885 21.3877 22.6863 21.3051 22.5046C21.2225 22.323 21.1028 22.1661 20.946 22.0381C20.7891 21.9102 20.4877 21.7409 20.0377 21.5262L19.4887 21.2703C18.8695 20.9813 18.4154 20.6263 18.1305 20.2052C17.8457 19.7841 17.7012 19.2475 17.7012 18.5911C17.7012 18.0503 17.8911 17.5755 18.275 17.1668C18.6589 16.7581 19.0676 16.5352 19.7488 16.4196V15.4082H20.9005L20.9129 16.3412Z" fill="#344154"/>
<path d="M3 11.0038L3 30.6748L37.3303 30.6748V11.0038L3 11.0038Z" stroke="#344154" stroke-width="2" stroke-miterlimit="10" stroke-linecap="round" stroke-linejoin="round"/>
</svg>
