<svg width="60" height="60" viewBox="0 0 60 60" fill="none" xmlns="http://www.w3.org/2000/svg">
<g clip-path="url(#clip0_852_2086)">
<rect width="60" height="60" fill="white"/>
<path d="M45.9904 37.166C45.4743 35.7955 44.6033 34.5736 43.4639 33.6323C42.5103 32.848 41.5402 32.3402 40.6154 32.1379L33.2672 30.0036C33.1062 29.9582 32.9576 29.888 32.8172 29.793C32.4292 29.533 32.1773 29.116 32.1237 28.6495L31.7852 25.7392C33.8451 24.1415 35.3643 21.7513 36.095 18.9647C37.4078 18.8491 38.4151 17.3877 38.4151 15.5466C38.4151 13.8457 37.5605 12.4669 36.3881 12.1738" stroke="#344154" stroke-width="2" stroke-miterlimit="10" stroke-linecap="round"/>
<path d="M15.6478 12.1992C14.5084 12.5253 13.6869 13.8794 13.6869 15.5513C13.6869 17.3925 14.6901 18.8498 15.9987 18.9695C16.7335 21.7561 18.2568 24.1463 20.3127 25.7439L19.9783 28.6502C19.9246 29.1125 19.6728 29.5295 19.2848 29.7937C19.1485 29.8845 18.9958 29.9588 18.8348 30.0042L11.5113 32.1303C10.5618 32.3408 9.5917 32.8445 8.63808 33.633C7.13541 34.8714 6.10336 36.6012 5.72769 38.496L4.01033 47.1034C3.98144 47.2231 4.01447 47.351 4.0929 47.446C4.17134 47.5409 4.28694 47.5946 4.41078 47.5946H39.93" stroke="#344154" stroke-width="2" stroke-miterlimit="10" stroke-linecap="round"/>
<path d="M36.3883 12.1783C36.3883 12.1783 36.9952 0 26.0471 0C15.0991 0 15.6481 12.1989 15.6481 12.1989" stroke="#344154" stroke-width="2" stroke-miterlimit="10" stroke-linecap="round"/>
<path d="M16.4277 6.96469C16.8529 6.08951 17.6868 5.42071 18.5992 5.08633C20.0812 4.54553 21.7449 4.97898 23.1815 5.63536C25.2539 6.58073 27.0662 7.69539 29.3904 7.95134C31.6072 8.1949 33.6342 7.95131 35.624 6.93576" stroke="#344154" stroke-width="2" stroke-miterlimit="10" stroke-linecap="round"/>
<path d="M19.2812 29.793L26.0474 36.8068" stroke="#344154" stroke-width="2" stroke-miterlimit="10" stroke-linecap="round"/>
<path d="M32.813 29.793L26.0469 36.8068" stroke="#344154" stroke-width="2" stroke-miterlimit="10" stroke-linecap="round"/>
<path d="M56.2706 47.2881C56.2706 42.776 52.613 39.1143 48.0967 39.1143C43.5804 39.1143 39.9229 42.7718 39.9229 47.2881C39.9229 51.8003 43.5804 55.462 48.0967 55.462C52.613 55.462 56.2706 51.8044 56.2706 47.2881Z" stroke="#344154" stroke-width="2" stroke-miterlimit="10"/>
<path d="M48.0977 51.4043V43.1768" stroke="#344154" stroke-width="2" stroke-miterlimit="10" stroke-linecap="round"/>
<path d="M43.9854 47.2891H52.2129" stroke="#344154" stroke-width="2" stroke-miterlimit="10" stroke-linecap="round"/>
<path d="M33.5568 31.9727L27.2984 38.6026C26.9599 38.9618 26.5058 39.131 26.0517 39.1268C25.5976 39.1351 25.1435 38.9618 24.805 38.6026L18.5424 31.9727L15.9912 32.7488L26.0228 43.4821L26.0517 43.4533L26.0806 43.4821L36.1122 32.7488L33.5568 31.9727Z" fill="#1772BD"/>
</g>
<defs>
<clipPath id="clip0_852_2086">
<rect width="60" height="60" fill="white"/>
</clipPath>
</defs>
</svg>
