<svg xmlns="http://www.w3.org/2000/svg" width="60" height="60" fill="none"><style>.B{stroke-linejoin:round}.C{stroke-linecap:round}.D{stroke-miterlimit:10}</style><path fill="#fff" d="M0 0h60v60H0z"/><g stroke="#111" stroke-width="2" class="D B"><path d="M34.603 39.219a3.121 3.121 0 1 0 6.241 0c0-1.726-1.278-2.52-3.12-3.122-1.638-.535-3.121-1.396-3.121-3.122a3.121 3.121 0 1 1 6.241 0m-3.12-4.861v1.76m0 12.467v1.764m-16.401-1.149H4.191a.87.87 0 0 1-.865-.865V5.707a.87.87 0 0 1 .865-.865h44.866c.48 0 .865.389.865.865v17.492" class="C"/><path d="M19.427 10.426a.551.551 0 1 0 0-1.103.551.551 0 1 0 0 1.103zm-4.583-.501a.551.551 0 1 0-1.103 0 .55.55 0 0 0 .551.552.554.554 0 0 0 .552-.552zm-5.139.05a.551.551 0 1 0-1.103 0 .551.551 0 1 0 1.103 0z"/><path d="M3.326 15.011h46.6M26.867 9.925h18.565" class="C"/><path d="M37.724 49.831a13.72 13.72 0 0 0 0-27.443 13.72 13.72 0 0 0 0 27.443z"/></g><path fill="#ffc524" d="M37.724 24.896a10.65 10.65 0 0 0-1.558.113c5.443.761 9.646 5.45 9.646 11.101s-4.203 10.34-9.646 11.101c.51.071 1.032.113 1.558.113 6.179 0 11.208-5.028 11.208-11.214s-5.026-11.214-11.208-11.214z"/><g stroke="#111" stroke-width="2" class="B C D"><path d="M39.399 53.493c8.673 0 15.699-7.034 15.699-15.707"/><path d="m51.71 47.533 6.016 6.019c.71.711.71 1.86 0 2.566a1.81 1.81 0 0 1-2.565 0l-6.016-6.019"/></g><path fill="#1772bd" d="M15.508 40.448a20.82 20.82 0 0 1-8.259-10.123l-1.412-3.691v13.814h9.671z"/></svg>