<svg xmlns="http://www.w3.org/2000/svg" width="60" height="60" fill="none"><path fill="#fff" d="M0 0h60v60H0z"/><path stroke="#111" stroke-linecap="round" stroke-linejoin="round" stroke-miterlimit="10" stroke-width="2" d="m30.096 36.68-5.924 5.926M30.096 30.138v6.541l5.84 5.843M33.976 19.56v6.428M26.106 19.56v6.428h7.87M31.519 11.819A3.658 3.658 0 0 0 28.72 5.06a3.658 3.658 0 0 0 2.798 6.758Z"/><path stroke="#111" stroke-linecap="round" stroke-linejoin="round" stroke-miterlimit="10" stroke-width="2" d="M23.136 25.988v-9.237a2.379 2.379 0 0 1 2.377-2.378h9.157a2.379 2.379 0 0 1 2.377 2.378v8.343M17.964 49.699v6.432M10.09 49.699v6.432h7.874M17.735 38.594a3.658 3.658 0 0 1-3.656 3.657 3.658 3.658 0 0 1 0-7.314 3.655 3.655 0 0 1 3.655 3.657Z"/><path stroke="#111" stroke-linecap="round" stroke-linejoin="round" stroke-miterlimit="10" stroke-width="2" d="M7.124 56.131v-9.237A2.379 2.379 0 0 1 9.5 44.516h9.157a2.379 2.379 0 0 1 2.377 2.378v8.343M50.231 49.699v6.432M42.357 49.699v6.432h7.874M50.001 38.594a3.658 3.658 0 0 1-3.655 3.657 3.658 3.658 0 0 1 0-7.314 3.655 3.655 0 0 1 3.655 3.657Z"/><path stroke="#111" stroke-linecap="round" stroke-linejoin="round" stroke-miterlimit="10" stroke-width="2" d="M39.39 56.131v-9.237a2.379 2.379 0 0 1 2.378-2.378h9.157a2.379 2.379 0 0 1 2.377 2.378v8.343"/><path fill="#FFC524" d="m14.08 51.94 1.741-1.48-1.01-4.021h-1.462l-1.008 4.02 1.738 1.48Z"/><path fill="#1772BD" d="m30.096 21.675 1.737-1.48-1.01-4.025h-1.459l-1.01 4.025 1.742 1.48Z"/><path fill="#FFC524" d="m46.346 51.822 1.742-1.48-1.01-4.025h-1.459l-1.01 4.025 1.737 1.48Z"/></svg>