<svg xmlns="http://www.w3.org/2000/svg" width="44" height="44" fill="none"><rect width="44" height="44" fill="#F3F6F9" rx="22"/><path fill="#1772BD" d="M30.405 15.696H13.772A2.78 2.78 0 0 0 11 18.468v10.165a2.78 2.78 0 0 0 2.772 2.772h16.633a2.78 2.78 0 0 0 2.772-2.772V18.468a2.78 2.78 0 0 0-2.772-2.772Zm.924 12.937a.927.927 0 0 1-.924.924H13.772a.927.927 0 0 1-.924-.924V18.468c0-.508.416-.924.924-.924h16.633c.508 0 .924.416.924.924v10.165Z"/><path fill="#1772BD" d="M28.557 21.24H22.09v1.849h6.468V21.24ZM28.557 24.937H22.09v1.848h6.468v-1.848ZM18.392 24.013h-1.848a1.853 1.853 0 0 0-1.848 1.848v1.848h5.545V25.86a1.853 1.853 0 0 0-1.849-1.848ZM17.468 23.089a1.848 1.848 0 1 0 0-3.697 1.848 1.848 0 0 0 0 3.697ZM19.316 14.772h1.849c0-.508.415-.924.924-.924.508 0 .924.416.924.924h1.848A2.78 2.78 0 0 0 22.089 12a2.78 2.78 0 0 0-2.773 2.772Z"/></svg>