<svg xmlns="http://www.w3.org/2000/svg" width="60" height="60" fill="none"><path fill="#fff" d="M0 0h60v60H0z"/><g stroke="#111" stroke-linejoin="round" stroke-miterlimit="10" stroke-width="2"><path d="M13.933 13.932a4.4 4.4 0 0 1-4.399 4.401 4.4 4.4 0 1 1 0-8.802 4.4 4.4 0 0 1 4.399 4.401z"/><path stroke-linecap="round" d="M12.679 38.052v15.285m-6.291-.263V38.052m3.145-12.956v1.835a3.252 3.252 0 0 0 3.25 3.252h8.443"/><path d="M15.415 57.258a4.182 4.182 0 0 0-4.182-4.184h-4.85v4.184h9.032z"/><path stroke-linecap="round" d="M14.63 27.29v-1.613a5.1 5.1 0 0 0-5.097-5.099 5.1 5.1 0 0 0-5.097 5.099v4.568c0 2.721.668 5.404 1.951 7.807h6.292a16.67 16.67 0 0 0 1.709-4.978"/><path d="M39.407 57.258c1.842 0 3.534-1.145 4.106-2.901a4.77 4.77 0 0 0 .242-1.4c.004-1.58-.543-3.11-1.487-4.38l-3.187-5.162H33.734l-3.254 5.162c-.944 1.266-1.491 2.8-1.487 4.38v.046c.021 2.366 1.988 4.255 4.353 4.255h6.062z"/><g stroke-linecap="round"><path d="m39.077 43.415 1.976-1.919-.71-.71a1.363 1.363 0 0 0-1.926 0l-.572.573-.251-.251a1.686 1.686 0 0 0-2.381 0l-.251.251-.572-.573a1.363 1.363 0 0 0-1.926 0l-.71.71 1.976 1.919m18.197-9.551V12.478m3.851 2.135L36.37 3.847 16.957 14.613m3.852-2.135v15.164m4.039 6.222V20.603a4.75 4.75 0 1 1 9.5 0v13.262m13.539-.001V20.603a4.75 4.75 0 1 0-9.5 0v13.262m-17.578-.001h33.04a1.93 1.93 0 0 1 1.93 1.931v3.456M34.82 52.071a1.55 1.55 0 1 0 3.1 0c0-.857-.635-1.254-1.55-1.551-.815-.268-1.55-.694-1.55-1.551a1.55 1.55 0 1 1 3.1 0M36.37 46.554v.874m0 6.193v.874"/></g></g><g fill="#ffc524"><use href="#a"/><use x="-13.539" href="#a"/></g><defs><path id="a" d="M43.137 18.358a2.25 2.25 0 0 0-2.243 2.244v9.12h4.487v-9.12a2.25 2.25 0 0 0-2.243-2.244z"/></defs></svg>