<svg xmlns="http://www.w3.org/2000/svg" xml:space="preserve" width="108" height="45"><path fill="#FFF" d="M95.566 23.798h-.919v-6.087l1.962-2.266a1.185 1.185 0 0 0-.879-1.981h-1.083v-3.48a1.185 1.185 0 0 0-2.01-.851l-2.508 2.429a1.186 1.186 0 0 0-.361.852v3.305l-1.62-2.314a1.185 1.185 0 0 0-1.82-.15l-3.911 3.994c-.037.038-.066.08-.097.121v-1.154c0-.265-.09-.523-.254-.732l-1.672-2.131a1.185 1.185 0 0 0-.87-.452l-.063-.001c-.32 0-.627.129-.851.359l-.745.766a1.184 1.184 0 0 0-2.04-.76l-2.509 2.618a1.19 1.19 0 0 0-.33.821v8.353h-.022a1.188 1.188 0 0 0-.112-.598 1.187 1.187 0 0 0-1.068-.671h-.334v-7.554c0-.276-.096-.542-.271-.755l-1.804-2.184a1.19 1.19 0 0 0-.841-.428l-.074-.002c-.301 0-.593.115-.813.323l-1.532 1.443-1.05-1.319a1.186 1.186 0 0 0-.867-.446l-.061-.001a1.19 1.19 0 0 0-.848.356l-.313.32a1.185 1.185 0 0 0-1.932-.306l-2.518 2.659a1.16 1.16 0 0 0-.261.45 1.195 1.195 0 0 0-.256-.41l-2.612-2.707a1.181 1.181 0 0 0-1.612-.089l-4.184 3.479v-.43c0-.264-.087-.52-.249-.728l-1.663-2.138a1.174 1.174 0 0 0-.343-.297L56.12 4.69a1.184 1.184 0 0 0-.817-2.045 1.19 1.19 0 0 0-.67.207L39.958 12.883v-2.92a1.185 1.185 0 0 0-2.008-.854l-2.518 2.419a1.188 1.188 0 0 0-.364.855v3.33l-1.642-2.346a1.187 1.187 0 0 0-1.826-.142l-3.895 4.036c-.055.058-.104.12-.146.187v-3.399c0-.053-.005-.104-.012-.156 1.893-.778 3.228-2.632 3.228-4.788 0-2.929-2.294-5.225-5.223-5.225-2.858 0-5.184 2.343-5.184 5.225 0 1.477.624 2.808 1.619 3.752h-.865v.028a1.226 1.226 0 0 0-.229-.023H5.931c-.516 0-.971.333-1.13.823-.157.491.02 1.026.438 1.327 6.049 4.341 9.61 10.139 11.532 14.237 2.099 4.478 2.759 7.968 2.765 8.002a1.19 1.19 0 0 0 1.167.971c.303 0 .599-.116.824-.333l9.476-9.153c.077-.075.142-.16.195-.25h1.209c.328 0 .64-.136.864-.375l1.796-1.914v1.102c0 .277.098.528.257.729a1.173 1.173 0 0 0-.201.658v.806c0 .365.169.688.428.906a1.186 1.186 0 0 0-.246 1.384l1.703 3.45c.144.291.399.504.698.602v.078h56.522v-.019h.482c.655 0 1.186-.531 1.186-1.186v-3.449c0-.294-.111-.56-.289-.767a1.18 1.18 0 0 0 .551-.999v-.806c0-.625-.486-1.133-1.101-1.177l1.432-1.784a1.185 1.185 0 0 0-.923-1.927z"/><path fill="#CB2026" fill-rule="evenodd" d="M90.952 27.303h2.752l1.861-2.319H93.46v-7.715l2.268-2.619H93.46V9.983l-2.508 2.429v14.891M85.773 21.8v-5.531l2.048 3.103-2.048 2.428m-2.51 5.503h3.832l2.185-2.319h-3.506v-2.375l4.046-4.748-2.644-3.778-3.913 3.995v9.225m-9.092 0h2.509V17.62l1.133-1.054.891 1.08v9.657h2.132l1.834-2.319h-1.538v-8.77l-1.673-2.131-2.78 2.861v-2.861l-2.509 2.619v10.601m20.804 2.19H36.31v-.806h58.664v.806M29.59 9.104c0 2.215-1.782 3.996-4.038 3.996a3.986 3.986 0 0 1-3.998-3.996c0-2.258 1.781-4.038 3.998-4.038a4.005 4.005 0 0 1 4.038 4.038m-1.613 13.5-1.02.705v1.079h1.02v-1.784" clip-rule="evenodd"/><path fill="#293787" fill-rule="evenodd" d="m59.385 16.707 2.518-2.659v2.28l2.232-2.28 1.853 2.327 2.47-2.327 1.805 2.183v8.739h1.521l-1.853 2.329h-2.09v-9.548l-1.093-1.376-.712.712v10.212h-2.327V17.61l-1.093-1.282-.712.713v10.258h-2.518V16.707m-8.93 5.083 4.274-3.895-1.71-1.853v1.948h-2.706v-.427l4.226-3.515 2.613 2.707v8.215h1.614l-1.853 2.329H54.73v-1.948l-2.232 1.948h-2.042V21.79m4.274 3.181v-6.362l-1.805 1.662v4.7h1.805m-13.298-8.264 2.517-2.659v2.897l2.802-2.897 1.662 2.137v8.786h1.521L48.129 27.3h-2.136v-9.69l-.903-1.045-1.14 1.045v9.689h-2.517V16.707m-5.18-4.323 2.518-2.42v4.653h2.232l-2.232 2.613v7.741h2.089L39.007 27.3h-2.754V12.384m-7.695 5.7 3.895-4.036 2.661 3.799-4.038 4.75v2.374h3.515L32.406 27.3h-3.849v-9.216m4.562 1.283-2.043-3.135v5.558l2.043-2.423m-9.215-2.66 2.469-2.659V24.97h1.52l-1.804 2.329h-2.185V16.707" clip-rule="evenodd"/><g fill="#293787"><path d="M36.369 31.258h1.155l1.259 2.587h.194l1.246-2.587h1.15l-1.686 3.449h-1.616l-1.702-3.449zM41.672 31.258h1.104v3.449h-1.104v-3.449zM43.388 31.258h3.82v.811h-2.785v.497h2.647v.762h-2.647v.553h2.807v.827h-3.842v-3.45zM47.445 31.258h4.174v.88h-1.535v2.569H48.98v-2.569h-1.534v-.88zM51.99 31.258h1.844l1.803 2.574h.112l-.026-2.574h1.069v3.449h-1.828l-1.815-2.569h-.112l.022 2.569H51.99v-3.449zM61.147 34.707l-.297-.586h-2.285l-.293.586h-1.199l1.828-3.449h1.629l1.807 3.449h-1.19zm-.668-1.341-.659-1.302h-.211l-.664 1.302h1.534zM62.621 31.258h1.906l1.026 2.238 1.026-2.238h1.897v3.449h-1.035l.016-2.582h-.167l-1.298 2.582h-.876l-1.297-2.582h-.188l.025 2.582h-1.035v-3.449zM69.085 31.258h1.845l1.802 2.574h.112l-.026-2.574h1.069v3.449H72.06l-1.815-2.569h-.111l.021 2.569h-1.069v-3.449zM74.495 31.258h3.819v.811H75.53v.497h2.647v.762H75.53v.553h2.806v.827h-3.841v-3.45zM78.552 31.258h4.174v.88H81.19v2.569h-1.104v-2.569h-1.535v-.88zM83.148 33.793h1.104v.914h-1.104v-.914zM84.605 31.258h1.157l1.258 2.587h.194l1.246-2.587h1.151l-1.686 3.449h-1.617l-1.703-3.449zM89.908 31.258h1.845l1.803 2.574h.113l-.026-2.574h1.069v3.449h-1.828l-1.815-2.569h-.112l.022 2.569h-1.07v-3.449z"/></g><path fill="#CB2026" fill-rule="evenodd" d="m31.658 22.812 4.012-4.72v4.511l-1.85 1.785h-2.162zM39.354 19.051l1.4-1.35.095-1.226 3.681-3.89.013 1.463L55.301 3.829 40.375 14.034h1.893l-2.914 3.411zM30.179 27.883l-9.476 9.153S18.092 22.774 5.932 14.048h14.961V27.5l2.428-1.678v2.06h3.054l1.602-2.068v2.068h2.202z" clip-rule="evenodd"/></svg>