<svg xmlns="http://www.w3.org/2000/svg" width="180" height="28" fill="none"><path fill="#C32022" d="M33.124 10.895H20.156l1.476 6.895h8.399c.17 0 .312.17.227.34l-.937 2.355c-.028.086-.142.17-.227.17H12.892a.67.67 0 0 1-.624-.907l4.455-11.35a.65.65 0 0 1 .624-.426h27.098L47.255.85H12.41c-.482 0-.965.142-1.362.425L8.522 2.978c-.397.284-.709.653-.88 1.107L.323 22.784a2.424 2.424 0 0 0 .255 2.242l1.192 1.73a2.424 2.424 0 0 0 1.986 1.05H36.7l6.64-16.911H33.124ZM81.503 17.79l2.81-7.122H57.326l.88-2.242a.65.65 0 0 1 .624-.425h26.531l2.81-7.123H54.432c-.482 0-.965.142-1.362.426l-2.525 1.702c-.398.284-.71.653-.88 1.107l-7.32 18.671a2.424 2.424 0 0 0 .255 2.242l1.191 1.73a2.424 2.424 0 0 0 1.987 1.05h31.78l2.809-7.122h-26.02a.67.67 0 0 1-.624-.908l.766-1.986h27.013ZM122.817.878l-7.605 19.38a.65.65 0 0 1-.624.426c-.313 0-.568-.227-.653-.51L109.878.906H95.293c-.483 0-.965.142-1.362.425l-2.526 1.703c-.397.284-.709.652-.88 1.106l-7.32 18.671a2.425 2.425 0 0 0 .255 2.242l1.192 1.73a2.424 2.424 0 0 0 1.986 1.05h15.663l-1.475-6.894H95.69a.67.67 0 0 1-.624-.908l4.54-11.577a.65.65 0 0 1 .624-.426c.312 0 .567.227.652.51l4.059 19.267h18.074L133.599.878h-10.782ZM159.79 25.11l.454 1.136a2.394 2.394 0 0 0 2.241 1.532h9.818l-6.385-15.067-5.958 10.3c-.369.653-.454 1.419-.17 2.1Z"/><path fill="#000" d="m165.891.878-23.353 19.664c-.114.114-.255.142-.426.142h-.284a.67.67 0 0 1-.624-.908L148.61.878h-11.066l-8.569 21.906a2.423 2.423 0 0 0 .255 2.242l1.192 1.73a2.422 2.422 0 0 0 1.985 1.05h15.267l18.245-15.067L179.993.88h-14.102Z"/></svg>