<svg width="25" height="25" viewBox="0 0 25 25" fill="none" xmlns="http://www.w3.org/2000/svg">
<g clip-path="url(#clip0_3503_5227)">
<path d="M12.1428 0.30249C7.87819 0.30249 4.42017 3.76052 4.42017 8.0251C4.42017 10.6612 5.74207 12.987 7.75749 14.3798V10.5463C7.75749 9.6612 8.47592 8.94277 9.36102 8.94277H14.9245C15.8096 8.94277 16.528 9.6612 16.528 10.5463V14.3798C18.5435 12.987 19.8654 10.6612 19.8654 8.0251C19.8654 3.76052 16.4073 0.30249 12.1428 0.30249ZM12.1428 7.68408C11.3017 7.68408 10.6197 7.00206 10.6197 6.16103C10.6197 5.31999 11.3017 4.63795 12.1428 4.63795C12.9838 4.63795 13.6658 5.31999 13.6658 6.16103C13.6658 7.00206 12.9838 7.68408 12.1428 7.68408Z" fill="#FFC524"/>
<path d="M13.6504 6.40914C13.7851 5.57882 13.2213 4.79648 12.391 4.66173C11.5606 4.52697 10.7783 5.09083 10.6435 5.92115C10.5088 6.75146 11.0727 7.5338 11.903 7.66856C12.7333 7.80331 13.5156 7.23945 13.6504 6.40914Z" stroke="#111111" stroke-miterlimit="10"/>
<path d="M12.1429 9.00403V11.6191" stroke="#111111" stroke-miterlimit="10"/>
<path d="M9.70398 12.1003V15.748H14.5816V12.1003" stroke="#111111" stroke-miterlimit="10"/>
<path d="M7.75781 15.7476V11.0348C7.75781 9.91211 8.35746 9.00403 9.48012 9.00403H14.808" stroke="#111111" stroke-miterlimit="10"/>
<path d="M14.8079 9.00403C15.9305 9.00403 16.5302 9.91403 16.5302 11.0348V15.7476" stroke="#111111" stroke-miterlimit="10"/>
<path d="M8.98912 20.0352H7.75726L6.74572 17.5581C6.69016 17.424 6.78978 17.2765 6.93538 17.2765H17.3516C17.4972 17.2765 17.5949 17.424 17.5413 17.5581L16.5297 20.0352H15.2979" stroke="#111111" stroke-miterlimit="10"/>
<path d="M15.2966 25.2157V19.0487C15.2966 18.9721 15.2353 18.9108 15.1587 18.9108H9.12964C9.05301 18.9108 8.9917 18.9721 8.9917 19.0487V25.2157" stroke="#111111" stroke-miterlimit="10"/>
</g>
<defs>
<clipPath id="clip0_3503_5227">
<rect width="24" height="24" fill="white" transform="translate(0.214111 0.30249)"/>
</clipPath>
</defs>
</svg>
