<svg width="25" height="25" viewBox="0 0 25 25" fill="none" xmlns="http://www.w3.org/2000/svg">
<g clip-path="url(#clip0_3503_5238)">
<path d="M4.68042 9.0751V5.27625H22.0005V15.719H10.7997" stroke="#111111" stroke-miterlimit="10" stroke-linecap="round"/>
<path d="M22.2112 5.27614H4.47013C4.1182 5.27614 3.83203 4.99164 3.83203 4.63807C3.83203 4.28614 4.11655 4 4.47013 4H22.2112C22.5631 4 22.8493 4.28449 22.8493 4.63807C22.8476 4.98999 22.5631 5.27614 22.2112 5.27614Z" stroke="#111111" stroke-miterlimit="10" stroke-linecap="round"/>
<path d="M10.382 10.2573H6.82982H3.27766C3.27766 10.2573 2.70373 14.3275 5.72965 17.4307H6.82982H7.93C10.9559 14.3259 10.382 10.2573 10.382 10.2573Z" stroke="#111111" stroke-miterlimit="10" stroke-linejoin="round"/>
<path d="M6.16058 16.4442C4.5473 14.5974 4.25293 12.4185 4.22498 11.2443H9.4332C9.40525 12.4168 9.11252 14.5974 7.4976 16.4442H6.16058Z" fill="#FFC524"/>
<path d="M10.496 11.7308H12.3626C12.3626 11.7308 12.1718 14.2716 9.86121 14.2716" stroke="#111111" stroke-miterlimit="10" stroke-linejoin="round"/>
<path d="M3.16281 11.7307H1.29626C1.29626 11.7307 1.48704 14.2715 3.7976 14.2715" stroke="#111111" stroke-miterlimit="10" stroke-linejoin="round"/>
<path d="M8.70271 21.9549H4.95484C4.95484 21.9549 4.90877 21.4435 5.21629 20.9715C5.32648 20.8021 5.45148 20.6919 5.56495 20.6196C5.91195 20.3959 6.29019 20.0259 6.3461 19.5901C6.44971 18.7613 5.72611 18.1758 5.72611 18.1758L5.75899 17.4292H6.83123H7.91004L7.94292 18.1758C7.94292 18.1758 7.2111 18.7613 7.31635 19.5901C7.37062 20.0259 7.75051 20.3959 8.0975 20.6196C8.21097 20.6919 8.33597 20.8021 8.44616 20.9715C8.75039 21.4435 8.70271 21.9549 8.70271 21.9549Z" stroke="#111111" stroke-miterlimit="10" stroke-linejoin="round"/>
<path d="M4.0802 21.9548H9.57782" stroke="#111111" stroke-miterlimit="10" stroke-linecap="round" stroke-linejoin="round"/>
<path d="M13.5048 12.6127L16.3136 9.80385L17.5503 11.0405L20.3591 8.23169" stroke="#111111" stroke-miterlimit="10" stroke-linecap="round"/>
<path d="M19.1293 8.23169H20.3594V9.46179" stroke="#111111" stroke-miterlimit="10"/>
</g>
<defs>
<clipPath id="clip0_3503_5238">
<rect width="24" height="24" fill="white" transform="translate(0.214111 0.30249)"/>
</clipPath>
</defs>
</svg>
