<svg width="16" height="17" viewBox="0 0 16 17" fill="none" xmlns="http://www.w3.org/2000/svg">
<path fill-rule="evenodd" clip-rule="evenodd" d="M1.59961 3.89961C1.59961 3.42222 1.78925 2.96438 2.12682 2.62682C2.46438 2.28925 2.92222 2.09961 3.39961 2.09961H12.5996C13.077 2.09961 13.5348 2.28925 13.8724 2.62682C14.21 2.96438 14.3996 3.42222 14.3996 3.89961V10.6996C14.3996 11.177 14.21 11.6348 13.8724 11.9724C13.5348 12.31 13.077 12.4996 12.5996 12.4996H10.1156C10.2718 13.0231 10.5777 13.4894 10.9956 13.8412C11.0896 13.9206 11.1569 14.027 11.1885 14.1459C11.22 14.2648 11.2142 14.3906 11.1718 14.5061C11.1295 14.6217 11.0526 14.7214 10.9517 14.7917C10.8508 14.8621 10.7307 14.8998 10.6076 14.8996H5.39161C5.26863 14.8996 5.14862 14.8619 5.04783 14.7914C4.94703 14.721 4.87031 14.6212 4.82806 14.5057C4.78581 14.3903 4.78007 14.2646 4.81161 14.1457C4.84315 14.0269 4.91046 13.9206 5.00441 13.8412C5.422 13.4893 5.7276 13.023 5.88361 12.4996H3.39961C2.92222 12.4996 2.46438 12.31 2.12682 11.9724C1.78925 11.6348 1.59961 11.177 1.59961 10.6996V3.89961ZM2.79961 3.89961C2.79961 3.74048 2.86282 3.58787 2.97535 3.47535C3.08787 3.36282 3.24048 3.29961 3.39961 3.29961H12.5996C12.7587 3.29961 12.9114 3.36282 13.0239 3.47535C13.1364 3.58787 13.1996 3.74048 13.1996 3.89961V9.89961C13.1996 10.0587 13.1364 10.2114 13.0239 10.3239C12.9114 10.4364 12.7587 10.4996 12.5996 10.4996H3.39961C3.24048 10.4996 3.08787 10.4364 2.97535 10.3239C2.86282 10.2114 2.79961 10.0587 2.79961 9.89961V3.89961Z" fill="#9CA5F5"/>
</svg>
