<svg xmlns="http://www.w3.org/2000/svg" width="60" height="60" fill="none" xmlns:v="https://vecta.io/nano"><path fill="#fff" d="M0 0h60v60H0z"/><path d="M17.61 28.012V26.03l32.188-8.224v10.205H17.61z" fill="#1772bd"/><g stroke="#344154" stroke-width="2" stroke-miterlimit="10"><path d="M52.274 14.615l-37.142 9.491v5.557 5.552l37.142 9.491"/><g stroke-linecap="round" stroke-linejoin="round"><path d="M52.275 29.662V13.81a1.92 1.92 0 0 1 1.916-1.915 1.92 1.92 0 0 1 1.916 1.915v31.701a1.92 1.92 0 0 1-1.916 1.916 1.92 1.92 0 0 1-1.916-1.916v-6.267M8.33 36.197l6.803-1.073V24.106L8.33 23.032"/><path d="M8.33 35.682c0 1.226-.991 2.217-2.217 2.217s-2.217-.991-2.217-2.217V23.545c0-1.226.991-2.217 2.217-2.217s2.217.991 2.217 2.217v2.902M23.061 37.34v6.993a2.25 2.25 0 0 0 2.25 2.25h8.595a2.25 2.25 0 0 0 2.25-2.25v-3.459"/></g></g></svg>