<svg xmlns="http://www.w3.org/2000/svg" xmlns:xlink="http://www.w3.org/1999/xlink" width="47" height="47" viewBox="0 0 47 47">
  <defs>
    <clipPath id="clip-path">
      <rect id="Rectangle_16" data-name="Rectangle 16" width="47" height="47" transform="translate(-1623 -152)" fill="#fff" stroke="#707070" stroke-width="1"/>
    </clipPath>
  </defs>
  <g id="file-attach-icon" transform="translate(1623 152)" clip-path="url(#clip-path)">
    <g id="files" transform="translate(-1623 -152)">
      <path id="Path_426" data-name="Path 426" d="M2.926,47A2.926,2.926,0,0,1,0,44.074V8.088H18.4l5.1,4H44.074v5.851C29.415,30.577,19.92,47,2.926,47Z" fill="#3d9ae2"/>
      <g id="Group_203" data-name="Group 203">
        <g id="Group_202" data-name="Group 202">
          <g id="Group_201" data-name="Group 201">
            <g id="Group_199" data-name="Group 199">
              <path id="Path_427" data-name="Path 427" d="M10.316,2.978H19V18.267H10.316Z" fill="#dce6eb"/>
            </g>
            <g id="Group_200" data-name="Group 200">
              <path id="Path_428" data-name="Path 428" d="M17.949,0V18.267h8.476l1.836-9.134L26.426,0Z" fill="#fff5f5"/>
              <path id="Path_429" data-name="Path 429" d="M26.426,0H44.791V18.267H26.426Z" fill="#dce6eb"/>
            </g>
          </g>
        </g>
      </g>
      <g id="Group_204" data-name="Group 204">
        <path id="Path_430" data-name="Path 430" d="M5.851,17.939V44.074A2.926,2.926,0,0,1,2.926,47h23.5l2.754-15.05L26.426,17.939Z" fill="#96c8ef"/>
        <path id="Path_431" data-name="Path 431" d="M26.426,17.939V47H44.074A2.926,2.926,0,0,0,47,44.074V17.939Z" fill="#69b1e9"/>
      </g>
      <g id="Group_205" data-name="Group 205">
        <path id="Path_432" data-name="Path 432" d="M26.426,38.625H15.6V35.871H26.426l1.836,1.377Z" fill="#69b1e9"/>
      </g>
      <g id="Group_206" data-name="Group 206">
        <path id="Path_433" data-name="Path 433" d="M26.426,35.871H37.25v2.754H26.426Z" fill="#3d9ae2"/>
      </g>
    </g>
  </g>
</svg>
