<svg xmlns="http://www.w3.org/2000/svg" width="75" height="66" fill="none" xmlns:v="https://vecta.io/nano"><path d="M0 0H16L75 52V66L0 0Z" fill="#2da771"/><g filter="url(#A)"><circle cx="43" cy="33" r="24" fill="#fff"/></g><path d="M33.643 24.2V17h1.06l3.545 5.35V17h1.06v7.2h-1.06l-3.545-5.355V24.2h-1.06zm8.856 0v-6.215h-2.395V17h5.835v.985h-2.395V24.2h-1.045zm4.24 0V17h2.255l.37.005a4.36 4.36 0 0 1 .525.04c.563.07 1.037.272 1.42.605s.678.757.875 1.27.295 1.07.295 1.68-.098 1.177-.295 1.69a3.12 3.12 0 0 1-.875 1.265c-.383.33-.857.53-1.42.6a4.36 4.36 0 0 1-.525.04l-.37.005h-2.255zm1.07-.995h1.185l.405-.01a3.45 3.45 0 0 0 .415-.04 1.57 1.57 0 0 0 .89-.475c.23-.25.398-.557.505-.92a4.1 4.1 0 0 0 .16-1.16c0-.423-.055-.815-.165-1.175s-.28-.667-.51-.91-.52-.403-.88-.47c-.12-.023-.26-.037-.42-.04l-.4-.01h-1.185v5.21zM27.405 32.35c-.72 0-1.333-.157-1.84-.47s-.895-.757-1.165-1.32-.4-1.217-.4-1.96.133-1.397.4-1.96.658-1.002 1.165-1.315 1.12-.475 1.84-.475c.83 0 1.517.21 2.06.63s.927.985 1.14 1.695l-1.06.285c-.14-.503-.39-.898-.75-1.185s-.82-.43-1.39-.43c-.51 0-.935.115-1.275.345a2.12 2.12 0 0 0-.77.965c-.173.413-.255.895-.255 1.445s.08 1.032.25 1.445.43.735.77.965.77.345 1.28.345c.57 0 1.033-.143 1.39-.43s.61-.685.75-1.185l1.06.285c-.213.71-.593 1.275-1.14 1.695s-1.23.63-2.06.63zm5.825 0c-.4 0-.735-.073-1.005-.22a1.55 1.55 0 0 1-.615-.59 1.6 1.6 0 0 1-.205-.81 1.68 1.68 0 0 1 .145-.72c.097-.207.24-.382.43-.525a2.38 2.38 0 0 1 .7-.355 7.67 7.67 0 0 1 .815-.185l.955-.15 1-.14-.38.21c.007-.423-.083-.737-.27-.94s-.5-.31-.95-.31c-.283 0-.543.067-.78.2s-.402.347-.495.65l-.975-.3a2.02 2.02 0 0 1 .76-1.105c.377-.273.877-.41 1.5-.41.483 0 .903.083 1.26.25a1.58 1.58 0 0 1 .79.78 1.63 1.63 0 0 1 .16.56c.02.197.03.408.03.635V32.2h-.925v-1.235l.18.16c-.223.413-.508.722-.855.925s-.767.3-1.27.3zm.185-.855a1.74 1.74 0 0 0 .765-.155c.213-.107.385-.242.515-.405s.215-.333.255-.51a1.79 1.79 0 0 0 .095-.54l.015-.48.34.125-.9.135-.735.12a4.41 4.41 0 0 0-.58.135c-.143.05-.272.11-.385.18a.85.85 0 0 0-.265.255.67.67 0 0 0-.095.365.76.76 0 0 0 .105.39c.07.117.177.21.32.28s.327.105.55.105zm6.328.855c-.54 0-1.008-.122-1.405-.365a2.46 2.46 0 0 1-.92-1.005c-.213-.43-.32-.925-.32-1.485s.11-1.058.33-1.485a2.42 2.42 0 0 1 .925-1c.397-.24.86-.36 1.39-.36.54 0 1.008.122 1.405.365a2.46 2.46 0 0 1 .92 1.005c.217.427.325.918.325 1.475 0 .563-.11 1.06-.33 1.49a2.46 2.46 0 0 1-.92 1.005c-.397.24-.863.36-1.4.36zm0-.985c.517 0 .902-.173 1.155-.52s.385-.8.385-1.35c0-.563-.13-1.013-.39-1.35s-.64-.51-1.15-.51c-.35 0-.638.08-.865.24a1.39 1.39 0 0 0-.505.655 2.6 2.6 0 0 0-.165.965c0 .567.13 1.02.39 1.36s.642.51 1.145.51zm8.061.985c-.553 0-1.023-.123-1.41-.37a2.42 2.42 0 0 1-.89-1.015c-.203-.43-.307-.918-.31-1.465.003-.557.11-1.048.32-1.475s.51-.767.9-1.01.858-.365 1.405-.365c.59 0 1.093.147 1.51.44s.697.695.83 1.205l-1.04.3c-.103-.303-.273-.538-.51-.705a1.33 1.33 0 0 0-.805-.255c-.343 0-.625.082-.845.245s-.383.38-.49.66-.162.6-.165.96c.003.557.13 1.007.38 1.35s.627.515 1.12.515c.337 0 .608-.077.815-.23s.37-.38.48-.67l1.06.25c-.177.527-.468.932-.875 1.215s-.9.42-1.48.42zm3.82-6.35l1.295-1.5h.9l1.29 1.5h-1l-.74-.885-.745.885h-1zm4.1-1.05h-.82l.715-1.75h.82l-.715 1.75zm-3.09 7.4c-.4 0-.735-.073-1.005-.22a1.55 1.55 0 0 1-.615-.59 1.6 1.6 0 0 1-.205-.81 1.68 1.68 0 0 1 .145-.72c.097-.207.24-.382.43-.525a2.38 2.38 0 0 1 .7-.355 7.67 7.67 0 0 1 .815-.185l.955-.15 1-.14-.38.21c.007-.423-.083-.737-.27-.94s-.5-.31-.95-.31c-.283 0-.543.067-.78.2s-.402.347-.495.65l-.975-.3a2.02 2.02 0 0 1 .76-1.105c.377-.273.877-.41 1.5-.41.483 0 .903.083 1.26.25a1.58 1.58 0 0 1 .79.78 1.63 1.63 0 0 1 .16.56c.02.197.03.408.03.635V32.2h-.925v-1.235l.18.16c-.223.413-.508.722-.855.925s-.767.3-1.27.3zm.185-.855a1.74 1.74 0 0 0 .765-.155c.213-.107.385-.242.515-.405s.215-.333.255-.51a1.79 1.79 0 0 0 .095-.54l.015-.48.34.125-.9.135-.735.12a4.41 4.41 0 0 0-.58.135c-.143.05-.272.11-.385.18a.85.85 0 0 0-.265.255.67.67 0 0 0-.095.365.76.76 0 0 0 .105.39c.07.117.177.21.32.28s.327.105.55.105zm6.518.855c-.517 0-.95-.125-1.3-.375s-.615-.595-.795-1.025-.27-.915-.27-1.455.088-1.025.265-1.455.443-.768.79-1.015.78-.375 1.29-.375.943.125 1.31.375.655.585.855 1.015.3.912.3 1.455-.1 1.027-.3 1.46-.478.77-.845 1.02-.797.375-1.3.375zm-2.54 2.25v-7.8h.93v3.885h.12V34.6h-1.05zm2.395-3.195c.333 0 .608-.085.825-.255a1.53 1.53 0 0 0 .49-.685 2.77 2.77 0 0 0 .165-.97c0-.357-.055-.673-.165-.96a1.49 1.49 0 0 0-.495-.685c-.223-.17-.508-.255-.855-.255-.327 0-.597.08-.81.24s-.367.383-.47.67a3 3 0 0 0-.15.99 3 3 0 0 0 .15.99 1.39 1.39 0 0 0 .475.675c.217.163.497.245.84.245z" fill="#5b5f7b"/><path d="M43.5 47.729l-3.635 2.14a.81.81 0 0 1-.504.128c-.175-.014-.328-.071-.46-.171a1.03 1.03 0 0 1-.307-.374c-.073-.15-.088-.318-.044-.503l.964-4.045-3.219-2.718c-.146-.129-.237-.275-.273-.439a.83.83 0 0 1 .032-.481.91.91 0 0 1 .263-.385c.117-.1.277-.164.482-.193l4.249-.364 1.643-3.81a.77.77 0 0 1 .34-.385.96.96 0 0 1 .47-.128c.16 0 .318.043.471.128s.266.214.339.385l1.643 3.81 4.249.364c.204.029.365.093.482.193a.92.92 0 0 1 .263.385.83.83 0 0 1 .033.481.82.82 0 0 1-.274.439l-3.219 2.718.964 4.045c.044.185.029.353-.044.503a1.03 1.03 0 0 1-.307.374c-.131.1-.285.157-.46.171a.81.81 0 0 1-.504-.128l-3.636-2.14zm-12-5.027l-2.181 1.223c-.096.057-.197.081-.302.073a.53.53 0 0 1-.276-.098c-.079-.057-.14-.128-.184-.214a.4.4 0 0 1-.026-.288l.578-2.312-1.932-1.553a.46.46 0 0 1-.164-.251c-.022-.094-.016-.185.019-.275a.52.52 0 0 1 .158-.22c.07-.057.166-.094.289-.11l2.549-.208.986-2.177a.45.45 0 0 1 .204-.22c.092-.049.186-.073.282-.073a.61.61 0 0 1 .283.073.45.45 0 0 1 .203.22l.986 2.177 2.549.208c.123.016.219.053.289.11a.52.52 0 0 1 .158.22c.035.09.042.181.02.275s-.077.178-.164.251l-1.932 1.553.578 2.312a.4.4 0 0 1-.026.288c-.044.086-.105.157-.184.214a.53.53 0 0 1-.276.098c-.105.008-.206-.016-.302-.073L31.5 42.702zm24 0l-2.181 1.223c-.096.057-.197.081-.302.073a.53.53 0 0 1-.276-.098c-.079-.057-.14-.128-.184-.214a.4.4 0 0 1-.026-.288l.578-2.312-1.932-1.553a.46.46 0 0 1-.164-.251c-.022-.094-.016-.185.019-.275a.52.52 0 0 1 .158-.22c.07-.057.166-.094.289-.11l2.549-.208.986-2.177a.45.45 0 0 1 .204-.22c.092-.049.186-.073.282-.073a.61.61 0 0 1 .283.073.45.45 0 0 1 .203.22l.986 2.177 2.549.208c.123.016.219.053.289.11a.52.52 0 0 1 .158.22c.035.09.042.181.02.275s-.077.178-.164.251l-1.932 1.553.578 2.312a.4.4 0 0 1-.026.288c-.044.086-.105.157-.184.214a.53.53 0 0 1-.276.098c-.105.008-.206-.016-.302-.073L55.5 42.702z" fill="#f0db1e"/><defs><filter id="A" x="14" y="8" width="58" height="58" filterUnits="userSpaceOnUse" color-interpolation-filters="sRGB"><feFlood flood-opacity="0" result="A"/><feColorMatrix in="SourceAlpha" values="0 0 0 0 0 0 0 0 0 0 0 0 0 0 0 0 0 0 127 0" result="B"/><feOffset dy="4"/><feGaussianBlur stdDeviation="2.5"/><feComposite in2="B" operator="out"/><feColorMatrix values="0 0 0 0 0 0 0 0 0 0 0 0 0 0 0 0 0 0 0.08 0"/><feBlend in2="A"/><feBlend in="SourceGraphic"/></filter></defs></svg>