<svg width="12" height="15" viewBox="0 0 12 15" fill="none" xmlns="http://www.w3.org/2000/svg">
<path fill-rule="evenodd" clip-rule="evenodd" d="M1.05752 0.557516C1.30757 0.307468 1.6467 0.166992 2.00033 0.166992H10.0003C10.3539 0.166992 10.6931 0.307468 10.9431 0.557516C11.1932 0.807566 11.3337 1.1467 11.3337 1.50033V13.5003C11.3337 13.8539 11.1932 14.1931 10.9431 14.4431C10.6931 14.6932 10.3539 14.8337 10.0003 14.8337H2.00033C1.6467 14.8337 1.30757 14.6932 1.05752 14.4431C0.807468 14.1931 0.666992 13.8539 0.666992 13.5003V1.50033C0.666992 1.1467 0.807468 0.807565 1.05752 0.557516ZM10.0003 1.50033H2.00033L2.00033 13.5003H10.0003V1.50033Z" fill="#FFC000"/>
<path fill-rule="evenodd" clip-rule="evenodd" d="M3 3.50065C3 3.13246 3.29848 2.83398 3.66667 2.83398H8.33333C8.70152 2.83398 9 3.13246 9 3.50065C9 3.86884 8.70152 4.16732 8.33333 4.16732H3.66667C3.29848 4.16732 3 3.86884 3 3.50065Z" fill="#FFC000"/>
<path d="M3.66667 7.16732C4.03486 7.16732 4.33333 6.86884 4.33333 6.50065C4.33333 6.13246 4.03486 5.83398 3.66667 5.83398C3.29848 5.83398 3 6.13246 3 6.50065C3 6.86884 3.29848 7.16732 3.66667 7.16732Z" fill="#FFC000"/>
<path d="M3.66667 9.16732C4.03486 9.16732 4.33333 8.86884 4.33333 8.50065C4.33333 8.13246 4.03486 7.83398 3.66667 7.83398C3.29848 7.83398 3 8.13246 3 8.50065C3 8.86884 3.29848 9.16732 3.66667 9.16732Z" fill="#FFC000"/>
<path d="M3.66667 11.1673C4.03486 11.1673 4.33333 10.8688 4.33333 10.5007C4.33333 10.1325 4.03486 9.83398 3.66667 9.83398C3.29848 9.83398 3 10.1325 3 10.5007C3 10.8688 3.29848 11.1673 3.66667 11.1673Z" fill="#FFC000"/>
<path d="M6.00065 7.16732C6.36884 7.16732 6.66732 6.86884 6.66732 6.50065C6.66732 6.13246 6.36884 5.83398 6.00065 5.83398C5.63246 5.83398 5.33398 6.13246 5.33398 6.50065C5.33398 6.86884 5.63246 7.16732 6.00065 7.16732Z" fill="#FFC000"/>
<path d="M6.00065 9.16732C6.36884 9.16732 6.66732 8.86884 6.66732 8.50065C6.66732 8.13246 6.36884 7.83398 6.00065 7.83398C5.63246 7.83398 5.33398 8.13246 5.33398 8.50065C5.33398 8.86884 5.63246 9.16732 6.00065 9.16732Z" fill="#FFC000"/>
<path d="M6.00065 11.1673C6.36884 11.1673 6.66732 10.8688 6.66732 10.5007C6.66732 10.1325 6.36884 9.83398 6.00065 9.83398C5.63246 9.83398 5.33398 10.1325 5.33398 10.5007C5.33398 10.8688 5.63246 11.1673 6.00065 11.1673Z" fill="#FFC000"/>
<path d="M8.33366 7.16732C8.70185 7.16732 9.00033 6.86884 9.00033 6.50065C9.00033 6.13246 8.70185 5.83398 8.33366 5.83398C7.96547 5.83398 7.66699 6.13246 7.66699 6.50065C7.66699 6.86884 7.96547 7.16732 8.33366 7.16732Z" fill="#FFC000"/>
<path d="M8.33366 9.16732C8.70185 9.16732 9.00033 8.86884 9.00033 8.50065C9.00033 8.13246 8.70185 7.83398 8.33366 7.83398C7.96547 7.83398 7.66699 8.13246 7.66699 8.50065C7.66699 8.86884 7.96547 9.16732 8.33366 9.16732Z" fill="#FFC000"/>
<path d="M8.33366 11.1673C8.70185 11.1673 9.00033 10.8688 9.00033 10.5007C9.00033 10.1325 8.70185 9.83398 8.33366 9.83398C7.96547 9.83398 7.66699 10.1325 7.66699 10.5007C7.66699 10.8688 7.96547 11.1673 8.33366 11.1673Z" fill="#FFC000"/>
</svg>
