<svg xmlns="http://www.w3.org/2000/svg" xmlns:xlink="http://www.w3.org/1999/xlink" width="80" height="80" fill="none" xmlns:v="https://vecta.io/nano"><g clip-path="url(#E)"><g fill="#1772bd"><path d="M67.394 67.689L31.7 65.291c-.043-.004-.086-.004-.129 0l-21.257.937c-.508.045-.485 1.34.092 1.411l33.401 4.351a1.69 1.69 0 0 0 .412-.001l23.111-3.159c.309-.052.421-1.114.066-1.14z"/><path d="M67.324 67.65L31.7 64.38c-.043-.004-.086-.004-.129 0l-21.154 1.807c-.388.033-.398.582-.012.629l33.401 4.01a1.69 1.69 0 0 0 .412-.001l23.111-2.905c.164-.021.16-.253-.005-.268z"/></g><path d="M43.453 70.433c.049 0 .099-.003.148-.009l20.714-2.604c.076-.009.073-.117-.002-.123l-31.808-2.914-.021-.001-20.24 1.728c-.094.008-.096.141-.003.152l31.071 3.763a1.23 1.23 0 0 0 .141.008z" fill="url(#B)"/><path d="M55.238 69.18c.008.06.202.086.435.059s.415-.098.408-.158-.202-.087-.435-.059-.415.098-.408.159z" fill="url(#C)"/><g fill="#1772bd"><path d="M38.393 71.035l3.206.41c.234.03.426-.082.426-.249s-.192-.325-.426-.352l-3.206-.364c-.198-.023-.357.083-.357.235s.159.296.357.321zm-3.503-.447l2.64.337c.191.024.348-.078.348-.23s-.157-.292-.348-.314l-2.64-.3c-.165-.019-.297.079-.297.217s.132.268.297.289zm-4.425-.566l2.009.257c.144.018.262-.073.262-.204s-.118-.251-.262-.268l-2.009-.228c-.126-.014-.228.073-.228.194s.102.233.228.249z"/></g><g fill="#fff"><path opacity=".6" d="M26.747 66.398c3.104.537 5.166 1.632 9.621 1.72 3.859.076 3.887-.789 8.372-1.062 5.876-.358 7.407 1.03 13.417.911a38.65 38.65 0 0 0 6.045-.602l3.122.287c.165.015.169.247.005.268l-23.111 2.905a1.69 1.69 0 0 1-.412.001l-28.271-3.394c4.851-1.574 8.565-1.492 11.212-1.033z"/><path d="M34.105 67.987c-1.654 0-4.115-.279-4.115-1.046s2.461-1.046 4.115-1.046 4.115.279 4.115 1.046-2.461 1.046-4.115 1.046zm0-1.786c-2.496 0-3.801.482-3.801.74s1.305.74 3.801.74 3.801-.482 3.801-.74-1.305-.74-3.801-.74z"/><path opacity=".6" d="M34.106 67.347c.994 0 1.799-.182 1.799-.406s-.806-.406-1.799-.406-1.799.182-1.799.406.805.406 1.799.406z"/></g><mask id="A" maskUnits="userSpaceOnUse" x="11" y="24" width="49" height="44" mask-type="alpha"><path d="M59.506 31.121L38.218 64.979l-.194.309-.258.411-.453.72-.329.522c0 .348-1.21.631-2.73.649l-.148.001c-1.59 0-2.879-.291-2.879-.65l-.301-.531-.603-1.064-.206-.363-.258-.455-1.267-2.236-2.182-3.85-2.459-4.339-.245-.433-2.717-4.795-1.727-3.047-7.644-13.49c1.769-1.318 5.898-4.173 11.917-6.137.894-.292 1.829-.564 2.806-.809l.684-.166.522-.117.417-.09a41.32 41.32 0 0 1 6.726-.833l.873-.028a41.47 41.47 0 0 1 12.118 1.549l.348.099.1.029c.369.108.731.22 1.086.335a42.58 42.58 0 0 1 2.742.99c3.616 1.448 6.205 3.062 7.55 3.961z" fill="url(#D)"/></mask><g mask="url(#A)"><path opacity=".56" d="M59.506 31.121L38.218 64.979l-.194.309-.258.411-.453.72-.329.522c0 .348-1.21.631-2.73.649l-.148.001c-1.59 0-2.879-.291-2.879-.65l-.301-.531-.603-1.064-.206-.363-.258-.455-1.267-2.236-2.182-3.85-2.459-4.339-.245-.433-2.717-4.795-1.727-3.047-7.644-13.49c1.769-1.318 5.898-4.173 11.917-6.137.894-.292 1.829-.564 2.806-.809l.684-.166.522-.117.417-.09a41.32 41.32 0 0 1 6.726-.833l.873-.028a41.47 41.47 0 0 1 12.118 1.549l.348.099.1.029c.369.108.731.22 1.086.335a42.58 42.58 0 0 1 2.742.99c3.616 1.448 6.205 3.062 7.55 3.961z" fill="#fff"/></g><use xlink:href="#F" fill="#d8dee8"/><g fill="#e5e5e5"><path d="M39.478 8.001h-9.709c-9.955 0-18.026 7.851-18.026 17.535h0c0 5.168 4.307 9.357 9.619 9.357h26.523c5.312 0 9.619-4.189 9.619-9.357C57.504 15.851 49.434 8 39.478 8zm-1.705 46.067h-6.299c-6.459 0-11.695-5.093-11.695-11.376 0-3.353 2.794-6.071 6.24-6.071h17.208c3.447 0 6.24 2.718 6.24 6.071 0 6.283-5.236 11.376-11.695 11.376z"/></g><path d="M48.291 31.112H29.835c-2.501 0-4.553-1.865-4.553-4.166v-3.528c0-2.3 2.052-4.102 4.553-4.024l18.456.573c2.233.069 4.024 1.858 4.024 3.996v3.278c0 2.138-1.79 3.871-4.024 3.871z" fill="#1772bd"/><g fill="#fff"><path d="M35.748 24.994c0 1.536-1.344 2.765-3.016 2.745-1.687-.021-3.066-1.304-3.066-2.865s1.379-2.79 3.066-2.744c1.672.046 3.016 1.328 3.016 2.864zm12.473.247c0 1.485-1.256 2.673-2.816 2.654-1.575-.02-2.861-1.258-2.861-2.766s1.287-2.696 2.861-2.653c1.561.043 2.816 1.281 2.816 2.765z"/><path opacity=".3" d="M41.321 32.434c-2.745-3.137-1.525-5.646-5.114-9.897-4.937-5.85-10.697-5.188-12.017-9.155-.366-1.099-.407-2.608.573-4.694-7.52 2.11-13.021 8.855-13.021 16.849h0c0 5.168 4.307 9.357 9.619 9.357h23.115c-1.384-.734-2.396-1.592-3.155-2.46z"/></g><path d="M14.337 32.093c2.849 0 5.159-3.157 5.159-7.052s-2.31-7.052-5.159-7.052-5.159 3.157-5.159 7.052 2.31 7.052 5.159 7.052z" fill="#d8dee8"/><path d="M10.257 28.124c1.246 0 2.256-1.381 2.256-3.084s-1.01-3.084-2.256-3.084-2.256 1.381-2.256 3.084 1.01 3.084 2.256 3.084z" fill="#bfc8d6"/><path opacity=".4" d="M39.325 47.804c-.864-3.948-10.423-3.853-10.684-6.433-.2-1.989 5.288-3.959 5.978-4.206a21.22 21.22 0 0 1 1.755-.544H26.02c-3.446 0-6.24 2.718-6.24 6.071 0 6.283 5.236 11.376 11.695 11.376h6.299c.605 0 1.2-.045 1.78-.131-.548-.661-.906-1.384-.992-2.173-.192-1.749 1.098-2.429.763-3.959z" fill="#fff"/><path d="M34.779 38.131c5.494 0 9.948-.525 9.948-1.172s-4.454-1.172-9.948-1.172-9.948.525-9.948 1.172 4.454 1.172 9.948 1.172z" fill="#d8dee8"/><path d="M67.974 35.991c-1.698-.634-3.556-.315-5.052.696-.547-2.659-2.284-4.91-4.871-5.875-4.239-1.581-9.155.887-10.978 5.513-.47 1.192-.688 2.411-.682 3.592-.219-.133-.452-.248-.701-.34-2.316-.864-5.001.484-5.998 3.012s.039 5.369 2.389 6.141c1.255.412 3.242.42 3.242.42l19.916-1.395c2.38.019 4.725-1.564 5.721-4.09 1.245-3.158-.091-6.594-2.986-7.673z" fill="#1772bd"/><path d="M68.549 35.993c-1.698-.634-3.556-.315-5.052.695-.547-2.659-2.284-4.91-4.872-5.875-4.239-1.582-9.154.887-10.978 5.513a9.65 9.65 0 0 0-.682 3.591c-.219-.133-.452-.248-.7-.34-2.316-.864-5.001.484-5.998 3.012s.073 5.277 2.39 6.141c.49.183 3.242.42 3.242.42l19.916-1.395c2.38.019 4.725-1.564 5.721-4.09 1.245-3.158-.091-6.594-2.986-7.673z" fill="#2a8fe1"/><g fill="#fff"><path fill-rule="evenodd" d="M61.173 40.44l-.124-.086c-.315-.22-.616-.428-.98-.602.242-.527.347-1.241-.049-1.741-.24-.301-.584-.455-.949-.424a1.09 1.09 0 0 0-.819.501c-.373.569-.138 1.298.222 1.816l-.253.19c-.383-.488-.897-.894-1.531-1.204.145-.415.358-1.301-.172-1.921-.255-.293-.596-.445-.935-.416s-.648.237-.844.569c-.411.7-.045 1.537.172 1.921-.566.414-1 .901-1.293 1.448l-.283-.144c.263-.572.367-1.333-.104-1.827-.239-.254-.565-.382-.895-.354a1.07 1.07 0 0 0-.859.58c-.305.56-.071 1.245.258 1.723-.34.242-.587.494-.872.784l-.106.109c-.026.027-.029.068-.007.097.014.021.041.034.069.032.009-.001.018-.005.028-.009l.285-.146 1.312-.606c.021-.008.039-.025.046-.048s.005-.044-.009-.065l-.099-.157c-.153-.24-.499-.84-.428-1.243.039-.231.219-.4.446-.419.066-.006.132.001.197.02.197.058.321.216.34.43.038.428-.184.999-.28 1.223l-.065.149c-.008.019-.009.041-.001.059a.08.08 0 0 0 .044.04l.152.052c.201.07.389.172.588.29a3.85 3.85 0 0 0-.053 2.18c.182.699.535 1.349 1.019 1.876l.122.133c.014.017.037.025.059.023h.003c.022-.002.04-.013.054-.03l.11-.144c.45-.588.698-1.321.683-2.016-.018-.866-.422-1.63-1.169-2.215.275-.608.732-1.118 1.316-1.478l.128-.08c.036-.022.047-.066.025-.102l-.081-.127c-.327-.524-.619-1.123-.333-1.616.096-.161.231-.26.384-.274s.304.058.427.204c.369.437.184 1.077-.041 1.649l-.057.139c-.015.039.004.081.043.096l.14.057c.641.254 1.179.679 1.558 1.23-.631.704-.894 1.525-.757 2.382.109.687.484 1.366 1.031 1.868l.133.123c.017.014.037.022.058.02h.003c.022-.002.043-.016.054-.033l.096-.152a4.35 4.35 0 0 0 .67-2.021c.058-.76-.097-1.499-.44-2.138a3.43 3.43 0 0 1 .528-.386l.141-.078c.018-.011.032-.028.037-.047s.003-.041-.011-.058l-.091-.136c-.135-.207-.455-.729-.493-1.156-.019-.214.075-.387.258-.481.06-.03.125-.048.19-.054.224-.019.431.116.514.337.141.387-.093 1.035-.201 1.297l-.07.172c-.008.019-.009.044.003.065s.031.035.054.039c.393.072.748.176 1.122.284l.57.16c.01.002.016.002.025.001.025-.002.052-.017.062-.043.016-.033.006-.069-.024-.092zm-3.12 3.637c-.663-.951-.654-2.082.019-3.011.411.948.405 2.032-.019 3.011zm-4.12-2.654c.831.796 1.038 1.912.554 2.962-.592-.892-.791-1.958-.554-2.962z"/><path d="M22.807 40.124c-.739.589-.848 1.65-.242 2.37l4.993 5.927 2.678-2.135-4.994-5.927c-.606-.719-1.697-.825-2.436-.235z"/><path d="M38.46 45.73c-.108-.924-.966-1.588-1.916-1.483l-7.827.866.391 3.346 7.827-.866c.95-.105 1.632-.939 1.524-1.864z"/></g><g fill="#1772bd"><path d="M28.716 49.537c1.387 0 2.512-1.094 2.512-2.443s-1.124-2.443-2.512-2.443-2.512 1.094-2.512 2.443 1.125 2.443 2.512 2.443zm8.146-4.977l1.293 3.087c.192.459.921.595 1.477.27.815-.477 1.705-1.291 1.346-2.469-.455-1.49-1.808-1.919-2.921-2.006-.755-.059-1.424.571-1.194 1.119z"/></g></g><defs><linearGradient id="B" x1="64.37" y1="67.607" x2="12.171" y2="67.607" gradientUnits="userSpaceOnUse"><stop stop-color="#ff9085"/><stop offset=".255" stop-color="#ffa694"/><stop offset="1" stop-color="#ffe6c0"/></linearGradient><linearGradient id="C" x1="56.081" y1="69.081" x2="55.238" y2="69.186" gradientUnits="userSpaceOnUse"><stop stop-color="#ff9085"/><stop offset="1" stop-color="#ffee52"/></linearGradient><linearGradient id="D" x1="37.006" y1="64.985" x2="35.588" y2="30.471" gradientUnits="userSpaceOnUse"><stop stop-color="#fff"/><stop offset="1"/></linearGradient><clipPath id="E"><path fill="#fff" transform="translate(8.001 8.001)" d="M0 0h64v64H0z"/></clipPath><path id="F" d="M55.246 32.141c2.849 0 5.159-3.157 5.159-7.052s-2.31-7.052-5.159-7.052-5.159 3.157-5.159 7.052 2.31 7.052 5.159 7.052z"/></defs></svg>