<svg xmlns="http://www.w3.org/2000/svg" xmlns:xlink="http://www.w3.org/1999/xlink" width="60" height="60" fill="none" xmlns:v="https://vecta.io/nano"><path fill="#fff" d="M0 0h60v60H0z"/><g stroke="#344154" stroke-width="2" stroke-miterlimit="10"><use xlink:href="#B"/><g stroke-linecap="round"><path d="M12.953 42.409v5.189m4.838 8.186v-7.233m-9.676.001v7.233"/><path d="M4.251 55.785v-9.346c0-2.225 1.189-4.029 3.414-4.029h10.568"/><path d="M18.238 42.409c2.225 0 3.414 1.804 3.414 4.029v5.173"/></g><use xlink:href="#B" x="17.402"/><path d="M30.352 42.409v5.189m4.838 8.186v-7.233m-9.677.001v7.233m-3.86-4.174v-5.173c0-2.225 1.189-4.029 3.414-4.029h10.568m.001 0c2.225 0 3.414 1.804 3.414 4.029v5.173" stroke-linecap="round"/><path d="M50.769 36.769c0 1.668-1.354 3.022-3.022 3.022s-3.022-1.354-3.022-3.022 1.354-3.022 3.022-3.022a3.02 3.02 0 0 1 3.022 3.022z"/><path d="M47.747 42.409v5.189m4.838 8.186v-7.233m-9.678.001v7.233m-3.858-4.174v-5.173c0-2.225 1.189-4.029 3.414-4.029h10.568m.001 0c2.225 0 3.414 1.804 3.414 4.029v9.346" stroke-linecap="round"/><path d="M48.49 8.242H12.211v18.779H48.49V8.242z"/><path d="M48.931 8.242H11.769c-.739 0-1.334-.722-1.334-1.618s.599-1.618 1.334-1.618h37.162c.739 0 1.333.722 1.333 1.618s-.599 1.618-1.333 1.618z"/><path d="M31.758 27.022v3.34m-2.816-.001v-3.34M8.115 55.783h44.469M18.516 21.382l6.502-4.983 3.08 3.129 5.218-4.079 2.576 2.663 6.296-4.714" stroke-linecap="round"/></g><defs ><path id="B" d="M15.972 36.769c0 1.668-1.354 3.022-3.022 3.022s-3.022-1.354-3.022-3.022 1.354-3.022 3.022-3.022 3.022 1.354 3.022 3.022z"/></defs></svg>